
<svg width="334" height="80" viewBox="0 0 334 80" fill="none" xmlns="http://www.w3.org/2000/svg">
<path d="M330.05 39.6901L332.31 40.9601C332.86 41.2701 333.2 41.8401 333.2 42.4601V57.4401C333.2 69.3401 323.3 78.9801 311.09 78.9801H23.11C10.9 78.9801 1 69.3401 1 57.4401C1 56.9301 1.28 56.4701 1.73 56.2101L4.16 54.8401C4.78 54.4901 4.78 53.6101 4.16 53.2601L1.73 51.8901C1.28 51.6401 1 51.1701 1 50.6601V22.0701C1 10.2001 10.9 0.560059 23.11 0.560059H311.1C323.31 0.560059 333.21 10.2001 333.21 22.1001V35.3401C333.21 35.9601 332.87 36.5301 332.32 36.8401L330.06 38.1101C329.44 38.4601 329.44 39.3401 330.06 39.6901H330.05Z" fill="url(#paint0_linear_0_1)" stroke="#894507" stroke-width="1.12" stroke-miterlimit="10"/>
<path d="M31.32 74.83C32.1 74.83 308.38 60.53 308.38 60.53C308.38 60.53 308.12 67.05 306.04 68.87C303.96 70.69 33.47 77.08 33.47 77.08L31.32 74.82V74.83Z" fill="#E48505"/>
<path d="M31.69 4.26995L303.67 6.11994C303.67 6.11994 299.37 0.699945 290.11 0.579945C280.85 0.459945 40.82 0.579945 40.82 0.579945C39.23 0.899945 35.11 1.72995 31.69 4.26995Z" fill="url(#paint1_linear_0_1)"/>
<defs>
<linearGradient id="paint0_linear_0_1" x1="167.37" y1="0.770059" x2="166.83" y2="79.4201" gradientUnits="userSpaceOnUse">
<stop offset="0.25" stop-color="#F9D100"/>
<stop offset="1" stop-color="#E28E29"/>
</linearGradient>
<linearGradient id="paint1_linear_0_1" x1="31.69" y1="3.31994" x2="303.67" y2="3.31994" gradientUnits="userSpaceOnUse">
<stop offset="0.11" stop-color="#F2A927"/>
<stop offset="1" stop-color="#DF9A00"/>
</linearGradient>
</defs>
</svg>
