<svg width="120" height="120" viewBox="0 0 120 120" fill="none" xmlns="http://www.w3.org/2000/svg">
<path d="M30.1453 86.5093V109.709C30.1453 111.546 28.6544 113.018 26.8362 113.018H6.9635C5.12714 113.018 3.63623 111.527 3.63623 109.709V86.5093H30.1453Z" fill="#FF7146"/>
<path d="M30.1453 109.709C30.1453 111.546 28.6544 113.018 26.8362 113.018H6.9635C5.12714 113.018 3.63623 111.528 3.63623 109.709V86.4912H6.94532V103.073C6.94532 106.728 9.90896 109.691 13.5635 109.691H30.1453V109.709Z" fill="#E5653F"/>
<path d="M3.63623 59.9819H30.1453V86.5092H3.63623V59.9819Z" fill="#FFC040"/>
<path d="M30.1453 83.1821V86.4911H3.63623V59.9639H6.94532V76.5457C6.94532 80.2002 9.90896 83.1639 13.5635 83.1639H30.1453V83.1821Z" fill="#E5AC39"/>
<path d="M30.1453 33.4546V59.9819H3.63623V36.7637C3.63623 34.9273 5.12714 33.4546 6.94532 33.4546H30.1453Z" fill="#FFC040"/>
<path d="M30.1453 56.6546V59.9637H3.63623V36.7637C3.63623 34.9273 5.12714 33.4546 6.94532 33.4546V50.0364C6.94532 53.691 9.90896 56.6546 13.5635 56.6546H30.1453Z" fill="#E5AC39"/>
<path d="M30.1455 33.4546H56.6546V59.9819H30.1455V33.4546Z" fill="#FFC040"/>
<path d="M56.6546 56.6546V59.9637H30.1455V33.4546H33.4546V50.0364C33.4546 53.691 36.4182 56.6546 40.0728 56.6546H56.6546Z" fill="#E5AC39"/>
<path d="M56.6543 33.4546H83.1634V59.9819H56.6543V33.4546Z" fill="#FFC040"/>
<path d="M83.1634 56.6546V59.9637H56.6543V33.4546H59.9634V50.0364C59.9634 53.691 62.927 56.6546 66.5816 56.6546H83.1634Z" fill="#E5AC39"/>
<path d="M56.6546 6.98193V33.5092H30.1455V10.291C30.1455 8.45466 31.6364 6.98193 33.4546 6.98193H56.6546Z" fill="#FF7146"/>
<path d="M56.6546 30.2001V33.5092H30.1455V10.291C30.1455 8.45466 31.6364 6.98193 33.4546 6.98193V23.5638C33.4546 27.2183 36.4182 30.1819 40.0728 30.1819H56.6546V30.2001Z" fill="#E5653F"/>
<path d="M83.1634 10.291V33.491H56.6543V6.98193H79.8543C81.6725 6.98193 83.1634 8.47284 83.1634 10.291Z" fill="#FFC040"/>
<path d="M83.1634 30.2001V33.5092H56.6543V6.98193H59.9634V23.5638C59.9634 27.2183 62.927 30.1819 66.5816 30.1819H83.1634V30.2001Z" fill="#E5AC39"/>
<path d="M30.1455 59.9819H56.6546V86.5092H30.1455V59.9819Z" fill="#FF7146"/>
<path d="M56.6546 83.1821V86.4911H30.1455V59.9639H33.4546V76.5457C33.4546 80.2002 36.4182 83.1639 40.0728 83.1639H56.6546V83.1821Z" fill="#E5653F"/>
<path d="M56.6543 59.9819H83.1634V86.5092H56.6543V59.9819Z" fill="#FF7146"/>
<path d="M83.1634 83.1821V86.4911H56.6543V59.9639H59.9634V76.5457C59.9634 80.2002 62.927 83.1639 66.5816 83.1639H83.1634V83.1821Z" fill="#E5653F"/>
<path d="M83.1634 86.5093V109.709C83.1634 111.546 81.6725 113.018 79.8543 113.018H59.9634C58.127 113.018 56.6543 111.527 56.6543 109.709V86.5093H83.1634Z" fill="#FF7146"/>
<path d="M67.6362 104.145L83.1635 101.236V94.3091L67.6362 104.145Z" fill="#E5653F"/>
<path d="M83.1634 109.709C83.1634 111.546 81.6725 113.018 79.8543 113.018H59.9634C58.127 113.018 56.6543 111.528 56.6543 109.709V86.4912H59.9634V103.073C59.9634 106.728 62.927 109.691 66.5816 109.691H83.1634V109.709Z" fill="#E5653F"/>
<path d="M109.673 36.7637V56.6546C109.673 58.491 108.182 59.9637 106.364 59.9637H83.1636V33.4546H106.364C108.182 33.4546 109.673 34.9273 109.673 36.7637Z" fill="#FFC040"/>
<path d="M109.673 56.6546C109.673 58.491 108.182 59.9637 106.364 59.9637H83.1636V33.4546H86.4727V50.0364C86.4727 53.691 89.4363 56.6546 93.0908 56.6546H109.673Z" fill="#E5AC39"/>
<path d="M72.8872 87.2222L101.579 58.5308L111.798 68.7502L83.1066 97.4415L72.8872 87.2222Z" fill="#1C8FC7"/>
<path d="M83.1273 97.4546L72.4 102.091L67.6364 104.146C66.7273 104.527 65.8364 103.618 66.2 102.709L68.2545 97.9455L72.8909 87.2183L83.1273 97.4546Z" fill="#E5D3B3"/>
<path d="M114.237 66.3274L111.8 68.7638L101.582 58.5456L104.018 56.1092C106.837 53.2911 111.418 53.2911 114.237 56.1092C117.073 58.9274 117.073 63.4911 114.237 66.3274Z" fill="#F6F0F5"/>
<path d="M76.4092 90.7441L105.101 62.0528L108.276 65.2279L79.5843 93.9192L76.4092 90.7441Z" fill="#0D4353"/>
<path d="M72.4 102.091L67.6364 104.146C66.7273 104.528 65.8364 103.619 66.2 102.709L68.2545 97.9458C69.1636 98.2913 70.0364 98.8185 70.7818 99.564C71.5273 100.309 72.0545 101.164 72.4 102.091Z" fill="#0D4353"/>
</svg>
