<svg width="419" height="132" viewBox="0 0 419 132" fill="none" xmlns="http://www.w3.org/2000/svg">
<path d="M380.01 1H38.28C17.5307 1 0.710022 17.8207 0.710022 38.57V93.3C0.710022 114.049 17.5307 130.87 38.28 130.87H380.01C400.759 130.87 417.58 114.049 417.58 93.3V38.57C417.58 17.8207 400.759 1 380.01 1Z" fill="url(#paint0_linear_5_538)" stroke="#894507" stroke-width="1.42" stroke-miterlimit="10"/>
<path d="M403.27 65.82L405.97 67.54C406.63 67.96 407.03 68.73 407.03 69.56V89.74C407.03 105.76 395.23 118.75 380.68 118.75H37.35C22.79 118.75 11 105.76 11 89.74C11 89.06 11.33 88.43 11.87 88.09L14.76 86.25C15.5 85.78 15.5 84.59 14.76 84.12L11.87 82.28C11.33 81.94 11 81.31 11 80.63V42.12C11 26.11 22.8 13.12 37.36 13.12H380.68C395.24 13.12 407.04 26.11 407.04 42.13V59.96C407.04 60.79 406.64 61.56 405.98 61.98L403.28 63.7C402.54 64.17 402.54 65.36 403.28 65.83L403.27 65.82Z" fill="url(#paint1_linear_5_538)" stroke="#894507" stroke-width="1.42" stroke-miterlimit="10"/>
<path d="M21.4 110.93C22.48 110.93 405.75 91.09 405.75 91.09C405.75 91.09 405.39 100.13 402.51 102.67C399.63 105.2 24.39 114.07 24.39 114.07L21.4 110.93Z" fill="#E48505"/>
<path d="M21.91 19.69L399.22 22.58C399.22 22.58 393.25 14.08 380.41 13.9C367.57 13.72 34.58 13.9 34.58 13.9C32.37 14.4 26.66 15.7 21.92 19.69H21.91Z" fill="url(#paint2_linear_5_538)"/>
<mask id="path-5-outside-1_5_538" maskUnits="userSpaceOnUse" x="91" y="40.29" width="234" height="58" fill="black">
<rect fill="white" x="91" y="40.29" width="234" height="58"/>
<path d="M93.77 71.04C93.77 66.4567 94.5767 62.6984 96.19 59.765C97.84 56.8317 100.022 54.6684 102.735 53.275C105.485 51.8817 108.51 51.185 111.81 51.185C113.607 51.185 115.22 51.35 116.65 51.68C118.08 52.01 119.29 52.4134 120.28 52.89C121.307 53.3667 122.04 53.8434 122.48 54.32V64.935H121.27C120.977 64.275 120.427 63.6334 119.62 63.01C118.85 62.3867 117.933 61.8734 116.87 61.47C115.807 61.03 114.67 60.81 113.46 60.81C111.553 60.81 109.94 61.1767 108.62 61.91C107.3 62.6434 106.292 63.7617 105.595 65.265C104.935 66.7684 104.605 68.7117 104.605 71.095C104.605 73.3317 104.898 75.2384 105.485 76.815C106.072 78.3917 106.952 79.5834 108.125 80.39C109.335 81.1967 110.802 81.6 112.525 81.6C112.525 81.6 112.562 81.6367 112.635 81.71C112.745 81.7467 112.873 81.71 113.02 81.6V75.605H107.63V66.53H122.48V86.385C120.903 87.9617 119.088 89.1167 117.035 89.85C115.018 90.5467 112.818 90.895 110.435 90.895C108.308 90.895 106.255 90.51 104.275 89.74C102.295 88.9334 100.517 87.7234 98.94 86.11C97.3633 84.4967 96.0983 82.4434 95.145 79.95C94.2283 77.4567 93.77 74.4867 93.77 71.04ZM126.941 51.79H137.391V90.29H126.941V51.79ZM156.4 51.13C157.94 51.13 159.187 51.2034 160.14 51.35C161.13 51.46 161.973 51.5884 162.67 51.735C163.367 51.8817 164.045 51.955 164.705 51.955C165.878 51.955 166.703 51.515 167.18 50.635C167.657 49.755 167.895 48.6367 167.895 47.28H171.415C171.415 49.26 170.902 50.9284 169.875 52.285C168.885 53.6417 167.29 54.32 165.09 54.32L162.395 54.265L156.4 51.13ZM164.705 53.935H166.52V54.925H164.705V53.935ZM140.23 71.04C140.23 66.3834 140.982 62.5884 142.485 59.655C143.988 56.7217 145.968 54.5767 148.425 53.22C150.882 51.8267 153.522 51.13 156.345 51.13C159.205 51.13 161.845 51.8267 164.265 53.22C166.722 54.5767 168.702 56.7217 170.205 59.655C171.708 62.5884 172.46 66.3834 172.46 71.04C172.46 75.6967 171.708 79.4917 170.205 82.425C168.702 85.3584 166.722 87.5217 164.265 88.915C161.845 90.2717 159.205 90.95 156.345 90.95C153.522 90.95 150.882 90.2717 148.425 88.915C145.968 87.5217 143.988 85.3584 142.485 82.425C140.982 79.4917 140.23 75.6967 140.23 71.04ZM151.065 71.04C151.065 73.2034 151.303 75.0367 151.78 76.54C152.257 78.0067 152.898 79.125 153.705 79.895C154.512 80.665 155.392 81.05 156.345 81.05C157.335 81.05 158.233 80.665 159.04 79.895C159.847 79.125 160.488 78.0067 160.965 76.54C161.478 75.0367 161.735 73.2034 161.735 71.04C161.735 68.8034 161.478 66.9517 160.965 65.485C160.488 64.0184 159.847 62.9184 159.04 62.185C158.233 61.415 157.335 61.03 156.345 61.03C155.392 61.03 154.512 61.415 153.705 62.185C152.898 62.9184 152.257 64.0367 151.78 65.54C151.303 67.0067 151.065 68.84 151.065 71.04ZM164.705 42.825L165.2 42.935V46.345C164.137 46.9317 162.835 47.4267 161.295 47.83C159.792 48.1967 158.215 48.49 156.565 48.71C154.915 48.93 153.338 49.095 151.835 49.205C150.368 49.2784 149.14 49.315 148.15 49.315V46.895C149.543 46.895 151.23 46.7667 153.21 46.51C155.227 46.2167 157.262 45.7767 159.315 45.19C161.368 44.5667 163.165 43.7784 164.705 42.825ZM175.334 51.79H185.784V90.29H175.334V51.79ZM223.908 51.79V61.47H217.693V90.29H207.243V61.47H200.753V51.79H223.908ZM242.31 51.79H252.87V90.29H242.31V75.715H236.975V90.29H226.36V51.79H236.975V66.365H242.31V51.79ZM257.028 51.79H267.478V90.29H257.028V51.79ZM291.878 51.79V61.305H282.088V67.08C283.078 66.75 284.068 66.475 285.058 66.255C286.085 66.035 287.075 65.8884 288.028 65.815C289.018 65.7417 289.935 65.76 290.778 65.87V75.11L290.173 75.44C289.476 75.22 288.688 75.0734 287.808 75C286.965 74.9267 286.066 74.945 285.113 75.055C284.16 75.165 283.151 75.385 282.088 75.715V80.775H291.878V90.29H271.638V51.79H291.878ZM275.928 93.15H286.378V96.23H275.928V93.15ZM279.228 42.66H284.178C284.948 43.98 285.938 45.0434 287.148 45.85C288.358 46.6567 289.935 47.06 291.878 47.06V49.48C290.008 49.48 288.156 49.2234 286.323 48.71C284.526 48.1967 283.096 47.28 282.033 45.96H281.373C280.31 47.28 278.861 48.1967 277.028 48.71C275.231 49.2234 273.398 49.48 271.528 49.48V47.06C273.471 47.06 275.066 46.6567 276.313 45.85C277.56 45.0067 278.531 43.9434 279.228 42.66ZM322.225 76.21C322.225 78.8867 321.821 81.1784 321.015 83.085C320.245 84.955 319.181 86.4584 317.825 87.595C316.505 88.7317 315.038 89.575 313.425 90.125C311.811 90.6384 310.18 90.895 308.53 90.895C306.916 90.895 305.303 90.6384 303.69 90.125C302.076 89.575 300.61 88.7317 299.29 87.595C297.97 86.4584 296.906 84.955 296.1 83.085C295.33 81.1784 294.945 78.8867 294.945 76.21V51.79H305.56V74.615C305.56 75.605 305.615 76.54 305.725 77.42C305.871 78.2634 306.146 78.9417 306.55 79.455C306.99 79.9684 307.65 80.225 308.53 80.225C309.446 80.225 310.106 79.9684 310.51 79.455C310.95 78.9417 311.243 78.2634 311.39 77.42C311.536 76.54 311.61 75.605 311.61 74.615V51.79H322.225V76.21Z"/>
</mask>
<path d="M93.77 71.04C93.77 66.4567 94.5767 62.6984 96.19 59.765C97.84 56.8317 100.022 54.6684 102.735 53.275C105.485 51.8817 108.51 51.185 111.81 51.185C113.607 51.185 115.22 51.35 116.65 51.68C118.08 52.01 119.29 52.4134 120.28 52.89C121.307 53.3667 122.04 53.8434 122.48 54.32V64.935H121.27C120.977 64.275 120.427 63.6334 119.62 63.01C118.85 62.3867 117.933 61.8734 116.87 61.47C115.807 61.03 114.67 60.81 113.46 60.81C111.553 60.81 109.94 61.1767 108.62 61.91C107.3 62.6434 106.292 63.7617 105.595 65.265C104.935 66.7684 104.605 68.7117 104.605 71.095C104.605 73.3317 104.898 75.2384 105.485 76.815C106.072 78.3917 106.952 79.5834 108.125 80.39C109.335 81.1967 110.802 81.6 112.525 81.6C112.525 81.6 112.562 81.6367 112.635 81.71C112.745 81.7467 112.873 81.71 113.02 81.6V75.605H107.63V66.53H122.48V86.385C120.903 87.9617 119.088 89.1167 117.035 89.85C115.018 90.5467 112.818 90.895 110.435 90.895C108.308 90.895 106.255 90.51 104.275 89.74C102.295 88.9334 100.517 87.7234 98.94 86.11C97.3633 84.4967 96.0983 82.4434 95.145 79.95C94.2283 77.4567 93.77 74.4867 93.77 71.04ZM126.941 51.79H137.391V90.29H126.941V51.79ZM156.4 51.13C157.94 51.13 159.187 51.2034 160.14 51.35C161.13 51.46 161.973 51.5884 162.67 51.735C163.367 51.8817 164.045 51.955 164.705 51.955C165.878 51.955 166.703 51.515 167.18 50.635C167.657 49.755 167.895 48.6367 167.895 47.28H171.415C171.415 49.26 170.902 50.9284 169.875 52.285C168.885 53.6417 167.29 54.32 165.09 54.32L162.395 54.265L156.4 51.13ZM164.705 53.935H166.52V54.925H164.705V53.935ZM140.23 71.04C140.23 66.3834 140.982 62.5884 142.485 59.655C143.988 56.7217 145.968 54.5767 148.425 53.22C150.882 51.8267 153.522 51.13 156.345 51.13C159.205 51.13 161.845 51.8267 164.265 53.22C166.722 54.5767 168.702 56.7217 170.205 59.655C171.708 62.5884 172.46 66.3834 172.46 71.04C172.46 75.6967 171.708 79.4917 170.205 82.425C168.702 85.3584 166.722 87.5217 164.265 88.915C161.845 90.2717 159.205 90.95 156.345 90.95C153.522 90.95 150.882 90.2717 148.425 88.915C145.968 87.5217 143.988 85.3584 142.485 82.425C140.982 79.4917 140.23 75.6967 140.23 71.04ZM151.065 71.04C151.065 73.2034 151.303 75.0367 151.78 76.54C152.257 78.0067 152.898 79.125 153.705 79.895C154.512 80.665 155.392 81.05 156.345 81.05C157.335 81.05 158.233 80.665 159.04 79.895C159.847 79.125 160.488 78.0067 160.965 76.54C161.478 75.0367 161.735 73.2034 161.735 71.04C161.735 68.8034 161.478 66.9517 160.965 65.485C160.488 64.0184 159.847 62.9184 159.04 62.185C158.233 61.415 157.335 61.03 156.345 61.03C155.392 61.03 154.512 61.415 153.705 62.185C152.898 62.9184 152.257 64.0367 151.78 65.54C151.303 67.0067 151.065 68.84 151.065 71.04ZM164.705 42.825L165.2 42.935V46.345C164.137 46.9317 162.835 47.4267 161.295 47.83C159.792 48.1967 158.215 48.49 156.565 48.71C154.915 48.93 153.338 49.095 151.835 49.205C150.368 49.2784 149.14 49.315 148.15 49.315V46.895C149.543 46.895 151.23 46.7667 153.21 46.51C155.227 46.2167 157.262 45.7767 159.315 45.19C161.368 44.5667 163.165 43.7784 164.705 42.825ZM175.334 51.79H185.784V90.29H175.334V51.79ZM223.908 51.79V61.47H217.693V90.29H207.243V61.47H200.753V51.79H223.908ZM242.31 51.79H252.87V90.29H242.31V75.715H236.975V90.29H226.36V51.79H236.975V66.365H242.31V51.79ZM257.028 51.79H267.478V90.29H257.028V51.79ZM291.878 51.79V61.305H282.088V67.08C283.078 66.75 284.068 66.475 285.058 66.255C286.085 66.035 287.075 65.8884 288.028 65.815C289.018 65.7417 289.935 65.76 290.778 65.87V75.11L290.173 75.44C289.476 75.22 288.688 75.0734 287.808 75C286.965 74.9267 286.066 74.945 285.113 75.055C284.16 75.165 283.151 75.385 282.088 75.715V80.775H291.878V90.29H271.638V51.79H291.878ZM275.928 93.15H286.378V96.23H275.928V93.15ZM279.228 42.66H284.178C284.948 43.98 285.938 45.0434 287.148 45.85C288.358 46.6567 289.935 47.06 291.878 47.06V49.48C290.008 49.48 288.156 49.2234 286.323 48.71C284.526 48.1967 283.096 47.28 282.033 45.96H281.373C280.31 47.28 278.861 48.1967 277.028 48.71C275.231 49.2234 273.398 49.48 271.528 49.48V47.06C273.471 47.06 275.066 46.6567 276.313 45.85C277.56 45.0067 278.531 43.9434 279.228 42.66ZM322.225 76.21C322.225 78.8867 321.821 81.1784 321.015 83.085C320.245 84.955 319.181 86.4584 317.825 87.595C316.505 88.7317 315.038 89.575 313.425 90.125C311.811 90.6384 310.18 90.895 308.53 90.895C306.916 90.895 305.303 90.6384 303.69 90.125C302.076 89.575 300.61 88.7317 299.29 87.595C297.97 86.4584 296.906 84.955 296.1 83.085C295.33 81.1784 294.945 78.8867 294.945 76.21V51.79H305.56V74.615C305.56 75.605 305.615 76.54 305.725 77.42C305.871 78.2634 306.146 78.9417 306.55 79.455C306.99 79.9684 307.65 80.225 308.53 80.225C309.446 80.225 310.106 79.9684 310.51 79.455C310.95 78.9417 311.243 78.2634 311.39 77.42C311.536 76.54 311.61 75.605 311.61 74.615V51.79H322.225V76.21Z" fill="white"/>
<path d="M96.19 59.765L94.6212 58.8826L94.617 58.8901L94.6128 58.8976L96.19 59.765ZM102.735 53.275L101.921 51.6693L101.913 51.6738L102.735 53.275ZM116.65 51.68L116.245 53.4339L116.65 51.68ZM120.28 52.89L119.499 54.5118L119.511 54.5173L119.522 54.5227L120.28 52.89ZM122.48 54.32H124.28V53.6163L123.803 53.0991L122.48 54.32ZM122.48 64.935V66.735H124.28V64.935H122.48ZM121.27 64.935L119.625 65.6661L120.1 66.735H121.27V64.935ZM119.62 63.01L118.487 64.4091L118.503 64.4219L118.519 64.4344L119.62 63.01ZM116.87 61.47L116.182 63.1333L116.207 63.1435L116.232 63.153L116.87 61.47ZM108.62 61.91L107.746 60.3366H107.746L108.62 61.91ZM105.595 65.265L103.962 64.5082L103.954 64.5248L103.947 64.5415L105.595 65.265ZM105.485 76.815L103.798 77.4428L105.485 76.815ZM108.125 80.39L107.105 81.8733L107.116 81.8806L107.127 81.8877L108.125 80.39ZM112.525 81.6L113.798 80.3272L113.271 79.8H112.525V81.6ZM112.635 81.71L111.362 82.9828L111.663 83.2833L112.066 83.4177L112.635 81.71ZM113.02 81.6L114.1 83.04L114.82 82.5V81.6H113.02ZM113.02 75.605H114.82V73.805H113.02V75.605ZM107.63 75.605H105.83V77.405H107.63V75.605ZM107.63 66.53V64.73H105.83V66.53H107.63ZM122.48 66.53H124.28V64.73H122.48V66.53ZM122.48 86.385L123.753 87.6578L124.28 87.1306V86.385H122.48ZM117.035 89.85L117.623 91.5514L117.632 91.5483L117.64 91.5452L117.035 89.85ZM104.275 89.74L103.596 91.407L103.609 91.4124L103.623 91.4176L104.275 89.74ZM98.94 86.11L97.6527 87.3681L98.94 86.11ZM95.145 79.95L93.4556 80.5712L93.4596 80.582L93.4637 80.5929L95.145 79.95ZM93.77 71.04H95.57C95.57 66.6532 96.3441 63.22 97.7672 60.6325L96.19 59.765L94.6128 58.8976C92.8093 62.1767 91.97 66.2602 91.97 71.04H93.77ZM96.19 59.765L97.7588 60.6475C99.2544 57.9887 101.19 56.0919 103.557 54.8763L102.735 53.275L101.913 51.6738C98.8533 53.2449 96.4256 55.6747 94.6212 58.8826L96.19 59.765ZM102.735 53.275L103.549 54.8807C106.029 53.624 108.772 52.985 111.81 52.985V51.185V49.385C108.248 49.385 104.941 50.1394 101.921 51.6694L102.735 53.275ZM111.81 51.185V52.985C113.5 52.985 114.974 53.1405 116.245 53.4339L116.65 51.68L117.055 49.9261C115.466 49.5596 113.714 49.385 111.81 49.385V51.185ZM116.65 51.68L116.245 53.4339C117.586 53.7433 118.662 54.1086 119.499 54.5118L120.28 52.89L121.061 51.2682C119.918 50.7182 118.574 50.2768 117.055 49.9261L116.65 51.68ZM120.28 52.89L119.522 54.5227C120.47 54.963 120.954 55.3204 121.157 55.5409L122.48 54.32L123.803 53.0991C123.126 52.3663 122.143 51.7704 121.038 51.2574L120.28 52.89ZM122.48 54.32H120.68V64.935H122.48H124.28V54.32H122.48ZM122.48 64.935V63.135H121.27V64.935V66.735H122.48V64.935ZM121.27 64.935L122.915 64.204C122.461 63.1823 121.672 62.3208 120.721 61.5857L119.62 63.01L118.519 64.4344C119.182 64.946 119.493 65.3678 119.625 65.6661L121.27 64.935ZM119.62 63.01L120.753 61.611C119.814 60.8511 118.725 60.2483 117.508 59.787L116.87 61.47L116.232 63.153C117.142 63.4984 117.886 63.9223 118.487 64.4091L119.62 63.01ZM116.87 61.47L117.558 59.8068C116.266 59.2719 114.894 59.01 113.46 59.01V60.81V62.61C114.446 62.61 115.348 62.7882 116.182 63.1333L116.87 61.47ZM113.46 60.81V59.01C111.326 59.01 109.395 59.4206 107.746 60.3366L108.62 61.91L109.494 63.4835C110.485 62.9328 111.78 62.61 113.46 62.61V60.81ZM108.62 61.91L107.746 60.3366C106.06 61.273 104.802 62.6946 103.962 64.5082L105.595 65.265L107.228 66.0219C107.781 64.8288 108.54 64.0137 109.494 63.4835L108.62 61.91ZM105.595 65.265L103.947 64.5415C103.152 66.3516 102.805 68.5661 102.805 71.095H104.605H106.405C106.405 68.8574 106.718 67.1851 107.243 65.9886L105.595 65.265ZM104.605 71.095H102.805C102.805 73.4795 103.116 75.6112 103.798 77.4428L105.485 76.815L107.172 76.1873C106.68 74.8656 106.405 73.1839 106.405 71.095H104.605ZM105.485 76.815L103.798 77.4428C104.49 79.3019 105.575 80.821 107.105 81.8733L108.125 80.39L109.145 78.9068C108.329 78.3458 107.654 77.4815 107.172 76.1873L105.485 76.815ZM108.125 80.39L107.127 81.8877C108.683 82.9257 110.513 83.4 112.525 83.4V81.6V79.8C111.09 79.8 109.987 79.4678 109.123 78.8923L108.125 80.39ZM112.525 81.6C111.252 82.8728 111.252 82.8728 111.252 82.8728C111.252 82.8728 111.252 82.8728 111.252 82.8728H111.252C111.252 82.8728 111.252 82.8728 111.252 82.8728C111.252 82.8728 111.252 82.8728 111.252 82.8728C111.252 82.8729 111.252 82.8728 111.252 82.8729C111.252 82.8729 111.252 82.8729 111.252 82.8729C111.252 82.8729 111.252 82.8729 111.252 82.8729C111.252 82.8729 111.252 82.8729 111.252 82.8729C111.252 82.8729 111.252 82.8729 111.252 82.8729C111.252 82.8729 111.252 82.8729 111.252 82.8729C111.252 82.873 111.252 82.873 111.252 82.8731C111.253 82.8733 111.252 82.873 111.253 82.8733C111.253 82.8735 111.253 82.8735 111.253 82.8738C111.254 82.8749 111.253 82.8734 111.254 82.8745C111.254 82.8746 111.254 82.8746 111.254 82.8746C111.254 82.8746 111.254 82.8746 111.254 82.8747C111.254 82.8747 111.254 82.8747 111.254 82.8747C111.254 82.8747 111.254 82.8748 111.254 82.8748C111.254 82.875 111.254 82.8747 111.254 82.875C111.255 82.8752 111.255 82.8753 111.255 82.8755C111.255 82.8755 111.255 82.8756 111.255 82.8756C111.255 82.8756 111.255 82.8756 111.255 82.8757C111.255 82.8757 111.255 82.8757 111.255 82.8757C111.255 82.8757 111.255 82.8758 111.255 82.8758C111.255 82.8759 111.255 82.876 111.255 82.8761C111.256 82.8763 111.256 82.8764 111.256 82.8767C111.26 82.881 111.255 82.8751 111.259 82.8797C111.259 82.8797 111.259 82.8798 111.259 82.8798C111.259 82.8798 111.259 82.8799 111.259 82.8799C111.259 82.88 111.259 82.88 111.26 82.8801C111.26 82.8804 111.26 82.8803 111.26 82.8806C111.26 82.8806 111.26 82.8807 111.26 82.8807C111.26 82.8807 111.26 82.8808 111.26 82.8808C111.26 82.8809 111.26 82.8809 111.26 82.8809C111.26 82.881 111.26 82.881 111.26 82.8811C111.261 82.8817 111.26 82.8809 111.261 82.8815C111.261 82.8816 111.261 82.8817 111.261 82.8818C111.261 82.8818 111.261 82.8819 111.261 82.8819C111.261 82.8819 111.261 82.882 111.261 82.882C111.262 82.8821 111.262 82.8822 111.262 82.8823C111.262 82.8825 111.262 82.8823 111.262 82.8825C111.262 82.8831 111.262 82.8825 111.262 82.883C111.262 82.8831 111.263 82.8832 111.263 82.8833C111.263 82.8833 111.263 82.8836 111.263 82.8836C111.267 82.8874 111.264 82.8842 111.268 82.8883C111.274 82.8947 111.267 82.8872 111.273 82.8939C111.275 82.8952 111.275 82.8956 111.276 82.897C111.279 82.8992 111.277 82.898 111.28 82.9003C111.28 82.9005 111.28 82.9006 111.28 82.9008C111.28 82.9008 111.28 82.9009 111.28 82.901C111.28 82.9011 111.281 82.9011 111.281 82.9012C111.281 82.9014 111.281 82.9019 111.281 82.9021C111.283 82.9033 111.282 82.9027 111.283 82.9039C111.284 82.9047 111.286 82.9068 111.287 82.9076C111.289 82.9094 111.289 82.9098 111.291 82.9116C111.292 82.9125 111.292 82.9128 111.293 82.9137C111.295 82.9156 111.293 82.9139 111.295 82.9158C111.31 82.9311 111.298 82.9183 111.314 82.9347C111.34 82.9603 111.31 82.9303 111.336 82.9571C111.338 82.9591 111.337 82.9581 111.339 82.9601C111.34 82.9602 111.34 82.9603 111.34 82.9605C111.34 82.9606 111.34 82.9607 111.34 82.9608C111.34 82.961 111.34 82.9611 111.341 82.9612C111.341 82.9614 111.341 82.9615 111.341 82.9616C111.341 82.9617 111.342 82.9631 111.343 82.9632C111.344 82.9646 111.343 82.9633 111.344 82.9647C111.344 82.9649 111.344 82.965 111.345 82.9651C111.345 82.9653 111.345 82.9654 111.345 82.9655C111.345 82.9657 111.345 82.9658 111.345 82.9659C111.345 82.966 111.346 82.9662 111.346 82.9663C111.346 82.967 111.346 82.9664 111.346 82.9671C111.347 82.968 111.346 82.967 111.347 82.9679C111.347 82.9679 111.348 82.9687 111.348 82.9687C111.348 82.9688 111.348 82.969 111.348 82.9691C111.349 82.9692 111.349 82.9694 111.349 82.9695C111.353 82.9739 111.351 82.9716 111.355 82.9761C111.355 82.9761 111.359 82.9794 111.359 82.9794C111.361 82.9817 111.358 82.9788 111.36 82.9811C111.361 82.9815 111.361 82.9816 111.361 82.982C111.361 82.9821 111.362 82.9823 111.362 82.9824C111.362 82.9825 111.362 82.9827 111.362 82.9828L112.635 81.71L113.908 80.4372C113.879 80.4087 113.835 80.3649 113.825 80.3547C113.818 80.3476 113.807 80.3367 113.805 80.3341C113.803 80.3328 113.8 80.3291 113.8 80.329C113.799 80.3286 113.798 80.3277 113.798 80.3277C113.798 80.3275 113.798 80.3274 113.798 80.3274C113.798 80.3273 113.798 80.3273 113.798 80.3273C113.798 80.3273 113.798 80.3273 113.798 80.3273C113.798 80.3273 113.798 80.3273 113.798 80.3273C113.798 80.3273 113.798 80.3273 113.798 80.3273C113.798 80.3273 113.798 80.3273 113.798 80.3273C113.798 80.3273 113.798 80.3272 113.798 80.3272C113.798 80.3272 113.798 80.3272 112.525 81.6ZM112.635 81.71L112.066 83.4177C113.003 83.7302 113.763 83.2926 114.1 83.04L113.02 81.6L111.94 80.16C111.983 80.1275 112.487 79.7632 113.204 80.0024L112.635 81.71ZM113.02 81.6H114.82V75.605H113.02H111.22V81.6H113.02ZM113.02 75.605V73.805H107.63V75.605V77.405H113.02V75.605ZM107.63 75.605H109.43V66.53H107.63H105.83V75.605H107.63ZM107.63 66.53V68.33H122.48V66.53V64.73H107.63V66.53ZM122.48 66.53H120.68V86.385H122.48H124.28V66.53H122.48ZM122.48 86.385L121.207 85.1122C119.815 86.5049 118.226 87.5133 116.43 88.1549L117.035 89.85L117.64 91.5452C119.951 90.7201 121.992 89.4185 123.753 87.6578L122.48 86.385ZM117.035 89.85L116.447 88.1487C114.64 88.7729 112.642 89.095 110.435 89.095V90.895V92.695C112.995 92.695 115.396 92.3205 117.623 91.5514L117.035 89.85ZM110.435 90.895V89.095C108.531 89.095 106.699 88.7515 104.927 88.0624L104.275 89.74L103.623 91.4176C105.811 92.2686 108.085 92.695 110.435 92.695V90.895ZM104.275 89.74L104.954 88.0731C103.215 87.3646 101.641 86.2986 100.227 84.852L98.94 86.11L97.6527 87.3681C99.3922 89.1481 101.375 90.5021 103.596 91.407L104.275 89.74ZM98.94 86.11L100.227 84.852C98.8512 83.4438 97.7076 81.6122 96.8263 79.3072L95.145 79.95L93.4637 80.5929C94.4891 83.2746 95.8754 85.5496 97.6527 87.3681L98.94 86.11ZM95.145 79.95L96.8344 79.3289C96.009 77.0838 95.57 74.3346 95.57 71.04H93.77H91.97C91.97 74.6388 92.4476 77.8296 93.4556 80.5712L95.145 79.95ZM126.941 51.79V49.99H125.141V51.79H126.941ZM137.391 51.79H139.191V49.99H137.391V51.79ZM137.391 90.29V92.09H139.191V90.29H137.391ZM126.941 90.29H125.141V92.09H126.941V90.29ZM126.941 51.79V53.59H137.391V51.79V49.99H126.941V51.79ZM137.391 51.79H135.591V90.29H137.391H139.191V51.79H137.391ZM137.391 90.29V88.49H126.941V90.29V92.09H137.391V90.29ZM126.941 90.29H128.741V51.79H126.941H125.141V90.29H126.941ZM156.4 51.13V49.33L155.566 52.7251L156.4 51.13ZM160.14 51.35L159.866 53.1291L159.904 53.1349L159.941 53.139L160.14 51.35ZM167.18 50.635L168.763 51.4923L167.18 50.635ZM167.895 47.28V45.48H166.095V47.28H167.895ZM171.415 47.28H173.215V45.48H171.415V47.28ZM169.875 52.285L168.44 51.1988L168.43 51.2113L168.421 51.224L169.875 52.285ZM165.09 54.32L165.053 56.1197L165.072 56.12H165.09V54.32ZM162.395 54.265L161.561 55.8601L161.936 56.056L162.358 56.0647L162.395 54.265ZM164.705 53.935V52.135H162.905V53.935H164.705ZM166.52 53.935H168.32V52.135H166.52V53.935ZM166.52 54.925V56.725H168.32V54.925H166.52ZM164.705 54.925H162.905V56.725H164.705V54.925ZM142.485 59.655L140.883 58.8341L142.485 59.655ZM148.425 53.22L149.295 54.7957L149.304 54.7908L149.313 54.7857L148.425 53.22ZM164.265 53.22L163.367 54.78L163.381 54.788L163.395 54.7957L164.265 53.22ZM170.205 59.655L171.807 58.8341L170.205 59.655ZM170.205 82.425L168.603 81.6041L170.205 82.425ZM164.265 88.915L165.145 90.4852L165.153 90.4807L164.265 88.915ZM148.425 88.915L147.537 90.4807L147.546 90.4858L147.555 90.4907L148.425 88.915ZM142.485 82.425L144.087 81.6041L142.485 82.425ZM151.78 76.54L150.064 77.0841L150.068 77.0964L151.78 76.54ZM153.705 79.895L152.462 81.1971L153.705 79.895ZM159.04 79.895L157.797 78.593L159.04 79.895ZM160.965 76.54L159.262 75.9584L159.257 75.971L159.253 75.9837L160.965 76.54ZM160.965 65.485L159.253 66.0414L159.259 66.0606L159.266 66.0797L160.965 65.485ZM159.04 62.185L157.797 63.4871L157.813 63.5022L157.829 63.5169L159.04 62.185ZM153.705 62.185L154.916 63.5169L154.932 63.5022L154.948 63.4871L153.705 62.185ZM151.78 65.54L153.492 66.0964L153.496 66.0841L151.78 65.54ZM164.705 42.825L165.095 41.0679L164.38 40.909L163.758 41.2946L164.705 42.825ZM165.2 42.935H167V41.4911L165.59 41.1779L165.2 42.935ZM165.2 46.345L166.07 47.9211L167 47.4077V46.345H165.2ZM161.295 47.83L161.721 49.5788L161.736 49.5752L161.751 49.5713L161.295 47.83ZM156.565 48.71L156.803 50.4942L156.565 48.71ZM151.835 49.205L151.925 51.0028L151.946 51.0018L151.966 51.0002L151.835 49.205ZM148.15 49.315H146.35V51.115H148.15V49.315ZM148.15 46.895V45.095H146.35V46.895H148.15ZM153.21 46.51L153.441 48.2951L153.455 48.2933L153.469 48.2913L153.21 46.51ZM159.315 45.19L159.809 46.9208L159.824 46.9167L159.838 46.9124L159.315 45.19ZM156.4 51.13V52.93C157.895 52.93 159.04 53.0021 159.866 53.1291L160.14 51.35L160.414 49.571C159.333 49.4047 157.984 49.33 156.4 49.33V51.13ZM160.14 51.35L159.941 53.139C160.894 53.2449 161.677 53.3654 162.299 53.4964L162.67 51.735L163.041 49.9736C162.27 49.8113 161.366 49.6751 160.339 49.561L160.14 51.35ZM162.67 51.735L162.299 53.4964C163.108 53.6668 163.911 53.755 164.705 53.755V51.955V50.155C164.179 50.155 163.625 50.0966 163.041 49.9736L162.67 51.735ZM164.705 51.955V53.755C166.402 53.755 167.911 53.0646 168.763 51.4923L167.18 50.635L165.597 49.7777C165.496 49.9655 165.355 50.155 164.705 50.155V51.955ZM167.18 50.635L168.763 51.4923C169.424 50.2721 169.695 48.8343 169.695 47.28H167.895H166.095C166.095 48.4391 165.89 49.2379 165.597 49.7777L167.18 50.635ZM167.895 47.28V49.08H171.415V47.28V45.48H167.895V47.28ZM171.415 47.28H169.615C169.615 48.9347 169.192 50.2042 168.44 51.1988L169.875 52.285L171.31 53.3712C172.611 51.6525 173.215 49.5854 173.215 47.28H171.415ZM169.875 52.285L168.421 51.224C167.871 51.9783 166.911 52.52 165.09 52.52V54.32V56.12C167.669 56.12 169.899 55.3052 171.329 53.3461L169.875 52.285ZM165.09 54.32L165.127 52.5204L162.432 52.4654L162.395 54.265L162.358 56.0647L165.053 56.1197L165.09 54.32ZM162.395 54.265L163.229 52.67L157.234 49.535L156.4 51.13L155.566 52.7251L161.561 55.8601L162.395 54.265ZM164.705 53.935V55.735H166.52V53.935V52.135H164.705V53.935ZM166.52 53.935H164.72V54.925H166.52H168.32V53.935H166.52ZM166.52 54.925V53.125H164.705V54.925V56.725H166.52V54.925ZM164.705 54.925H166.505V53.935H164.705H162.905V54.925H164.705ZM140.23 71.04H142.03C142.03 66.5583 142.756 63.0724 144.087 60.476L142.485 59.655L140.883 58.8341C139.207 62.1044 138.43 66.2084 138.43 71.04H140.23ZM142.485 59.655L144.087 60.476C145.456 57.8046 147.204 55.9507 149.295 54.7957L148.425 53.22L147.555 51.6443C144.733 53.2027 142.521 55.6389 140.883 58.8341L142.485 59.655ZM148.425 53.22L149.313 54.7857C151.499 53.5459 153.833 52.93 156.345 52.93V51.13V49.33C153.21 49.33 150.264 50.1075 147.537 51.6543L148.425 53.22ZM156.345 51.13V52.93C158.898 52.93 161.227 53.5479 163.367 54.78L164.265 53.22L165.163 51.6601C162.463 50.1056 159.512 49.33 156.345 49.33V51.13ZM164.265 53.22L163.395 54.7957C165.486 55.9507 167.234 57.8046 168.603 60.476L170.205 59.655L171.807 58.8341C170.169 55.6389 167.957 53.2027 165.135 51.6443L164.265 53.22ZM170.205 59.655L168.603 60.476C169.934 63.0724 170.66 66.5583 170.66 71.04H172.46H174.26C174.26 66.2084 173.483 62.1044 171.807 58.8341L170.205 59.655ZM172.46 71.04H170.66C170.66 75.5218 169.934 79.0077 168.603 81.6041L170.205 82.425L171.807 83.246C173.483 79.9757 174.26 75.8716 174.26 71.04H172.46ZM170.205 82.425L168.603 81.6041C167.233 84.2782 165.48 86.1567 163.377 87.3493L164.265 88.915L165.153 90.4807C167.963 88.8867 170.171 86.4385 171.807 83.246L170.205 82.425ZM164.265 88.915L163.385 87.3449C161.242 88.5461 158.907 89.15 156.345 89.15V90.95V92.75C159.503 92.75 162.448 91.9973 165.145 90.4851L164.265 88.915ZM156.345 90.95V89.15C153.824 89.15 151.484 88.548 149.295 87.3393L148.425 88.915L147.555 90.4907C150.28 91.9955 153.219 92.75 156.345 92.75V90.95ZM148.425 88.915L149.313 87.3493C147.21 86.1567 145.457 84.2782 144.087 81.6041L142.485 82.425L140.883 83.246C142.519 86.4385 144.726 88.8867 147.537 90.4807L148.425 88.915ZM142.485 82.425L144.087 81.6041C142.756 79.0077 142.03 75.5218 142.03 71.04H140.23H138.43C138.43 75.8716 139.207 79.9757 140.883 83.246L142.485 82.425ZM151.065 71.04H149.265C149.265 73.3245 149.515 75.3531 150.064 77.0841L151.78 76.54L153.496 75.996C153.091 74.7204 152.865 73.0823 152.865 71.04H151.065ZM151.78 76.54L150.068 77.0964C150.603 78.7436 151.373 80.1575 152.462 81.1971L153.705 79.895L154.948 78.593C154.424 78.0926 153.91 77.2698 153.492 75.9837L151.78 76.54ZM153.705 79.895L152.462 81.1971C153.543 82.2286 154.851 82.85 156.345 82.85V81.05V79.25C155.932 79.25 155.481 79.1015 154.948 78.593L153.705 79.895ZM156.345 81.05V82.85C157.858 82.85 159.187 82.2429 160.283 81.1971L159.04 79.895L157.797 78.593C157.279 79.0872 156.812 79.25 156.345 79.25V81.05ZM159.04 79.895L160.283 81.1971C161.372 80.1575 162.141 78.7436 162.677 77.0964L160.965 76.54L159.253 75.9837C158.835 77.2698 158.321 78.0926 157.797 78.593L159.04 79.895ZM160.965 76.54L162.668 77.1217C163.264 75.377 163.535 73.3347 163.535 71.04H161.735H159.935C159.935 73.0721 159.692 74.6964 159.262 75.9584L160.965 76.54ZM161.735 71.04H163.535C163.535 68.6821 163.267 66.6122 162.664 64.8904L160.965 65.485L159.266 66.0797C159.69 67.2912 159.935 68.9247 159.935 71.04H161.735ZM160.965 65.485L162.677 64.9287C162.141 63.281 161.365 61.8665 160.251 60.8531L159.04 62.185L157.829 63.5169C158.328 63.9702 158.835 64.7557 159.253 66.0414L160.965 65.485ZM159.04 62.185L160.283 60.883C159.187 59.8372 157.858 59.23 156.345 59.23V61.03V62.83C156.812 62.83 157.279 62.9929 157.797 63.4871L159.04 62.185ZM156.345 61.03V59.23C154.851 59.23 153.543 59.8515 152.462 60.883L153.705 62.185L154.948 63.4871C155.481 62.9786 155.932 62.83 156.345 62.83V61.03ZM153.705 62.185L152.494 60.8531C151.371 61.8746 150.597 63.317 150.064 64.996L151.78 65.54L153.496 66.0841C153.917 64.7564 154.426 63.9622 154.916 63.5169L153.705 62.185ZM151.78 65.54L150.068 64.9837C149.514 66.6887 149.265 68.7247 149.265 71.04H151.065H152.865C152.865 68.9554 153.093 67.3247 153.492 66.0964L151.78 65.54ZM164.705 42.825L164.314 44.5822L164.809 44.6922L165.2 42.935L165.59 41.1779L165.095 41.0679L164.705 42.825ZM165.2 42.935H163.4V46.345H165.2H167V42.935H165.2ZM165.2 46.345L164.33 44.769C163.431 45.2654 162.277 45.7122 160.839 46.0888L161.295 47.83L161.751 49.5713C163.393 49.1412 164.843 48.598 166.07 47.9211L165.2 46.345ZM161.295 47.83L160.868 46.0813C159.432 46.4317 157.918 46.7137 156.327 46.9258L156.565 48.71L156.803 50.4942C158.512 50.2664 160.151 49.9617 161.721 49.5788L161.295 47.83ZM156.565 48.71L156.327 46.9258C154.709 47.1416 153.168 47.3027 151.704 47.4098L151.835 49.205L151.966 51.0002C153.509 50.8874 155.121 50.7185 156.803 50.4942L156.565 48.71ZM151.835 49.205L151.745 47.4073C150.296 47.4798 149.099 47.515 148.15 47.515V49.315V51.115C149.18 51.115 150.441 51.077 151.925 51.0028L151.835 49.205ZM148.15 49.315H149.95V46.895H148.15H146.35V49.315H148.15ZM148.15 46.895V48.695C149.646 48.695 151.414 48.5578 153.441 48.2951L153.21 46.51L152.979 44.725C151.045 44.9756 149.441 45.095 148.15 45.095V46.895ZM153.21 46.51L153.469 48.2913C155.569 47.9859 157.683 47.5285 159.809 46.9208L159.315 45.19L158.82 43.4593C156.841 44.0249 154.884 44.4475 152.951 44.7288L153.21 46.51ZM159.315 45.19L159.838 46.9124C162.014 46.2519 163.958 45.4044 165.652 44.3555L164.705 42.825L163.758 41.2946C162.372 42.1523 160.723 42.8815 158.792 43.4677L159.315 45.19ZM175.334 51.79V49.99H173.534V51.79H175.334ZM185.784 51.79H187.584V49.99H185.784V51.79ZM185.784 90.29V92.09H187.584V90.29H185.784ZM175.334 90.29H173.534V92.09H175.334V90.29ZM175.334 51.79V53.59H185.784V51.79V49.99H175.334V51.79ZM185.784 51.79H183.984V90.29H185.784H187.584V51.79H185.784ZM185.784 90.29V88.49H175.334V90.29V92.09H185.784V90.29ZM175.334 90.29H177.134V51.79H175.334H173.534V90.29H175.334ZM223.908 51.79H225.708V49.99H223.908V51.79ZM223.908 61.47V63.27H225.708V61.47H223.908ZM217.693 61.47V59.67H215.893V61.47H217.693ZM217.693 90.29V92.09H219.493V90.29H217.693ZM207.243 90.29H205.443V92.09H207.243V90.29ZM207.243 61.47H209.043V59.67H207.243V61.47ZM200.753 61.47H198.953V63.27H200.753V61.47ZM200.753 51.79V49.99H198.953V51.79H200.753ZM223.908 51.79H222.108V61.47H223.908H225.708V51.79H223.908ZM223.908 61.47V59.67H217.693V61.47V63.27H223.908V61.47ZM217.693 61.47H215.893V90.29H217.693H219.493V61.47H217.693ZM217.693 90.29V88.49H207.243V90.29V92.09H217.693V90.29ZM207.243 90.29H209.043V61.47H207.243H205.443V90.29H207.243ZM207.243 61.47V59.67H200.753V61.47V63.27H207.243V61.47ZM200.753 61.47H202.553V51.79H200.753H198.953V61.47H200.753ZM200.753 51.79V53.59H223.908V51.79V49.99H200.753V51.79ZM242.31 51.79V49.99H240.51V51.79H242.31ZM252.87 51.79H254.67V49.99H252.87V51.79ZM252.87 90.29V92.09H254.67V90.29H252.87ZM242.31 90.29H240.51V92.09H242.31V90.29ZM242.31 75.715H244.11V73.915H242.31V75.715ZM236.975 75.715V73.915H235.175V75.715H236.975ZM236.975 90.29V92.09H238.775V90.29H236.975ZM226.36 90.29H224.56V92.09H226.36V90.29ZM226.36 51.79V49.99H224.56V51.79H226.36ZM236.975 51.79H238.775V49.99H236.975V51.79ZM236.975 66.365H235.175V68.165H236.975V66.365ZM242.31 66.365V68.165H244.11V66.365H242.31ZM242.31 51.79V53.59H252.87V51.79V49.99H242.31V51.79ZM252.87 51.79H251.07V90.29H252.87H254.67V51.79H252.87ZM252.87 90.29V88.49H242.31V90.29V92.09H252.87V90.29ZM242.31 90.29H244.11V75.715H242.31H240.51V90.29H242.31ZM242.31 75.715V73.915H236.975V75.715V77.515H242.31V75.715ZM236.975 75.715H235.175V90.29H236.975H238.775V75.715H236.975ZM236.975 90.29V88.49H226.36V90.29V92.09H236.975V90.29ZM226.36 90.29H228.16V51.79H226.36H224.56V90.29H226.36ZM226.36 51.79V53.59H236.975V51.79V49.99H226.36V51.79ZM236.975 51.79H235.175V66.365H236.975H238.775V51.79H236.975ZM236.975 66.365V68.165H242.31V66.365V64.565H236.975V66.365ZM242.31 66.365H244.11V51.79H242.31H240.51V66.365H242.31ZM257.028 51.79V49.99H255.228V51.79H257.028ZM267.478 51.79H269.278V49.99H267.478V51.79ZM267.478 90.29V92.09H269.278V90.29H267.478ZM257.028 90.29H255.228V92.09H257.028V90.29ZM257.028 51.79V53.59H267.478V51.79V49.99H257.028V51.79ZM267.478 51.79H265.678V90.29H267.478H269.278V51.79H267.478ZM267.478 90.29V88.49H257.028V90.29V92.09H267.478V90.29ZM257.028 90.29H258.828V51.79H257.028H255.228V90.29H257.028ZM291.878 51.79H293.678V49.99H291.878V51.79ZM291.878 61.305V63.105H293.678V61.305H291.878ZM282.088 61.305V59.505H280.288V61.305H282.088ZM282.088 67.08H280.288V69.5774L282.657 68.7877L282.088 67.08ZM285.058 66.255L284.681 64.4949L284.667 64.4979L285.058 66.255ZM288.028 65.815L287.895 64.0199L287.89 64.0203L288.028 65.815ZM290.778 65.87H292.578V64.2896L291.011 64.0852L290.778 65.87ZM290.778 75.11L291.64 76.6902L292.578 76.1786V75.11H290.778ZM290.173 75.44L289.631 77.1565L290.362 77.3873L291.035 77.0202L290.173 75.44ZM287.808 75L287.652 76.7933L287.658 76.7938L287.808 75ZM285.113 75.055L285.319 76.8432L285.113 75.055ZM282.088 75.715L281.554 73.9959L280.288 74.389V75.715H282.088ZM282.088 80.775H280.288V82.575H282.088V80.775ZM291.878 80.775H293.678V78.975H291.878V80.775ZM291.878 90.29V92.09H293.678V90.29H291.878ZM271.638 90.29H269.838V92.09H271.638V90.29ZM271.638 51.79V49.99H269.838V51.79H271.638ZM275.928 93.15V91.35H274.128V93.15H275.928ZM286.378 93.15H288.178V91.35H286.378V93.15ZM286.378 96.23V98.03H288.178V96.23H286.378ZM275.928 96.23H274.128V98.03H275.928V96.23ZM279.228 42.66V40.86H278.157L277.646 41.8013L279.228 42.66ZM284.178 42.66L285.733 41.7531L285.212 40.86H284.178V42.66ZM287.148 45.85L288.146 44.3523L287.148 45.85ZM291.878 47.06H293.678V45.26H291.878V47.06ZM291.878 49.48V51.28H293.678V49.48H291.878ZM286.323 48.71L285.828 50.4408L285.838 50.4434L286.323 48.71ZM282.033 45.96L283.435 44.8308L282.894 44.16H282.033V45.96ZM281.373 45.96V44.16H280.511L279.971 44.8308L281.373 45.96ZM277.028 48.71L276.543 46.9767L276.533 46.9793L277.028 48.71ZM271.528 49.48H269.728V51.28H271.528V49.48ZM271.528 47.06V45.26H269.728V47.06H271.528ZM276.313 45.85L277.291 47.3613L277.306 47.3513L277.321 47.3409L276.313 45.85ZM291.878 51.79H290.078V61.305H291.878H293.678V51.79H291.878ZM291.878 61.305V59.505H282.088V61.305V63.105H291.878V61.305ZM282.088 61.305H280.288V67.08H282.088H283.888V61.305H282.088ZM282.088 67.08L282.657 68.7877C283.59 68.4767 284.52 68.2184 285.448 68.0122L285.058 66.255L284.667 64.4979C283.615 64.7317 282.566 65.0234 281.519 65.3724L282.088 67.08ZM285.058 66.255L285.435 68.0151C286.39 67.8104 287.3 67.6763 288.166 67.6097L288.028 65.815L287.89 64.0203C286.849 64.1004 285.779 64.2597 284.681 64.495L285.058 66.255ZM288.028 65.815L288.161 67.6101C289.049 67.5444 289.841 67.5631 290.545 67.6549L290.778 65.87L291.011 64.0852C290.028 63.957 288.987 63.939 287.895 64.02L288.028 65.815ZM290.778 65.87H288.978V75.11H290.778H292.578V65.87H290.778ZM290.778 75.11L289.916 73.5298L289.311 73.8598L290.173 75.44L291.035 77.0202L291.64 76.6902L290.778 75.11ZM290.173 75.44L290.715 73.7236C289.867 73.456 288.944 73.2885 287.957 73.2063L287.808 75L287.658 76.7938C288.432 76.8583 289.085 76.9841 289.631 77.1565L290.173 75.44ZM287.808 75L287.964 73.2068C286.985 73.1217 285.964 73.1448 284.907 73.2669L285.113 75.055L285.319 76.8432C286.168 76.7452 286.944 76.7317 287.652 76.7933L287.808 75ZM285.113 75.055L284.907 73.2669C283.826 73.3915 282.708 73.6379 281.554 73.9959L282.088 75.715L282.621 77.4342C283.595 77.1321 284.493 76.9385 285.319 76.8432L285.113 75.055ZM282.088 75.715H280.288V80.775H282.088H283.888V75.715H282.088ZM282.088 80.775V82.575H291.878V80.775V78.975H282.088V80.775ZM291.878 80.775H290.078V90.29H291.878H293.678V80.775H291.878ZM291.878 90.29V88.49H271.638V90.29V92.09H291.878V90.29ZM271.638 90.29H273.438V51.79H271.638H269.838V90.29H271.638ZM271.638 51.79V53.59H291.878V51.79V49.99H271.638V51.79ZM275.928 93.15V94.95H286.378V93.15V91.35H275.928V93.15ZM286.378 93.15H284.578V96.23H286.378H288.178V93.15H286.378ZM286.378 96.23V94.43H275.928V96.23V98.03H286.378V96.23ZM275.928 96.23H277.728V93.15H275.928H274.128V96.23H275.928ZM279.228 42.66V44.46H284.178V42.66V40.86H279.228V42.66ZM284.178 42.66L282.623 43.567C283.524 45.1113 284.7 46.3813 286.149 47.3477L287.148 45.85L288.146 44.3523C287.176 43.7054 286.372 42.8487 285.733 41.7531L284.178 42.66ZM287.148 45.85L286.149 47.3477C287.739 48.4077 289.696 48.86 291.878 48.86V47.06V45.26C290.173 45.26 288.976 44.9057 288.146 44.3523L287.148 45.85ZM291.878 47.06H290.078V49.48H291.878H293.678V47.06H291.878ZM291.878 49.48V47.68C290.175 47.68 288.486 47.4466 286.808 46.9767L286.323 48.71L285.838 50.4434C287.826 51.0001 289.841 51.28 291.878 51.28V49.48ZM286.323 48.71L286.817 46.9793C285.34 46.5571 284.241 45.8319 283.435 44.8308L282.033 45.96L280.631 47.0892C281.951 48.7281 283.713 49.8363 285.828 50.4408L286.323 48.71ZM282.033 45.96V44.16H281.373V45.96V47.76H282.033V45.96ZM281.373 45.96L279.971 44.8308C279.171 45.8236 278.061 46.5514 276.543 46.9767L277.028 48.71L277.513 50.4434C279.661 49.842 281.448 48.7365 282.775 47.0892L281.373 45.96ZM277.028 48.71L276.533 46.9793C274.898 47.4466 273.231 47.68 271.528 47.68V49.48V51.28C273.565 51.28 275.565 51.0001 277.522 50.4408L277.028 48.71ZM271.528 49.48H273.328V47.06H271.528H269.728V49.48H271.528ZM271.528 47.06V48.86C273.713 48.86 275.675 48.4065 277.291 47.3613L276.313 45.85L275.335 44.3388C274.457 44.9069 273.23 45.26 271.528 45.26V47.06ZM276.313 45.85L277.321 47.3409C278.799 46.3411 279.971 45.0637 280.81 43.5188L279.228 42.66L277.646 41.8013C277.091 42.823 276.32 43.6723 275.304 44.3591L276.313 45.85ZM321.015 83.085L319.357 82.3837L319.353 82.3917L319.35 82.3997L321.015 83.085ZM317.825 87.595L316.669 86.2153L316.659 86.2231L316.65 86.2311L317.825 87.595ZM313.425 90.125L313.97 91.8403L313.988 91.8347L314.005 91.8288L313.425 90.125ZM303.69 90.125L303.109 91.8288L303.126 91.8347L303.144 91.8403L303.69 90.125ZM299.29 87.595L300.464 86.2311L299.29 87.595ZM296.1 83.085L294.43 83.7591L294.438 83.7786L294.447 83.798L296.1 83.085ZM294.945 51.79V49.99H293.145V51.79H294.945ZM305.56 51.79H307.36V49.99H305.56V51.79ZM305.725 77.42L303.938 77.6433L303.944 77.686L303.951 77.7285L305.725 77.42ZM306.55 79.455L305.134 80.5671L305.158 80.5973L305.183 80.6265L306.55 79.455ZM310.51 79.455L309.143 78.2836L309.118 78.3128L309.094 78.343L310.51 79.455ZM311.39 77.42L313.163 77.7285L313.165 77.716L311.39 77.42ZM311.61 51.79V49.99H309.81V51.79H311.61ZM322.225 51.79H324.025V49.99H322.225V51.79ZM322.225 76.21H320.425C320.425 78.7132 320.046 80.7536 319.357 82.3837L321.015 83.085L322.672 83.7864C323.596 81.6031 324.025 79.0602 324.025 76.21H322.225ZM321.015 83.085L319.35 82.3997C318.675 84.0392 317.772 85.2907 316.669 86.2153L317.825 87.595L318.981 88.9748C320.59 87.626 321.814 85.8709 322.679 83.7704L321.015 83.085ZM317.825 87.595L316.65 86.2311C315.5 87.2209 314.234 87.9472 312.844 88.4213L313.425 90.125L314.005 91.8288C315.841 91.2029 317.509 90.2425 318.999 88.959L317.825 87.595ZM313.425 90.125L312.879 88.4098C311.437 88.8684 309.99 89.095 308.53 89.095V90.895V92.695C310.37 92.695 312.185 92.4083 313.97 91.8403L313.425 90.125ZM308.53 90.895V89.095C307.11 89.095 305.681 88.8697 304.235 88.4098L303.69 90.125L303.144 91.8403C304.925 92.407 306.722 92.695 308.53 92.695V90.895ZM303.69 90.125L304.27 88.4213C302.88 87.9472 301.614 87.2209 300.464 86.2311L299.29 87.595L298.115 88.959C299.605 90.2425 301.273 91.2029 303.109 91.8288L303.69 90.125ZM299.29 87.595L300.464 86.2311C299.383 85.3001 298.469 84.0338 297.752 82.3721L296.1 83.085L294.447 83.798C295.343 85.8763 296.556 87.6167 298.115 88.959L299.29 87.595ZM296.1 83.085L297.769 82.411C297.107 80.7725 296.745 78.722 296.745 76.21H294.945H293.145C293.145 79.0514 293.552 81.5843 294.43 83.7591L296.1 83.085ZM294.945 76.21H296.745V51.79H294.945H293.145V76.21H294.945ZM294.945 51.79V53.59H305.56V51.79V49.99H294.945V51.79ZM305.56 51.79H303.76V74.615H305.56H307.36V51.79H305.56ZM305.56 74.615H303.76C303.76 75.6712 303.818 76.6813 303.938 77.6433L305.725 77.42L307.511 77.1968C307.411 76.3988 307.36 75.5389 307.36 74.615H305.56ZM305.725 77.42L303.951 77.7285C304.133 78.7769 304.498 79.7581 305.134 80.5671L306.55 79.455L307.965 78.343C307.794 78.1253 307.609 77.7498 307.498 77.1116L305.725 77.42ZM306.55 79.455L305.183 80.6265C306.061 81.6515 307.293 82.025 308.53 82.025V80.225V78.425C308.006 78.425 307.918 78.2852 307.916 78.2836L306.55 79.455ZM308.53 80.225V82.025C309.763 82.025 311.057 81.6713 311.925 80.5671L310.51 79.455L309.094 78.343C309.108 78.3249 309.116 78.3332 309.06 78.3549C308.989 78.3824 308.827 78.425 308.53 78.425V80.225ZM310.51 79.455L311.876 80.6265C312.576 79.8099 312.975 78.8071 313.163 77.7285L311.39 77.42L309.616 77.1116C309.51 77.7197 309.323 78.0735 309.143 78.2836L310.51 79.455ZM311.39 77.42L313.165 77.716C313.33 76.7282 313.41 75.6936 313.41 74.615H311.61H309.81C309.81 75.5165 309.743 76.3519 309.614 77.1241L311.39 77.42ZM311.61 74.615H313.41V51.79H311.61H309.81V74.615H311.61ZM311.61 51.79V53.59H322.225V51.79V49.99H311.61V51.79ZM322.225 51.79H320.425V76.21H322.225H324.025V51.79H322.225Z" fill="#752602" mask="url(#path-5-outside-1_5_538)"/>
<defs>
<linearGradient id="paint0_linear_5_538" x1="209.14" y1="2.08" x2="209.14" y2="132.36" gradientUnits="userSpaceOnUse">
<stop offset="0.25" stop-color="#D2943D"/>
<stop offset="1" stop-color="#A56D3C"/>
</linearGradient>
<linearGradient id="paint1_linear_5_538" x1="209.37" y1="13.55" x2="208.65" y2="119.18" gradientUnits="userSpaceOnUse">
<stop offset="0.25" stop-color="#F9D100"/>
<stop offset="1" stop-color="#E28E29"/>
</linearGradient>
<linearGradient id="paint2_linear_5_538" x1="21.91" y1="18.21" x2="399.21" y2="18.21" gradientUnits="userSpaceOnUse">
<stop offset="0.11" stop-color="#F2A927"/>
<stop offset="1" stop-color="#DF9A00"/>
</linearGradient>
</defs>
</svg>
