<svg width="120" height="120" viewBox="0 0 120 120" fill="none" xmlns="http://www.w3.org/2000/svg">
<mask id="mask0_431_194" style="mask-type:luminance" maskUnits="userSpaceOnUse" x="0" y="4" width="120" height="116">
<path d="M0 4.72314H120V119.923H0V4.72314Z" fill="white"/>
</mask>
<g mask="url(#mask0_431_194)">
<path d="M37.5 76.7253H35C33.62 76.7253 32.5 75.6501 32.5 74.3253C32.5 73.0005 33.62 71.9253 35 71.9253H37.5C38.88 71.9253 40 73.0005 40 74.3253C40 75.6501 38.88 76.7253 37.5 76.7253Z" fill="url(#paint0_linear_431_194)"/>
<path d="M24.895 76.7252H19.84C18.46 76.7252 17.34 75.65 17.34 74.3252C17.34 73.0004 18.46 71.9252 19.84 71.9252H24.895C26.275 71.9252 27.395 73.0004 27.395 74.3252C27.395 75.65 26.275 76.7252 24.895 76.7252ZM9.77 76.3604C9.545 76.3604 9.315 76.3316 9.085 76.2692C7.06 75.7172 5.195 74.6708 3.695 73.2356C2.715 72.3044 2.71 70.7828 3.685 69.842C4.66 68.906 6.245 68.8964 7.22 69.8324C8.12 70.6916 9.24 71.3204 10.45 71.6516C11.78 72.0116 12.55 73.3412 12.17 74.618C11.86 75.674 10.855 76.3604 9.77 76.3604ZM2.5 64.9988C1.12 64.9988 0 63.9236 0 62.5988V57.746C0 56.4212 1.12 55.346 2.5 55.346C3.88 55.346 5 56.4212 5 57.746V62.5988C5 63.9236 3.88 64.9988 2.5 64.9988ZM2.5 50.4404C1.12 50.4404 0 49.3652 0 48.0404V43.1875C0 41.8627 1.12 40.7875 2.5 40.7875C3.88 40.7875 5 41.8627 5 43.1875V48.0404C5 49.3652 3.88 50.4404 2.5 50.4404ZM2.5 35.8867C1.12 35.8867 0 34.8115 0 33.4867V28.6339C0 27.3091 1.12 26.2339 2.5 26.2339C3.88 26.2339 5 27.3091 5 28.6339V33.4867C5 34.8115 3.88 35.8867 2.5 35.8867ZM72.5 30.9379C71.12 30.9379 70 29.8627 70 28.5379V23.6851C70 22.3603 71.12 21.2851 72.5 21.2851C73.88 21.2851 75 22.3555 75 23.6851V28.5379C75 29.8627 73.88 30.9379 72.5 30.9379ZM2.5 21.3283C1.12 21.3283 0 20.2531 0 18.9283V16.7251C0 15.6211 0.16 14.5219 0.47 13.4611C0.845 12.1795 2.235 11.4259 3.555 11.8051C4.885 12.1651 5.655 13.4899 5.28 14.7667C5.095 15.4003 5 16.0579 5 16.7251V18.9283C5 20.2531 3.88 21.3283 2.5 21.3283ZM72.095 16.4179C71.01 16.4179 70.015 15.7363 69.695 14.6899C69.345 13.5331 68.675 12.4675 67.775 11.6035C66.795 10.6723 66.785 9.15067 67.755 8.20992C68.725 7.26432 70.31 7.25947 71.29 8.19072C72.795 9.62107 73.905 11.4019 74.495 13.3411C74.885 14.6131 74.12 15.9427 72.795 16.3171C72.56 16.3891 72.325 16.4179 72.095 16.4179ZM9.69 9.90912C8.61 9.90912 7.61 9.23232 7.29 8.18592C6.905 6.91392 7.665 5.57952 8.99 5.20512C10.125 4.88832 11.305 4.7251 12.5 4.7251H14.705C16.085 4.7251 17.205 5.80032 17.205 7.12512C17.205 8.44992 16.09 9.52512 14.705 9.52512H12.5C11.78 9.52512 11.075 9.62107 10.395 9.81307C10.16 9.88032 9.925 9.90912 9.69 9.90912ZM60.195 9.52512H55.14C53.76 9.52512 52.64 8.44992 52.64 7.12512C52.64 5.80032 53.76 4.7251 55.14 4.7251H60.195C61.575 4.7251 62.695 5.80032 62.695 7.12512C62.695 8.44992 61.575 9.52512 60.195 9.52512ZM45.03 9.52512H39.98C38.6 9.52512 37.48 8.44992 37.48 7.12512C37.48 5.80032 38.595 4.7251 39.98 4.7251H45.035C46.415 4.7251 47.535 5.80032 47.535 7.12512C47.535 8.44992 46.415 9.52512 45.03 9.52512ZM29.87 9.52512H24.815C23.435 9.52512 22.315 8.44992 22.315 7.12512C22.315 5.80032 23.435 4.7251 24.815 4.7251H29.87C31.25 4.7251 32.37 5.80032 32.37 7.12512C32.37 8.44992 31.25 9.52512 29.87 9.52512Z" fill="url(#paint1_linear_431_194)"/>
<path d="M74.2742 39.026L75.0042 39.7317V38.3253C75.0042 37.0005 73.8842 35.9253 72.5042 35.9253C71.6292 35.9253 70.8992 36.3812 70.4492 37.034C71.8492 37.3316 73.1842 37.9844 74.2742 39.026Z" fill="url(#paint2_linear_431_194)"/>
<path d="M107.5 47.9253H83.265C87.555 52.6774 90 58.615 90 64.9654C90 79.3894 77.775 91.1254 62.75 91.1254H52.5C49.68 91.1254 47.105 90.1894 45.01 88.6726C45.01 88.6918 45 88.7062 45 88.7254V107.925C45 114.54 50.61 119.925 57.5 119.925H107.5C114.39 119.925 120 114.54 120 107.925V59.9254C120 53.311 114.39 47.9253 107.5 47.9253Z" fill="url(#paint3_linear_431_194)"/>
<path d="M44.9937 75.3186V79.125C44.9937 83.0946 48.3588 86.325 52.4935 86.325H62.7435C75.0135 86.325 84.9935 76.7442 84.9935 64.965C84.9935 59.2626 82.6785 53.8962 78.4785 49.8642L70.729 42.4241C69.634 41.3729 67.8585 41.3729 66.7635 42.4241C66.2335 42.9281 65.9385 43.6049 65.9385 44.3249C65.9385 45.0449 66.2285 45.7217 66.7585 46.2257C67.2485 46.6961 67.4935 47.3105 67.4935 47.9249C67.4935 48.5394 67.2485 49.1538 66.7635 49.6242C65.7885 50.5602 64.204 50.5602 63.229 49.6242L60.729 47.2241C59.669 46.2065 57.8235 46.2065 56.7635 47.2241C55.6685 48.2754 55.6685 49.9794 56.7635 51.0306L59.2635 53.4306C59.7485 53.8962 59.9935 54.5106 59.9935 55.125C59.9935 55.7394 59.7485 56.3538 59.2635 56.8242C58.2885 57.7602 56.7035 57.7602 55.729 56.8242L51.979 53.2242C50.919 52.2066 49.0737 52.2066 48.0137 53.2242C46.9187 54.2754 46.9187 55.9794 48.0137 57.0306L54.2635 63.0306C54.7485 63.4962 54.9935 64.1106 54.9935 64.725C54.9935 65.3394 54.7485 65.9538 54.2635 66.4242C53.2885 67.3602 51.7035 67.3602 50.729 66.4242L45.2537 61.1682C44.1937 60.1506 42.3487 60.1506 41.2887 61.1682C40.7587 61.677 40.4688 62.3538 40.4688 63.069C40.4688 63.7842 40.7587 64.4658 41.2887 64.9698L54.2635 77.4258C54.7485 77.8962 54.9935 78.5106 54.9935 79.125C54.9935 79.7394 54.7485 80.3538 54.2635 80.8242C53.2885 81.7602 51.7035 81.7602 50.729 80.8242L44.9937 75.3186Z" fill="url(#paint4_linear_431_194)"/>
</g>
<defs>
<linearGradient id="paint0_linear_431_194" x1="60" y1="4.72337" x2="60" y2="119.923" gradientUnits="userSpaceOnUse">
<stop stop-color="#003AFF"/>
<stop offset="1" stop-color="#90A8F9"/>
</linearGradient>
<linearGradient id="paint1_linear_431_194" x1="60" y1="4.7233" x2="60" y2="119.923" gradientUnits="userSpaceOnUse">
<stop stop-color="#003AFF"/>
<stop offset="1" stop-color="#90A8F9"/>
</linearGradient>
<linearGradient id="paint2_linear_431_194" x1="60.0002" y1="4.72346" x2="60.0002" y2="119.923" gradientUnits="userSpaceOnUse">
<stop stop-color="#003AFF"/>
<stop offset="1" stop-color="#90A8F9"/>
</linearGradient>
<linearGradient id="paint3_linear_431_194" x1="60" y1="4.72347" x2="60" y2="119.923" gradientUnits="userSpaceOnUse">
<stop stop-color="#003AFF"/>
<stop offset="1" stop-color="#90A8F9"/>
</linearGradient>
<linearGradient id="paint4_linear_431_194" x1="60" y1="4.72312" x2="60" y2="119.923" gradientUnits="userSpaceOnUse">
<stop stop-color="#003AFF"/>
<stop offset="1" stop-color="#90A8F9"/>
</linearGradient>
</defs>
</svg>
