<svg width="868" height="132" viewBox="0 0 868 132" fill="none" xmlns="http://www.w3.org/2000/svg">
<path fill-rule="evenodd" clip-rule="evenodd" d="M23.55 10.22H843.69C846.71 10.22 849.11 11.92 850.12 14.77C855.29 29.5 857.03 46.86 857.03 62.41C857.03 77.96 855.29 95.33 850.12 110.05C849.12 112.9 846.72 114.6 843.69 114.6H23.55C20.53 114.6 18.13 112.9 17.12 110.05C11.95 95.32 10.21 77.96 10.21 62.41C10.21 46.86 11.95 29.49 17.12 14.77C18.12 11.92 20.52 10.22 23.55 10.22Z" fill="white"/>
<path fill-rule="evenodd" clip-rule="evenodd" d="M23.55 0H843.69C851.05 0 857.32 4.44 859.75 11.38C864.39 24.58 867.24 42.57 867.24 62.41C867.24 82.25 864.39 100.24 859.75 113.44C857.31 120.39 851.05 124.82 843.69 124.82H23.55C16.19 124.82 9.92 120.38 7.49 113.44C2.85 100.24 0 82.25 0 62.41C0 42.57 2.85 24.59 7.49 11.38C9.93 4.44 16.19 0 23.55 0ZM23.55 13.62C21.97 13.62 20.86 14.41 20.34 15.9C15.34 30.14 13.62 47.4 13.62 62.42C13.62 77.44 15.34 94.69 20.34 108.94C20.86 110.43 21.97 111.22 23.55 111.22H843.69C845.27 111.22 846.38 110.43 846.9 108.94C851.9 94.7 853.62 77.44 853.62 62.42C853.62 47.4 851.9 30.15 846.9 15.9C846.38 14.41 845.27 13.62 843.69 13.62H23.55Z" fill="url(#paint0_radial_1_1862)"/>
<path d="M23.55 114.16H843.69C846.51 114.16 848.76 112.57 849.69 109.9C855.38 93.69 856.58 75.12 856.58 62.4C856.58 49.68 855.39 31.11 849.69 14.9C848.76 12.24 846.51 10.64 843.69 10.64H23.55C20.73 10.64 18.48 12.23 17.55 14.9C11.86 31.11 10.66 49.68 10.66 62.4C10.66 75.12 11.85 93.69 17.55 109.9C18.49 112.56 20.73 114.16 23.55 114.16ZM23.55 111.21C21.97 111.21 20.86 110.42 20.34 108.93C15.34 94.69 13.62 77.43 13.62 62.41C13.62 47.39 15.34 30.14 20.34 15.89C20.86 14.4 21.97 13.61 23.55 13.61H843.69C845.27 13.61 846.38 14.4 846.9 15.89C851.9 30.13 853.62 47.39 853.62 62.41C853.62 77.43 851.9 94.68 846.9 108.93C846.38 110.42 845.27 111.21 843.69 111.21H23.55Z" fill="url(#paint1_linear_1_1862)"/>
<path style="mix-blend-mode:screen" opacity="0.5" fill-rule="evenodd" clip-rule="evenodd" d="M463.21 2.62C194.36 2.62 42.97 1.31 23.97 0H843.27C824.28 1.31 732.05 2.62 463.2 2.62H463.21Z" fill="url(#paint2_linear_1_1862)"/>
<path style="mix-blend-mode:screen" opacity="0.75" d="M2.93998 58.6C3.08998 50.77 3.69998 42.93 4.78998 35.44C5.99998 27.15 7.79998 19.3 10.24 12.36C12.26 6.60003 17.44 2.91003 23.55 2.91003H843.69C849.8 2.91003 854.98 6.60003 857.01 12.36C859.44 19.29 861.25 27.15 862.46 35.44C863.55 42.93 864.16 50.77 864.31 58.6C864.4 63.6 856.6 63.72 856.5 58.74C856.36 51.18 855.78 43.66 854.74 36.54C853.6 28.71 851.91 21.35 849.66 14.93C848.72 12.26 846.52 10.72 843.7 10.72H23.55C20.72 10.72 18.52 12.26 17.59 14.93C15.33 21.36 13.65 28.72 12.51 36.54C11.47 43.66 10.89 51.18 10.75 58.74C10.66 63.72 2.84998 63.6 2.93998 58.6Z" fill="url(#paint3_linear_1_1862)"/>
<path style="mix-blend-mode:multiply" opacity="0.75" fill-rule="evenodd" clip-rule="evenodd" d="M843.69 124.62H23.55C16.19 124.62 9.92 120.18 7.49 113.24C3.14 100.84 0.35 84.2201 0.03 65.8101C0.01 67.0001 0 68.2101 0 69.4101C0 89.2401 2.85 107.24 7.49 120.44C9.93 127.39 16.19 131.82 23.55 131.82H843.69C851.05 131.82 857.32 127.38 859.75 120.44C864.39 107.24 867.24 89.2501 867.24 69.4101C867.24 68.2001 867.23 67.0001 867.21 65.8101C866.89 84.2101 864.11 100.84 859.75 113.23C857.31 120.18 851.05 124.61 843.69 124.61V124.62Z" fill="url(#paint4_linear_1_1862)"/>
<path fill-rule="evenodd" clip-rule="evenodd" d="M847.98 90.82C849.61 81.35 850.22 71.52 850.22 62.41C850.22 53.3 849.6 43.46 847.98 33.97C846.29 24.07 837.88 16.98 827.84 16.98C729.99 17.04 149.54 17.02 39.41 17.01C29.37 17.01 20.97 24.1 19.27 33.99C17.64 43.47 17.03 53.29 17.03 62.4C17.03 71.51 17.65 81.33 19.27 90.81C20.97 100.7 29.37 107.79 39.41 107.79H827.84C837.88 107.79 846.28 100.7 847.98 90.81V90.82Z" fill="white"/>
<path style="mix-blend-mode:screen" fill-rule="evenodd" clip-rule="evenodd" d="M463.21 115.62C194.07 115.62 42.57 113.41 23.56 111.2H843.7C824.68 113.41 732.36 115.62 463.21 115.62Z" fill="url(#paint5_linear_1_1862)"/>
<defs>
<radialGradient id="paint0_radial_1_1862" cx="0" cy="0" r="1" gradientUnits="userSpaceOnUse" gradientTransform="translate(433.62 62.41) scale(309.78 309.78)">
<stop stop-color="#65C932"/>
<stop offset="1" stop-color="#3B8700"/>
</radialGradient>
<linearGradient id="paint1_linear_1_1862" x1="433.62" y1="114.16" x2="433.62" y2="10.66" gradientUnits="userSpaceOnUse">
<stop stop-color="#86D44A"/>
<stop offset="1" stop-color="#286100"/>
</linearGradient>
<linearGradient id="paint2_linear_1_1862" x1="433.62" y1="2.62" x2="433.62" y2="0" gradientUnits="userSpaceOnUse">
<stop/>
<stop offset="1" stop-color="#00FF9D"/>
</linearGradient>
<linearGradient id="paint3_linear_1_1862" x1="433.62" y1="62.41" x2="433.62" y2="2.91003" gradientUnits="userSpaceOnUse">
<stop/>
<stop offset="1" stop-color="#00FF9D"/>
</linearGradient>
<linearGradient id="paint4_linear_1_1862" x1="433.62" y1="155.01" x2="433.62" y2="69.0801" gradientUnits="userSpaceOnUse">
<stop offset="0.24" stop-color="#36541F"/>
<stop offset="0.62" stop-color="#C8E3B3"/>
</linearGradient>
<linearGradient id="paint5_linear_1_1862" x1="433.62" y1="115.62" x2="433.62" y2="111.21" gradientUnits="userSpaceOnUse">
<stop stop-color="#72B547"/>
<stop offset="1"/>
</linearGradient>
</defs>
</svg>
