<svg width="419" height="132" viewBox="0 0 419 132" fill="none" xmlns="http://www.w3.org/2000/svg">
<path d="M380.01 1H38.28C17.5307 1 0.710022 17.8207 0.710022 38.57V93.3C0.710022 114.049 17.5307 130.87 38.28 130.87H380.01C400.759 130.87 417.58 114.049 417.58 93.3V38.57C417.58 17.8207 400.759 1 380.01 1Z" fill="url(#paint0_linear_5_544)" stroke="#894507" stroke-width="1.42" stroke-miterlimit="10"/>
<path d="M403.4 65.82L406.1 67.54C406.76 67.96 407.16 68.73 407.16 69.56V89.74C407.16 105.76 395.36 118.75 380.81 118.75H37.48C22.92 118.75 11.13 105.76 11.13 89.74C11.13 89.06 11.46 88.43 12 88.09L14.89 86.25C15.63 85.78 15.63 84.59 14.89 84.12L12 82.28C11.46 81.94 11.13 81.31 11.13 80.63V42.12C11.13 26.11 22.93 13.12 37.49 13.12H380.81C395.37 13.12 407.17 26.11 407.17 42.13V59.96C407.17 60.79 406.77 61.56 406.11 61.98L403.41 63.7C402.67 64.17 402.67 65.36 403.41 65.83L403.4 65.82Z" fill="url(#paint1_linear_5_544)" stroke="#894507" stroke-width="1.42" stroke-miterlimit="10"/>
<path d="M21.4 110.93C22.48 110.93 405.75 91.09 405.75 91.09C405.75 91.09 405.39 100.13 402.51 102.67C399.63 105.2 24.39 114.07 24.39 114.07L21.4 110.93Z" fill="#E48505"/>
<path d="M21.91 19.69L399.22 22.58C399.22 22.58 393.25 14.08 380.41 13.9C367.57 13.72 34.58 13.9 34.58 13.9C32.37 14.4 26.66 15.7 21.92 19.69H21.91Z" fill="url(#paint2_linear_5_544)"/>
<mask id="path-5-outside-1_5_544" maskUnits="userSpaceOnUse" x="98" y="34.29" width="220" height="64" fill="black">
<rect fill="white" x="98" y="34.29" width="220" height="64"/>
<path d="M100 90.29V88.695L106.6 70.49L100.55 53.385V51.79H111.385L115.235 65.1H115.895L119.8 51.79H130.58V53.385L124.86 70.49L131.13 88.695V90.29H120.35L115.895 77.42H115.235L110.835 90.29H100ZM153.536 51.79V61.305H143.746V67.08C144.736 66.75 145.726 66.475 146.716 66.255C147.743 66.035 148.733 65.8884 149.686 65.815C150.676 65.7417 151.593 65.76 152.436 65.87V75.11L151.831 75.44C151.134 75.22 150.346 75.0734 149.466 75C148.623 74.9267 147.724 74.945 146.771 75.055C145.818 75.165 144.809 75.385 143.746 75.715V80.775H153.536V90.29H133.296V51.79H153.536ZM140.886 42.66H145.836C146.606 43.98 147.596 45.0434 148.806 45.85C150.016 46.6567 151.593 47.06 153.536 47.06V49.48C151.666 49.48 149.814 49.2234 147.981 48.71C146.184 48.1967 144.754 47.28 143.691 45.96H143.031C141.968 47.28 140.519 48.1967 138.686 48.71C136.889 49.2234 135.056 49.48 133.186 49.48V47.06C135.129 47.06 136.724 46.6567 137.971 45.85C139.218 45.0067 140.189 43.9434 140.886 42.66ZM163.381 37.105L163.821 37.215V40.625C162.978 41.2117 161.933 41.7067 160.686 42.11C159.476 42.4767 158.211 42.77 156.891 42.99C155.571 43.21 154.306 43.375 153.096 43.485C151.923 43.5584 150.951 43.595 150.181 43.595V41.175C151.281 41.175 152.619 41.0467 154.196 40.79C155.809 40.4967 157.441 40.0567 159.091 39.47C160.741 38.8467 162.171 38.0584 163.381 37.105ZM156.768 90.29V51.79H171.233C173.579 51.79 175.614 52.23 177.338 53.11C179.061 53.99 180.399 55.3834 181.353 57.29C182.306 59.16 182.783 61.635 182.783 64.715C182.783 67.7217 182.233 70.2334 181.133 72.25C180.069 74.23 178.658 75.715 176.898 76.705C175.138 77.6584 173.249 78.135 171.233 78.135H167.218V90.29H156.768ZM167.218 69.17H169.473C170.133 69.17 170.646 68.9867 171.013 68.62C171.379 68.2167 171.636 67.7034 171.783 67.08C171.966 66.4567 172.058 65.815 172.058 65.155C172.058 64.4584 171.966 63.835 171.783 63.285C171.636 62.6984 171.379 62.2217 171.013 61.855C170.646 61.4884 170.133 61.305 169.473 61.305H167.218V69.17ZM213.484 51.79H224.044V90.29H213.484V75.715H208.149V90.29H197.534V51.79H208.149V66.365H213.484V51.79ZM226.113 90.29V88.75L232.988 51.79L249.323 51.845L256.198 88.75V90.29H245.253L244.428 83.195H237.938L237.113 90.29H226.113ZM238.928 74.12H243.438L242.008 61.745H240.358L238.928 74.12ZM235.958 93.15H246.408V96.23H235.958V93.15ZM274.285 51.79H284.46V90.29H274.395L268.51 73.295H268.015L268.51 90.29H258.335V51.79H268.455L274.34 69.39H274.78L274.285 51.79ZM287.308 71.04C287.308 66.4567 288.115 62.6984 289.728 59.765C291.378 56.8317 293.56 54.6684 296.273 53.275C299.023 51.8817 302.048 51.185 305.348 51.185C307.145 51.185 308.758 51.35 310.188 51.68C311.618 52.01 312.828 52.4134 313.818 52.89C314.845 53.3667 315.578 53.8434 316.018 54.32V64.935H314.808C314.515 64.275 313.965 63.6334 313.158 63.01C312.388 62.3867 311.471 61.8734 310.408 61.47C309.345 61.03 308.208 60.81 306.998 60.81C305.091 60.81 303.478 61.1767 302.158 61.91C300.838 62.6434 299.83 63.7617 299.133 65.265C298.473 66.7684 298.143 68.7117 298.143 71.095C298.143 73.3317 298.436 75.2384 299.023 76.815C299.61 78.3917 300.49 79.5834 301.663 80.39C302.873 81.1967 304.34 81.6 306.063 81.6C306.063 81.6 306.1 81.6367 306.173 81.71C306.283 81.7467 306.411 81.71 306.558 81.6V75.605H301.168V66.53H316.018V86.385C314.441 87.9617 312.626 89.1167 310.573 89.85C308.556 90.5467 306.356 90.895 303.973 90.895C301.846 90.895 299.793 90.51 297.813 89.74C295.833 88.9334 294.055 87.7234 292.478 86.11C290.901 84.4967 289.636 82.4434 288.683 79.95C287.766 77.4567 287.308 74.4867 287.308 71.04Z"/>
</mask>
<path d="M100 90.29V88.695L106.6 70.49L100.55 53.385V51.79H111.385L115.235 65.1H115.895L119.8 51.79H130.58V53.385L124.86 70.49L131.13 88.695V90.29H120.35L115.895 77.42H115.235L110.835 90.29H100ZM153.536 51.79V61.305H143.746V67.08C144.736 66.75 145.726 66.475 146.716 66.255C147.743 66.035 148.733 65.8884 149.686 65.815C150.676 65.7417 151.593 65.76 152.436 65.87V75.11L151.831 75.44C151.134 75.22 150.346 75.0734 149.466 75C148.623 74.9267 147.724 74.945 146.771 75.055C145.818 75.165 144.809 75.385 143.746 75.715V80.775H153.536V90.29H133.296V51.79H153.536ZM140.886 42.66H145.836C146.606 43.98 147.596 45.0434 148.806 45.85C150.016 46.6567 151.593 47.06 153.536 47.06V49.48C151.666 49.48 149.814 49.2234 147.981 48.71C146.184 48.1967 144.754 47.28 143.691 45.96H143.031C141.968 47.28 140.519 48.1967 138.686 48.71C136.889 49.2234 135.056 49.48 133.186 49.48V47.06C135.129 47.06 136.724 46.6567 137.971 45.85C139.218 45.0067 140.189 43.9434 140.886 42.66ZM163.381 37.105L163.821 37.215V40.625C162.978 41.2117 161.933 41.7067 160.686 42.11C159.476 42.4767 158.211 42.77 156.891 42.99C155.571 43.21 154.306 43.375 153.096 43.485C151.923 43.5584 150.951 43.595 150.181 43.595V41.175C151.281 41.175 152.619 41.0467 154.196 40.79C155.809 40.4967 157.441 40.0567 159.091 39.47C160.741 38.8467 162.171 38.0584 163.381 37.105ZM156.768 90.29V51.79H171.233C173.579 51.79 175.614 52.23 177.338 53.11C179.061 53.99 180.399 55.3834 181.353 57.29C182.306 59.16 182.783 61.635 182.783 64.715C182.783 67.7217 182.233 70.2334 181.133 72.25C180.069 74.23 178.658 75.715 176.898 76.705C175.138 77.6584 173.249 78.135 171.233 78.135H167.218V90.29H156.768ZM167.218 69.17H169.473C170.133 69.17 170.646 68.9867 171.013 68.62C171.379 68.2167 171.636 67.7034 171.783 67.08C171.966 66.4567 172.058 65.815 172.058 65.155C172.058 64.4584 171.966 63.835 171.783 63.285C171.636 62.6984 171.379 62.2217 171.013 61.855C170.646 61.4884 170.133 61.305 169.473 61.305H167.218V69.17ZM213.484 51.79H224.044V90.29H213.484V75.715H208.149V90.29H197.534V51.79H208.149V66.365H213.484V51.79ZM226.113 90.29V88.75L232.988 51.79L249.323 51.845L256.198 88.75V90.29H245.253L244.428 83.195H237.938L237.113 90.29H226.113ZM238.928 74.12H243.438L242.008 61.745H240.358L238.928 74.12ZM235.958 93.15H246.408V96.23H235.958V93.15ZM274.285 51.79H284.46V90.29H274.395L268.51 73.295H268.015L268.51 90.29H258.335V51.79H268.455L274.34 69.39H274.78L274.285 51.79ZM287.308 71.04C287.308 66.4567 288.115 62.6984 289.728 59.765C291.378 56.8317 293.56 54.6684 296.273 53.275C299.023 51.8817 302.048 51.185 305.348 51.185C307.145 51.185 308.758 51.35 310.188 51.68C311.618 52.01 312.828 52.4134 313.818 52.89C314.845 53.3667 315.578 53.8434 316.018 54.32V64.935H314.808C314.515 64.275 313.965 63.6334 313.158 63.01C312.388 62.3867 311.471 61.8734 310.408 61.47C309.345 61.03 308.208 60.81 306.998 60.81C305.091 60.81 303.478 61.1767 302.158 61.91C300.838 62.6434 299.83 63.7617 299.133 65.265C298.473 66.7684 298.143 68.7117 298.143 71.095C298.143 73.3317 298.436 75.2384 299.023 76.815C299.61 78.3917 300.49 79.5834 301.663 80.39C302.873 81.1967 304.34 81.6 306.063 81.6C306.063 81.6 306.1 81.6367 306.173 81.71C306.283 81.7467 306.411 81.71 306.558 81.6V75.605H301.168V66.53H316.018V86.385C314.441 87.9617 312.626 89.1167 310.573 89.85C308.556 90.5467 306.356 90.895 303.973 90.895C301.846 90.895 299.793 90.51 297.813 89.74C295.833 88.9334 294.055 87.7234 292.478 86.11C290.901 84.4967 289.636 82.4434 288.683 79.95C287.766 77.4567 287.308 74.4867 287.308 71.04Z" fill="white"/>
<path d="M100 90.29H98.2V92.09H100V90.29ZM100 88.695L98.3078 88.0815L98.2 88.3788V88.695H100ZM106.6 70.49L108.292 71.1035L108.512 70.4975L108.297 69.8898L106.6 70.49ZM100.55 53.385H98.75V53.694L98.853 53.9853L100.55 53.385ZM100.55 51.79V49.99H98.75V51.79H100.55ZM111.385 51.79L113.114 51.2899L112.738 49.99H111.385V51.79ZM115.235 65.1L113.506 65.6002L113.882 66.9H115.235V65.1ZM115.895 65.1V66.9H117.243L117.622 65.6068L115.895 65.1ZM119.8 51.79V49.99H118.452L118.073 51.2833L119.8 51.79ZM130.58 51.79H132.38V49.99H130.58V51.79ZM130.58 53.385L132.287 53.9559L132.38 53.678V53.385H130.58ZM124.86 70.49L123.153 69.9192L122.959 70.4986L123.158 71.0762L124.86 70.49ZM131.13 88.695H132.93V88.3938L132.832 88.1089L131.13 88.695ZM131.13 90.29V92.09H132.93V90.29H131.13ZM120.35 90.29L118.649 90.8788L119.068 92.09H120.35V90.29ZM115.895 77.42L117.596 76.8312L117.177 75.62H115.895V77.42ZM115.235 77.42V75.62H113.948L113.532 76.8377L115.235 77.42ZM110.835 90.29V92.09H112.122L112.538 90.8723L110.835 90.29ZM100 90.29H101.8V88.695H100H98.2V90.29H100ZM100 88.695L101.692 89.3085L108.292 71.1035L106.6 70.49L104.908 69.8765L98.3078 88.0815L100 88.695ZM106.6 70.49L108.297 69.8898L102.247 52.7848L100.55 53.385L98.853 53.9853L104.903 71.0903L106.6 70.49ZM100.55 53.385H102.35V51.79H100.55H98.75V53.385H100.55ZM100.55 51.79V53.59H111.385V51.79V49.99H100.55V51.79ZM111.385 51.79L109.656 52.2902L113.506 65.6002L115.235 65.1L116.964 64.5999L113.114 51.2899L111.385 51.79ZM115.235 65.1V66.9H115.895V65.1V63.3H115.235V65.1ZM115.895 65.1L117.622 65.6068L121.527 52.2968L119.8 51.79L118.073 51.2833L114.168 64.5933L115.895 65.1ZM119.8 51.79V53.59H130.58V51.79V49.99H119.8V51.79ZM130.58 51.79H128.78V53.385H130.58H132.38V51.79H130.58ZM130.58 53.385L128.873 52.8142L123.153 69.9192L124.86 70.49L126.567 71.0609L132.287 53.9559L130.58 53.385ZM124.86 70.49L123.158 71.0762L129.428 89.2812L131.13 88.695L132.832 88.1089L126.562 69.9039L124.86 70.49ZM131.13 88.695H129.33V90.29H131.13H132.93V88.695H131.13ZM131.13 90.29V88.49H120.35V90.29V92.09H131.13V90.29ZM120.35 90.29L122.051 89.7012L117.596 76.8312L115.895 77.42L114.194 78.0088L118.649 90.8788L120.35 90.29ZM115.895 77.42V75.62H115.235V77.42V79.22H115.895V77.42ZM115.235 77.42L113.532 76.8377L109.132 89.7077L110.835 90.29L112.538 90.8723L116.938 78.0023L115.235 77.42ZM110.835 90.29V88.49H100V90.29V92.09H110.835V90.29ZM153.536 51.79H155.336V49.99H153.536V51.79ZM153.536 61.305V63.105H155.336V61.305H153.536ZM143.746 61.305V59.505H141.946V61.305H143.746ZM143.746 67.08H141.946V69.5774L144.315 68.7877L143.746 67.08ZM146.716 66.255L146.339 64.4949L146.326 64.4979L146.716 66.255ZM149.686 65.815L149.553 64.0199L149.548 64.0203L149.686 65.815ZM152.436 65.87H154.236V64.2896L152.669 64.0852L152.436 65.87ZM152.436 75.11L153.298 76.6902L154.236 76.1786V75.11H152.436ZM151.831 75.44L151.289 77.1565L152.02 77.3873L152.693 77.0202L151.831 75.44ZM149.466 75L149.31 76.7933L149.317 76.7938L149.466 75ZM146.771 75.055L146.977 76.8432L146.771 75.055ZM143.746 75.715L143.213 73.9959L141.946 74.389V75.715H143.746ZM143.746 80.775H141.946V82.575H143.746V80.775ZM153.536 80.775H155.336V78.975H153.536V80.775ZM153.536 90.29V92.09H155.336V90.29H153.536ZM133.296 90.29H131.496V92.09H133.296V90.29ZM133.296 51.79V49.99H131.496V51.79H133.296ZM140.886 42.66V40.86H139.815L139.304 41.8013L140.886 42.66ZM145.836 42.66L147.391 41.7531L146.87 40.86H145.836V42.66ZM148.806 45.85L149.805 44.3523L148.806 45.85ZM153.536 47.06H155.336V45.26H153.536V47.06ZM153.536 49.48V51.28H155.336V49.48H153.536ZM147.981 48.71L147.487 50.4408L147.496 50.4434L147.981 48.71ZM143.691 45.96L145.093 44.8308L144.552 44.16H143.691V45.96ZM143.031 45.96V44.16H142.17L141.629 44.8308L143.031 45.96ZM138.686 48.71L138.201 46.9767L138.192 46.9793L138.686 48.71ZM133.186 49.48H131.386V51.28H133.186V49.48ZM133.186 47.06V45.26H131.386V47.06H133.186ZM137.971 45.85L138.949 47.3613L138.964 47.3513L138.98 47.3409L137.971 45.85ZM163.381 37.105L163.818 35.3588L162.961 35.1446L162.267 35.6912L163.381 37.105ZM163.821 37.215H165.621V35.8096L164.258 35.4688L163.821 37.215ZM163.821 40.625L164.849 42.1027L165.621 41.5656V40.625H163.821ZM160.686 42.11L161.208 43.8327L161.224 43.8278L161.24 43.8226L160.686 42.11ZM156.891 42.99L157.187 44.7655V44.7655L156.891 42.99ZM153.096 43.485L153.208 45.2815L153.234 45.2799L153.259 45.2776L153.096 43.485ZM150.181 43.595H148.381V45.395H150.181V43.595ZM150.181 41.175V39.375H148.381V41.175H150.181ZM154.196 40.79L154.485 42.5667L154.502 42.564L154.518 42.561L154.196 40.79ZM159.091 39.47L159.694 41.166L159.711 41.1601L159.727 41.1539L159.091 39.47ZM153.536 51.79H151.736V61.305H153.536H155.336V51.79H153.536ZM153.536 61.305V59.505H143.746V61.305V63.105H153.536V61.305ZM143.746 61.305H141.946V67.08H143.746H145.546V61.305H143.746ZM143.746 67.08L144.315 68.7877C145.248 68.4767 146.179 68.2184 147.107 68.0122L146.716 66.255L146.326 64.4979C145.273 64.7317 144.224 65.0234 143.177 65.3724L143.746 67.08ZM146.716 66.255L147.093 68.0151C148.049 67.8104 148.959 67.6763 149.824 67.6097L149.686 65.815L149.548 64.0203C148.507 64.1004 147.437 64.2597 146.339 64.495L146.716 66.255ZM149.686 65.815L149.819 67.6101C150.707 67.5444 151.499 67.5631 152.203 67.6549L152.436 65.87L152.669 64.0852C151.686 63.957 150.645 63.939 149.553 64.02L149.686 65.815ZM152.436 65.87H150.636V75.11H152.436H154.236V65.87H152.436ZM152.436 75.11L151.574 73.5298L150.969 73.8598L151.831 75.44L152.693 77.0202L153.298 76.6902L152.436 75.11ZM151.831 75.44L152.373 73.7236C151.526 73.456 150.602 73.2885 149.616 73.2063L149.466 75L149.317 76.7938C150.09 76.8583 150.743 76.9841 151.289 77.1565L151.831 75.44ZM149.466 75L149.622 73.2068C148.643 73.1217 147.623 73.1448 146.565 73.2669L146.771 75.055L146.977 76.8432C147.826 76.7452 148.602 76.7317 149.31 76.7933L149.466 75ZM146.771 75.055L146.565 73.2669C145.484 73.3915 144.366 73.6379 143.213 73.9959L143.746 75.715L144.28 77.4342C145.253 77.1321 146.151 76.9385 146.977 76.8432L146.771 75.055ZM143.746 75.715H141.946V80.775H143.746H145.546V75.715H143.746ZM143.746 80.775V82.575H153.536V80.775V78.975H143.746V80.775ZM153.536 80.775H151.736V90.29H153.536H155.336V80.775H153.536ZM153.536 90.29V88.49H133.296V90.29V92.09H153.536V90.29ZM133.296 90.29H135.096V51.79H133.296H131.496V90.29H133.296ZM133.296 51.79V53.59H153.536V51.79V49.99H133.296V51.79ZM140.886 42.66V44.46H145.836V42.66V40.86H140.886V42.66ZM145.836 42.66L144.281 43.567C145.182 45.1113 146.358 46.3813 147.808 47.3477L148.806 45.85L149.805 44.3523C148.834 43.7054 148.03 42.8487 147.391 41.7531L145.836 42.66ZM148.806 45.85L147.808 47.3477C149.398 48.4077 151.354 48.86 153.536 48.86V47.06V45.26C151.831 45.26 150.635 44.9057 149.805 44.3523L148.806 45.85ZM153.536 47.06H151.736V49.48H153.536H155.336V47.06H153.536ZM153.536 49.48V47.68C151.833 47.68 150.145 47.4466 148.466 46.9767L147.981 48.71L147.496 50.4434C149.484 51.0001 151.499 51.28 153.536 51.28V49.48ZM147.981 48.71L148.476 46.9793C146.998 46.5571 145.899 45.8319 145.093 44.8308L143.691 45.96L142.289 47.0892C143.61 48.7281 145.371 49.8363 147.487 50.4408L147.981 48.71ZM143.691 45.96V44.16H143.031V45.96V47.76H143.691V45.96ZM143.031 45.96L141.629 44.8308C140.83 45.8236 139.72 46.5514 138.201 46.9767L138.686 48.71L139.171 50.4434C141.319 49.842 143.106 48.7365 144.433 47.0892L143.031 45.96ZM138.686 48.71L138.192 46.9793C136.556 47.4466 134.889 47.68 133.186 47.68V49.48V51.28C135.223 51.28 137.223 51.0001 139.181 50.4408L138.686 48.71ZM133.186 49.48H134.986V47.06H133.186H131.386V49.48H133.186ZM133.186 47.06V48.86C135.371 48.86 137.334 48.4065 138.949 47.3613L137.971 45.85L136.993 44.3388C136.115 44.9069 134.888 45.26 133.186 45.26V47.06ZM137.971 45.85L138.98 47.3409C140.458 46.3411 141.629 45.0637 142.468 43.5188L140.886 42.66L139.304 41.8013C138.749 42.823 137.978 43.6723 136.962 44.3591L137.971 45.85ZM163.381 37.105L162.944 38.8513L163.384 38.9613L163.821 37.215L164.258 35.4688L163.818 35.3588L163.381 37.105ZM163.821 37.215H162.021V40.625H163.821H165.621V37.215H163.821ZM163.821 40.625L162.793 39.1474C162.129 39.6094 161.254 40.0344 160.132 40.3974L160.686 42.11L161.24 43.8226C162.611 43.379 163.826 42.814 164.849 42.1027L163.821 40.625ZM160.686 42.11L160.164 40.3874C159.032 40.7303 157.843 41.0065 156.595 41.2145L156.891 42.99L157.187 44.7655C158.579 44.5335 159.92 44.2231 161.208 43.8327L160.686 42.11ZM156.891 42.99L156.595 41.2145C155.315 41.4279 154.094 41.5869 152.933 41.6924L153.096 43.485L153.259 45.2776C154.518 45.1632 155.827 44.9922 157.187 44.7655L156.891 42.99ZM153.096 43.485L152.984 41.6885C151.831 41.7606 150.9 41.795 150.181 41.795V43.595V45.395C151.003 45.395 152.015 45.3561 153.208 45.2815L153.096 43.485ZM150.181 43.595H151.981V41.175H150.181H148.381V43.595H150.181ZM150.181 41.175V42.975C151.411 42.975 152.852 42.8326 154.485 42.5667L154.196 40.79L153.907 39.0134C152.387 39.2608 151.152 39.375 150.181 39.375V41.175ZM154.196 40.79L154.518 42.561C156.233 42.2492 157.959 41.783 159.694 41.166L159.091 39.47L158.488 37.7741C156.923 38.3304 155.386 38.7442 153.874 39.0191L154.196 40.79ZM159.091 39.47L159.727 41.1539C161.525 40.4748 163.121 39.6013 164.495 38.5189L163.381 37.105L162.267 35.6912C161.221 36.5155 159.957 37.2186 158.455 37.7862L159.091 39.47ZM156.768 90.29H154.968V92.09H156.768V90.29ZM156.768 51.79V49.99H154.968V51.79H156.768ZM177.338 53.11L178.156 51.5069L177.338 53.11ZM181.353 57.29L179.743 58.095L179.749 58.1076L181.353 57.29ZM181.133 72.25L179.552 71.3881L179.547 71.3984L181.133 72.25ZM176.898 76.705L177.755 78.2878L177.768 78.2809L177.78 78.2739L176.898 76.705ZM167.218 78.135V76.335H165.418V78.135H167.218ZM167.218 90.29V92.09H169.018V90.29H167.218ZM167.218 69.17H165.418V70.97H167.218V69.17ZM171.013 68.62L172.286 69.8928L172.316 69.8625L172.345 69.8308L171.013 68.62ZM171.783 67.08L170.056 66.5721L170.042 66.6196L170.031 66.6678L171.783 67.08ZM171.783 63.285L170.036 63.7216L170.053 63.7887L170.075 63.8542L171.783 63.285ZM171.013 61.855L172.286 60.5822L172.286 60.5822L171.013 61.855ZM167.218 61.305V59.505H165.418V61.305H167.218ZM156.768 90.29H158.568V51.79H156.768H154.968V90.29H156.768ZM156.768 51.79V53.59H171.233V51.79V49.99H156.768V51.79ZM171.233 51.79V53.59C173.355 53.59 175.098 53.9873 176.519 54.7131L177.338 53.11L178.156 51.5069C176.131 50.4728 173.804 49.99 171.233 49.99V51.79ZM177.338 53.11L176.519 54.7131C177.865 55.4006 178.943 56.4953 179.743 58.095L181.353 57.29L182.963 56.4851C181.856 54.2715 180.257 52.5795 178.156 51.5069L177.338 53.11ZM181.353 57.29L179.749 58.1076C180.527 59.6339 180.983 61.7964 180.983 64.715H182.783H184.583C184.583 61.4736 184.085 58.6862 182.956 56.4725L181.353 57.29ZM182.783 64.715H180.983C180.983 67.5106 180.471 69.705 179.553 71.3881L181.133 72.25L182.713 73.112C183.995 70.7617 184.583 67.9328 184.583 64.715H182.783ZM181.133 72.25L179.547 71.3984C178.626 73.1126 177.445 74.3322 176.015 75.1362L176.898 76.705L177.78 78.2739C179.871 77.0979 181.512 75.3475 182.719 73.1017L181.133 72.25ZM176.898 76.705L176.04 75.1223C174.546 75.9319 172.952 76.335 171.233 76.335V78.135V79.935C173.546 79.935 175.73 79.3848 177.755 78.2878L176.898 76.705ZM171.233 78.135V76.335H167.218V78.135V79.935H171.233V78.135ZM167.218 78.135H165.418V90.29H167.218H169.018V78.135H167.218ZM167.218 90.29V88.49H156.768V90.29V92.09H167.218V90.29ZM167.218 69.17V70.97H169.473V69.17V67.37H167.218V69.17ZM169.473 69.17V70.97C170.473 70.97 171.496 70.6828 172.286 69.8928L171.013 68.62L169.74 67.3472C169.755 67.3325 169.766 67.3307 169.747 67.3374C169.721 67.3468 169.639 67.37 169.473 67.37V69.17ZM171.013 68.62L172.345 69.8308C172.95 69.1647 173.33 68.361 173.535 67.4923L171.783 67.08L170.031 66.6678C169.942 67.0458 169.809 67.2687 169.681 67.4092L171.013 68.62ZM171.783 67.08L173.51 67.5879C173.742 66.7971 173.858 65.9842 173.858 65.155H172.058H170.258C170.258 65.6459 170.19 66.1164 170.056 66.5721L171.783 67.08ZM172.058 65.155H173.858C173.858 64.3027 173.746 63.4821 173.49 62.7158L171.783 63.285L170.075 63.8542C170.186 64.188 170.258 64.614 170.258 65.155H172.058ZM171.783 63.285L173.529 62.8485C173.317 61.9986 172.919 61.2156 172.286 60.5822L171.013 61.855L169.74 63.1278C169.84 63.2278 169.956 63.3981 170.036 63.7216L171.783 63.285ZM171.013 61.855L172.286 60.5822C171.496 59.7923 170.473 59.505 169.473 59.505V61.305V63.105C169.639 63.105 169.721 63.1283 169.747 63.1377C169.766 63.1444 169.755 63.1426 169.74 63.1278L171.013 61.855ZM169.473 61.305V59.505H167.218V61.305V63.105H169.473V61.305ZM167.218 61.305H165.418V69.17H167.218H169.018V61.305H167.218ZM213.484 51.79V49.99H211.684V51.79H213.484ZM224.044 51.79H225.844V49.99H224.044V51.79ZM224.044 90.29V92.09H225.844V90.29H224.044ZM213.484 90.29H211.684V92.09H213.484V90.29ZM213.484 75.715H215.284V73.915H213.484V75.715ZM208.149 75.715V73.915H206.349V75.715H208.149ZM208.149 90.29V92.09H209.949V90.29H208.149ZM197.534 90.29H195.734V92.09H197.534V90.29ZM197.534 51.79V49.99H195.734V51.79H197.534ZM208.149 51.79H209.949V49.99H208.149V51.79ZM208.149 66.365H206.349V68.165H208.149V66.365ZM213.484 66.365V68.165H215.284V66.365H213.484ZM213.484 51.79V53.59H224.044V51.79V49.99H213.484V51.79ZM224.044 51.79H222.244V90.29H224.044H225.844V51.79H224.044ZM224.044 90.29V88.49H213.484V90.29V92.09H224.044V90.29ZM213.484 90.29H215.284V75.715H213.484H211.684V90.29H213.484ZM213.484 75.715V73.915H208.149V75.715V77.515H213.484V75.715ZM208.149 75.715H206.349V90.29H208.149H209.949V75.715H208.149ZM208.149 90.29V88.49H197.534V90.29V92.09H208.149V90.29ZM197.534 90.29H199.334V51.79H197.534H195.734V90.29H197.534ZM197.534 51.79V53.59H208.149V51.79V49.99H197.534V51.79ZM208.149 51.79H206.349V66.365H208.149H209.949V51.79H208.149ZM208.149 66.365V68.165H213.484V66.365V64.565H208.149V66.365ZM213.484 66.365H215.284V51.79H213.484H211.684V66.365H213.484ZM226.113 90.29H224.313V92.09H226.113V90.29ZM226.113 88.75L224.344 88.4209L224.313 88.5841V88.75H226.113ZM232.988 51.79L232.994 49.99L231.493 49.985L231.219 51.4609L232.988 51.79ZM249.323 51.845L251.093 51.5154L250.82 50.0501L249.329 50.045L249.323 51.845ZM256.198 88.75H257.998V88.5838L257.968 88.4204L256.198 88.75ZM256.198 90.29V92.09H257.998V90.29H256.198ZM245.253 90.29L243.465 90.4979L243.65 92.09H245.253V90.29ZM244.428 83.195L246.216 82.9871L246.031 81.395H244.428V83.195ZM237.938 83.195V81.395H236.335L236.15 82.9871L237.938 83.195ZM237.113 90.29V92.09H238.716L238.901 90.4979L237.113 90.29ZM238.928 74.12L237.14 73.9134L236.908 75.92H238.928V74.12ZM243.438 74.12V75.92H245.458L245.226 73.9134L243.438 74.12ZM242.008 61.745L243.796 61.5384L243.612 59.945H242.008V61.745ZM240.358 61.745V59.945H238.754L238.57 61.5384L240.358 61.745ZM235.958 93.15V91.35H234.158V93.15H235.958ZM246.408 93.15H248.208V91.35H246.408V93.15ZM246.408 96.23V98.03H248.208V96.23H246.408ZM235.958 96.23H234.158V98.03H235.958V96.23ZM226.113 90.29H227.913V88.75H226.113H224.313V90.29H226.113ZM226.113 88.75L227.883 89.0792L234.758 52.1192L232.988 51.79L231.219 51.4609L224.344 88.4209L226.113 88.75ZM232.988 51.79L232.982 53.59L249.317 53.645L249.323 51.845L249.329 50.045L232.994 49.99L232.988 51.79ZM249.323 51.845L247.554 52.1747L254.429 89.0797L256.198 88.75L257.968 88.4204L251.093 51.5154L249.323 51.845ZM256.198 88.75H254.398V90.29H256.198H257.998V88.75H256.198ZM256.198 90.29V88.49H245.253V90.29V92.09H256.198V90.29ZM245.253 90.29L247.041 90.0821L246.216 82.9871L244.428 83.195L242.64 83.4029L243.465 90.4979L245.253 90.29ZM244.428 83.195V81.395H237.938V83.195V84.995H244.428V83.195ZM237.938 83.195L236.15 82.9871L235.325 90.0821L237.113 90.29L238.901 90.4979L239.726 83.4029L237.938 83.195ZM237.113 90.29V88.49H226.113V90.29V92.09H237.113V90.29ZM238.928 74.12V75.92H243.438V74.12V72.32H238.928V74.12ZM243.438 74.12L245.226 73.9134L243.796 61.5384L242.008 61.745L240.22 61.9517L241.65 74.3267L243.438 74.12ZM242.008 61.745V59.945H240.358V61.745V63.545H242.008V61.745ZM240.358 61.745L238.57 61.5384L237.14 73.9134L238.928 74.12L240.716 74.3267L242.146 61.9517L240.358 61.745ZM235.958 93.15V94.95H246.408V93.15V91.35H235.958V93.15ZM246.408 93.15H244.608V96.23H246.408H248.208V93.15H246.408ZM246.408 96.23V94.43H235.958V96.23V98.03H246.408V96.23ZM235.958 96.23H237.758V93.15H235.958H234.158V96.23H235.958ZM274.285 51.79V49.99H272.434L272.486 51.8406L274.285 51.79ZM284.46 51.79H286.26V49.99H284.46V51.79ZM284.46 90.29V92.09H286.26V90.29H284.46ZM274.395 90.29L272.694 90.879L273.114 92.09H274.395V90.29ZM268.51 73.295L270.211 72.7061L269.792 71.495H268.51V73.295ZM268.015 73.295V71.495H266.162L266.216 73.3474L268.015 73.295ZM268.51 90.29V92.09H270.363L270.309 90.2376L268.51 90.29ZM258.335 90.29H256.535V92.09H258.335V90.29ZM258.335 51.79V49.99H256.535V51.79H258.335ZM268.455 51.79L270.162 51.2192L269.751 49.99H268.455V51.79ZM274.34 69.39L272.633 69.9608L273.044 71.19H274.34V69.39ZM274.78 69.39V71.19H276.631L276.579 69.3394L274.78 69.39ZM274.285 51.79V53.59H284.46V51.79V49.99H274.285V51.79ZM284.46 51.79H282.66V90.29H284.46H286.26V51.79H284.46ZM284.46 90.29V88.49H274.395V90.29V92.09H284.46V90.29ZM274.395 90.29L276.096 89.701L270.211 72.7061L268.51 73.295L266.809 73.884L272.694 90.879L274.395 90.29ZM268.51 73.295V71.495H268.015V73.295V75.095H268.51V73.295ZM268.015 73.295L266.216 73.3474L266.711 90.3424L268.51 90.29L270.309 90.2376L269.814 73.2426L268.015 73.295ZM268.51 90.29V88.49H258.335V90.29V92.09H268.51V90.29ZM258.335 90.29H260.135V51.79H258.335H256.535V90.29H258.335ZM258.335 51.79V53.59H268.455V51.79V49.99H258.335V51.79ZM268.455 51.79L266.748 52.3608L272.633 69.9608L274.34 69.39L276.047 68.8192L270.162 51.2192L268.455 51.79ZM274.34 69.39V71.19H274.78V69.39V67.59H274.34V69.39ZM274.78 69.39L276.579 69.3394L276.084 51.7394L274.285 51.79L272.486 51.8406L272.981 69.4406L274.78 69.39ZM289.728 59.765L288.159 58.8826L288.155 58.8901L288.151 58.8976L289.728 59.765ZM296.273 53.275L295.46 51.6693L295.451 51.6738L296.273 53.275ZM310.188 51.68L309.783 53.4339L310.188 51.68ZM313.818 52.89L313.037 54.5118L313.049 54.5173L313.06 54.5227L313.818 52.89ZM316.018 54.32H317.818V53.6163L317.341 53.0991L316.018 54.32ZM316.018 64.935V66.735H317.818V64.935H316.018ZM314.808 64.935L313.163 65.6661L313.638 66.735H314.808V64.935ZM313.158 63.01L312.026 64.4091L312.041 64.4219L312.057 64.4344L313.158 63.01ZM310.408 61.47L309.72 63.1333L309.745 63.1435L309.77 63.153L310.408 61.47ZM302.158 61.91L301.284 60.3366L302.158 61.91ZM299.133 65.265L297.5 64.5082L297.492 64.5248L297.485 64.5415L299.133 65.265ZM299.023 76.815L297.336 77.4428L299.023 76.815ZM301.663 80.39L300.643 81.8733L300.654 81.8806L300.665 81.8877L301.663 80.39ZM306.063 81.6L307.336 80.3272L306.809 79.8H306.063V81.6ZM306.173 81.71L304.9 82.9828L305.201 83.2833L305.604 83.4177L306.173 81.71ZM306.558 81.6L307.638 83.04L308.358 82.5V81.6H306.558ZM306.558 75.605H308.358V73.805H306.558V75.605ZM301.168 75.605H299.368V77.405H301.168V75.605ZM301.168 66.53V64.73H299.368V66.53H301.168ZM316.018 66.53H317.818V64.73H316.018V66.53ZM316.018 86.385L317.291 87.6578L317.818 87.1306V86.385H316.018ZM310.573 89.85L311.161 91.5514L311.17 91.5483L311.178 91.5452L310.573 89.85ZM297.813 89.74L297.134 91.407L297.147 91.4124L297.161 91.4176L297.813 89.74ZM292.478 86.11L291.191 87.3681L292.478 86.11ZM288.683 79.95L286.994 80.5712L286.998 80.582L287.002 80.5929L288.683 79.95ZM287.308 71.04H289.108C289.108 66.6532 289.882 63.22 291.305 60.6325L289.728 59.765L288.151 58.8976C286.347 62.1767 285.508 66.2602 285.508 71.04H287.308ZM289.728 59.765L291.297 60.6475C292.792 57.9887 294.728 56.0919 297.095 54.8763L296.273 53.275L295.451 51.6738C292.391 53.2449 289.964 55.6747 288.159 58.8826L289.728 59.765ZM296.273 53.275L297.087 54.8807C299.567 53.624 302.31 52.985 305.348 52.985V51.185V49.385C301.786 49.385 298.479 50.1394 295.46 51.6694L296.273 53.275ZM305.348 51.185V52.985C307.038 52.985 308.512 53.1405 309.783 53.4339L310.188 51.68L310.593 49.9261C309.004 49.5596 307.252 49.385 305.348 49.385V51.185ZM310.188 51.68L309.783 53.4339C311.124 53.7433 312.2 54.1086 313.037 54.5118L313.818 52.89L314.599 51.2682C313.457 50.7182 312.112 50.2768 310.593 49.9261L310.188 51.68ZM313.818 52.89L313.06 54.5227C314.009 54.963 314.492 55.3204 314.695 55.5409L316.018 54.32L317.341 53.0991C316.664 52.3663 315.681 51.7704 314.576 51.2574L313.818 52.89ZM316.018 54.32H314.218V64.935H316.018H317.818V54.32H316.018ZM316.018 64.935V63.135H314.808V64.935V66.735H316.018V64.935ZM314.808 64.935L316.453 64.204C315.999 63.1823 315.21 62.3208 314.259 61.5857L313.158 63.01L312.057 64.4344C312.72 64.946 313.031 65.3678 313.163 65.6661L314.808 64.935ZM313.158 63.01L314.291 61.611C313.352 60.8511 312.263 60.2483 311.046 59.787L310.408 61.47L309.77 63.153C310.68 63.4984 311.424 63.9223 312.026 64.4091L313.158 63.01ZM310.408 61.47L311.096 59.8068C309.804 59.2719 308.432 59.01 306.998 59.01V60.81V62.61C307.984 62.61 308.886 62.7882 309.72 63.1333L310.408 61.47ZM306.998 60.81V59.01C304.864 59.01 302.933 59.4206 301.284 60.3366L302.158 61.91L303.032 63.4835C304.023 62.9328 305.318 62.61 306.998 62.61V60.81ZM302.158 61.91L301.284 60.3366C299.598 61.273 298.34 62.6946 297.5 64.5082L299.133 65.265L300.766 66.0219C301.319 64.8288 302.078 64.0137 303.032 63.4835L302.158 61.91ZM299.133 65.265L297.485 64.5415C296.69 66.3516 296.343 68.5661 296.343 71.095H298.143H299.943C299.943 68.8574 300.256 67.1851 300.781 65.9886L299.133 65.265ZM298.143 71.095H296.343C296.343 73.4795 296.655 75.6112 297.336 77.4428L299.023 76.815L300.71 76.1873C300.218 74.8656 299.943 73.1839 299.943 71.095H298.143ZM299.023 76.815L297.336 77.4428C298.028 79.3019 299.113 80.821 300.643 81.8733L301.663 80.39L302.683 78.9068C301.867 78.3458 301.192 77.4815 300.71 76.1873L299.023 76.815ZM301.663 80.39L300.665 81.8877C302.222 82.9257 304.051 83.4 306.063 83.4V81.6V79.8C304.628 79.8 303.525 79.4678 302.662 78.8923L301.663 80.39ZM306.063 81.6C304.79 82.8728 304.79 82.8728 304.79 82.8728C304.79 82.8728 304.79 82.8728 304.79 82.8728C304.79 82.8728 304.79 82.8728 304.79 82.8728C304.79 82.8728 304.79 82.8728 304.79 82.8728C304.79 82.8729 304.79 82.8728 304.79 82.8729C304.79 82.8729 304.79 82.8729 304.79 82.8729C304.79 82.8729 304.79 82.8729 304.79 82.8729C304.79 82.8729 304.79 82.8729 304.79 82.8729C304.79 82.8729 304.79 82.8729 304.79 82.8729C304.79 82.8729 304.79 82.8729 304.79 82.8729C304.79 82.873 304.79 82.873 304.791 82.8731C304.791 82.8733 304.79 82.873 304.791 82.8733C304.791 82.8735 304.791 82.8735 304.791 82.8738C304.792 82.8749 304.791 82.8734 304.792 82.8745C304.792 82.8746 304.792 82.8746 304.792 82.8746C304.792 82.8746 304.792 82.8746 304.792 82.8747C304.792 82.8747 304.792 82.8747 304.792 82.8747C304.792 82.8747 304.792 82.8748 304.792 82.8748C304.792 82.875 304.792 82.8747 304.792 82.875C304.793 82.8752 304.793 82.8753 304.793 82.8755C304.793 82.8755 304.793 82.8756 304.793 82.8756C304.793 82.8756 304.793 82.8756 304.793 82.8757C304.793 82.8757 304.793 82.8757 304.793 82.8757C304.793 82.8757 304.793 82.8758 304.793 82.8758C304.793 82.8759 304.793 82.876 304.794 82.8761C304.794 82.8763 304.794 82.8764 304.794 82.8767C304.798 82.881 304.793 82.8751 304.797 82.8797C304.797 82.8797 304.797 82.8798 304.797 82.8798C304.797 82.8798 304.797 82.8799 304.797 82.8799C304.797 82.88 304.798 82.88 304.798 82.8801C304.798 82.8804 304.798 82.8803 304.798 82.8806C304.798 82.8806 304.798 82.8807 304.798 82.8807C304.798 82.8807 304.798 82.8808 304.798 82.8808C304.798 82.8809 304.798 82.8809 304.798 82.8809C304.798 82.881 304.798 82.881 304.799 82.8811C304.799 82.8817 304.798 82.8809 304.799 82.8815C304.799 82.8816 304.799 82.8817 304.799 82.8818C304.799 82.8818 304.799 82.8819 304.799 82.8819C304.799 82.8819 304.799 82.882 304.799 82.882C304.8 82.8821 304.8 82.8822 304.8 82.8823C304.8 82.8825 304.8 82.8823 304.8 82.8825C304.801 82.8831 304.8 82.8825 304.801 82.883C304.801 82.8831 304.801 82.8832 304.801 82.8833C304.801 82.8833 304.801 82.8836 304.801 82.8836C304.805 82.8874 304.802 82.8842 304.806 82.8883C304.812 82.8947 304.805 82.8872 304.811 82.8939C304.813 82.8952 304.813 82.8956 304.814 82.897C304.817 82.8992 304.816 82.898 304.818 82.9003C304.818 82.9005 304.818 82.9006 304.818 82.9008C304.818 82.9008 304.818 82.9009 304.818 82.901C304.819 82.9011 304.819 82.9011 304.819 82.9012C304.819 82.9014 304.819 82.9019 304.82 82.9021C304.821 82.9033 304.82 82.9027 304.821 82.9039C304.822 82.9047 304.824 82.9068 304.825 82.9076C304.827 82.9094 304.827 82.9098 304.829 82.9116C304.83 82.9125 304.83 82.9128 304.831 82.9137C304.833 82.9156 304.831 82.9139 304.833 82.9158C304.849 82.9311 304.836 82.9183 304.852 82.9347C304.878 82.9603 304.848 82.9303 304.875 82.9571C304.877 82.9591 304.876 82.9581 304.878 82.9601C304.878 82.9602 304.878 82.9603 304.878 82.9605C304.878 82.9606 304.878 82.9607 304.878 82.9608C304.878 82.961 304.879 82.9611 304.879 82.9612C304.879 82.9614 304.879 82.9615 304.879 82.9616C304.879 82.9617 304.881 82.9631 304.881 82.9632C304.882 82.9646 304.881 82.9633 304.882 82.9647C304.882 82.9649 304.882 82.965 304.883 82.9651C304.883 82.9653 304.883 82.9654 304.883 82.9655C304.883 82.9657 304.883 82.9658 304.883 82.9659C304.884 82.966 304.884 82.9662 304.884 82.9663C304.884 82.967 304.884 82.9664 304.885 82.9671C304.885 82.968 304.884 82.967 304.885 82.9679C304.885 82.9679 304.886 82.9687 304.886 82.9687C304.886 82.9688 304.886 82.969 304.887 82.9691C304.887 82.9692 304.887 82.9694 304.887 82.9695C304.891 82.9739 304.889 82.9716 304.894 82.9761C304.894 82.9761 304.897 82.9794 304.897 82.9794C304.899 82.9817 304.896 82.9788 304.899 82.9811C304.899 82.9815 304.899 82.9816 304.899 82.982C304.9 82.9821 304.9 82.9823 304.9 82.9824C304.9 82.9825 304.9 82.9827 304.9 82.9828L306.173 81.71L307.446 80.4372C307.417 80.4087 307.374 80.3649 307.363 80.3547C307.356 80.3476 307.345 80.3367 307.343 80.3341C307.341 80.3328 307.338 80.3291 307.338 80.329C307.337 80.3286 307.336 80.3277 307.336 80.3277C307.336 80.3275 307.336 80.3274 307.336 80.3274C307.336 80.3273 307.336 80.3273 307.336 80.3273C307.336 80.3273 307.336 80.3273 307.336 80.3273C307.336 80.3273 307.336 80.3273 307.336 80.3273C307.336 80.3273 307.336 80.3273 307.336 80.3273C307.336 80.3273 307.336 80.3273 307.336 80.3273L307.336 80.3272C307.336 80.3272 307.336 80.3272 306.063 81.6ZM306.173 81.71L305.604 83.4177C306.542 83.7302 307.301 83.2926 307.638 83.04L306.558 81.6L305.478 80.16C305.522 80.1275 306.025 79.7632 306.742 80.0024L306.173 81.71ZM306.558 81.6H308.358V75.605H306.558H304.758V81.6H306.558ZM306.558 75.605V73.805H301.168V75.605V77.405H306.558V75.605ZM301.168 75.605H302.968V66.53H301.168H299.368V75.605H301.168ZM301.168 66.53V68.33H316.018V66.53V64.73H301.168V66.53ZM316.018 66.53H314.218V86.385H316.018H317.818V66.53H316.018ZM316.018 86.385L314.745 85.1122C313.353 86.5049 311.764 87.5133 309.968 88.1549L310.573 89.85L311.178 91.5452C313.489 90.7201 315.53 89.4185 317.291 87.6578L316.018 86.385ZM310.573 89.85L309.985 88.1487C308.179 88.7729 306.18 89.095 303.973 89.095V90.895V92.695C306.533 92.695 308.934 92.3205 311.161 91.5514L310.573 89.85ZM303.973 90.895V89.095C302.069 89.095 300.237 88.7515 298.465 88.0624L297.813 89.74L297.161 91.4176C299.349 92.2686 301.623 92.695 303.973 92.695V90.895ZM297.813 89.74L298.492 88.0731C296.753 87.3646 295.179 86.2986 293.765 84.852L292.478 86.11L291.191 87.3681C292.93 89.1481 294.913 90.5021 297.134 91.407L297.813 89.74ZM292.478 86.11L293.765 84.852C292.389 83.4438 291.246 81.6122 290.364 79.3072L288.683 79.95L287.002 80.5929C288.027 83.2746 289.414 85.5496 291.191 87.3681L292.478 86.11ZM288.683 79.95L290.373 79.3289C289.547 77.0838 289.108 74.3346 289.108 71.04H287.308H285.508C285.508 74.6388 285.986 77.8296 286.994 80.5712L288.683 79.95Z" fill="#752602" mask="url(#path-5-outside-1_5_544)"/>
<defs>
<linearGradient id="paint0_linear_5_544" x1="209.14" y1="2.08" x2="209.14" y2="132.36" gradientUnits="userSpaceOnUse">
<stop offset="0.25" stop-color="#D2943D"/>
<stop offset="1" stop-color="#A56D3C"/>
</linearGradient>
<linearGradient id="paint1_linear_5_544" x1="209.5" y1="13.55" x2="208.78" y2="119.18" gradientUnits="userSpaceOnUse">
<stop offset="0.25" stop-color="#F9D100"/>
<stop offset="1" stop-color="#E28E29"/>
</linearGradient>
<linearGradient id="paint2_linear_5_544" x1="21.91" y1="18.21" x2="399.21" y2="18.21" gradientUnits="userSpaceOnUse">
<stop offset="0.11" stop-color="#F2A927"/>
<stop offset="1" stop-color="#DF9A00"/>
</linearGradient>
</defs>
</svg>
