<svg width="120" height="120" viewBox="0 0 120 120" fill="none" xmlns="http://www.w3.org/2000/svg">
<g clip-path="url(#clip0_419_365)">
<path d="M114.056 120H5.94398C2.66109 120 0 117.339 0 114.056V5.94398C0 2.66109 2.66109 0 5.94398 0H114.056C117.339 0 120 2.66109 120 5.94398V114.056C120 117.339 117.339 120 114.056 120Z" fill="url(#paint0_linear_419_365)"/>
<path d="M0 58.0303V114.056C0 117.339 2.66109 120 5.94398 120H114.056C117.339 120 120 117.339 120 114.056V58.0303H0Z" fill="url(#paint1_linear_419_365)"/>
<path d="M58.0303 120H114.056C117.339 120 120 117.339 120 114.056V5.94398C120 2.66109 117.339 0 114.056 0H58.0303V120Z" fill="url(#paint2_linear_419_365)"/>
<path d="M106.058 21.8704H13.9424C11.8495 21.8704 10.1528 20.1737 10.1528 18.0808V11.7852C10.1528 9.69225 11.8495 7.99561 13.9424 7.99561H106.058C108.151 7.99561 109.848 9.69225 109.848 11.7852V18.0808C109.848 20.1737 108.151 21.8704 106.058 21.8704Z" fill="url(#paint3_linear_419_365)"/>
<path d="M106.058 21.8704H13.9424C11.8495 21.8704 10.1528 20.1737 10.1528 18.0808V11.7852C10.1528 9.69225 11.8495 7.99561 13.9424 7.99561H106.058C108.151 7.99561 109.848 9.69225 109.848 11.7852V18.0808C109.848 20.1737 108.151 21.8704 106.058 21.8704Z" fill="url(#paint4_linear_419_365)"/>
<path d="M41.3327 7.99561H13.9424C11.8495 7.99561 10.1528 9.69225 10.1528 11.7852V18.0808C10.1528 20.1737 11.8495 21.8704 13.9424 21.8704H41.3329V7.99561H41.3327Z" fill="url(#paint5_linear_419_365)"/>
<path d="M93.8492 56.171C101.434 56.171 107.583 50.0223 107.583 42.4375C107.583 34.8528 101.434 28.7041 93.8492 28.7041C86.2644 28.7041 80.1157 34.8528 80.1157 42.4375C80.1157 50.0223 86.2644 56.171 93.8492 56.171Z" fill="url(#paint6_linear_419_365)"/>
<path d="M80.1157 42.4374C80.1157 50.022 86.2643 56.1709 93.8492 56.1709C101.434 56.1709 107.583 50.0223 107.583 42.4374C107.583 40.7947 107.293 39.2199 106.764 37.7598H80.9342C80.4052 39.2199 80.1157 40.7947 80.1157 42.4374Z" fill="url(#paint7_linear_419_365)"/>
<path d="M84.1382 52.1483C89.5014 57.5115 98.197 57.5115 103.56 52.1483C108.923 46.7851 108.923 38.0896 103.56 32.7264C102.399 31.5648 101.081 30.6559 99.674 29.9976L81.4092 48.2624C82.0675 49.6687 82.9767 50.9868 84.1382 52.1483Z" fill="url(#paint8_linear_419_365)"/>
<path d="M93.5738 86.0904C101.159 86.0904 107.307 79.9417 107.307 72.357C107.307 64.7722 101.159 58.6235 93.5738 58.6235C85.989 58.6235 79.8403 64.7722 79.8403 72.357C79.8403 79.9417 85.989 86.0904 93.5738 86.0904Z" fill="url(#paint9_linear_419_365)"/>
<path d="M79.8403 72.3569C79.8403 79.9415 85.9889 86.0903 93.5738 86.0903C101.159 86.0903 107.307 79.9417 107.307 72.3569C107.307 70.7141 107.018 69.1394 106.489 67.6792H80.6585C80.1296 69.1394 79.8403 70.7141 79.8403 72.3569Z" fill="url(#paint10_linear_419_365)"/>
<path d="M83.8628 82.0678C89.2261 87.431 97.9216 87.431 103.285 82.0678C108.648 76.7046 108.648 68.009 103.285 62.6458C102.123 61.4843 100.805 60.5754 99.3986 59.917L81.1338 78.1818C81.7924 79.5881 82.7013 80.9062 83.8628 82.0678Z" fill="url(#paint11_linear_419_365)"/>
<path d="M93.8492 116.658C101.434 116.658 107.583 110.51 107.583 102.925C107.583 95.3401 101.434 89.1914 93.8492 89.1914C86.2644 89.1914 80.1157 95.3401 80.1157 102.925C80.1157 110.51 86.2644 116.658 93.8492 116.658Z" fill="url(#paint12_linear_419_365)"/>
<path d="M80.1157 102.925C80.1157 110.509 86.2643 116.658 93.8492 116.658C101.434 116.658 107.583 110.51 107.583 102.925C107.583 101.282 107.293 99.7072 106.764 98.2471H80.9342C80.4052 99.7072 80.1157 101.282 80.1157 102.925Z" fill="url(#paint13_linear_419_365)"/>
<path d="M84.1382 112.636C89.5014 117.999 98.197 117.999 103.56 112.636C108.923 107.272 108.923 98.5769 103.56 93.2137C102.399 92.0521 101.081 91.1432 99.674 90.4849L81.4092 108.75C82.0675 110.156 82.9767 111.474 84.1382 112.636Z" fill="url(#paint14_linear_419_365)"/>
<path d="M15.4901 53.9221C15.162 53.9221 14.8191 53.871 14.4605 53.7686C14.1019 53.6661 13.7696 53.5281 13.4621 53.3535C13.1546 53.18 12.9036 52.975 12.709 52.7389C12.514 52.5041 12.4175 52.2425 12.4175 51.9554C12.4175 51.894 12.4374 51.7815 12.4784 51.6175L18.1944 32.8724C18.3577 32.3394 18.7423 31.9403 19.3463 31.6733C19.9508 31.4073 20.6115 31.2744 21.3289 31.2744C22.0458 31.2744 22.7065 31.4073 23.3105 31.6733C23.9145 31.9405 24.2991 32.3394 24.4632 32.8724L30.2096 51.6175C30.2506 51.7815 30.2717 51.894 30.2717 51.9554C30.2717 52.2425 30.1742 52.5041 29.9792 52.7389C29.7847 52.975 29.5337 53.18 29.2266 53.3535C28.9196 53.5281 28.5861 53.6659 28.2282 53.7686C27.8691 53.871 27.526 53.9221 27.1986 53.9221C26.809 53.9221 26.476 53.8562 26.2001 53.7219C25.9231 53.589 25.7335 53.3584 25.6315 53.031L24.5865 49.1891H18.1022L17.0572 53.031C16.9547 53.3584 16.7651 53.589 16.4893 53.7219C16.2122 53.8562 15.8792 53.9221 15.4901 53.9221ZM23.5721 45.5021L21.3289 37.2667L19.0857 45.5021H23.5721Z" fill="url(#paint15_linear_419_365)"/>
<path d="M13.9534 62.6002C13.9534 62.1082 14.1683 61.7395 14.5984 61.4941C15.0289 61.248 15.5105 61.125 16.043 61.125H22.343C23.1005 61.125 23.8487 61.207 24.5863 61.3711C25.3238 61.5352 25.9848 61.8216 26.5684 62.231C27.152 62.6412 27.6179 63.199 27.9664 63.9056C28.3145 64.6127 28.4891 65.5092 28.4891 66.5948C28.4891 67.8443 28.2584 68.8739 27.7981 69.683C27.3371 70.4932 26.6966 71.0716 25.877 71.4197C26.3485 71.6037 26.7786 71.8186 27.1674 72.0647C27.5565 72.3108 27.89 72.6232 28.1659 73.0022C28.4429 73.3812 28.6578 73.8422 28.812 74.3852C28.9651 74.9283 29.042 75.5789 29.042 76.3364V76.9819C29.042 78.1905 28.8828 79.215 28.5659 80.0545C28.2479 80.8952 27.8129 81.5756 27.2598 82.0983C26.7062 82.6209 26.0506 82.9999 25.2931 83.2355C24.5352 83.471 23.7261 83.5884 22.865 83.5884H16.0428C15.3873 83.5884 14.8752 83.4455 14.5063 83.1584C14.1378 82.872 13.9531 82.5337 13.9531 82.1442L13.9534 62.6002ZM18.7166 69.5756H21.9432C22.5366 69.5756 22.9777 69.3562 23.2648 68.9152C23.5508 68.4752 23.6949 67.9887 23.6949 67.4555C23.6949 66.923 23.5508 66.4315 23.2648 65.9803C22.9777 65.5298 22.5366 65.3044 21.9432 65.3044H18.7166V69.5756ZM21.7899 79.4093C22.5678 79.4093 23.1725 79.1843 23.603 78.7334C24.0331 78.2834 24.248 77.5657 24.248 76.5823V76.0908C24.248 75.0462 24.0331 74.3137 23.603 73.8937C23.1725 73.4737 22.568 73.2637 21.7899 73.2637H18.7166V79.4095L21.7899 79.4093Z" fill="url(#paint16_linear_419_365)"/>
<path d="M24.0022 98.3847C24.0022 98.1804 23.9818 97.9237 23.9412 97.6162C23.8998 97.3092 23.7873 97.0073 23.6033 96.7096C23.4181 96.4132 23.1467 96.1565 22.7886 95.9416C22.4295 95.7267 21.923 95.6191 21.2675 95.6191C20.3858 95.6191 19.7049 95.8701 19.2238 96.3717C18.7421 96.8742 18.5016 97.6474 18.5016 98.6925V106.836C18.5016 107.881 18.7421 108.654 19.2238 109.156C19.7047 109.658 20.3963 109.909 21.298 109.909C21.913 109.909 22.3941 109.806 22.742 109.601C23.0905 109.397 23.357 109.141 23.5409 108.833C23.7261 108.526 23.8435 108.193 23.8944 107.835C23.9455 107.477 23.9813 107.143 24.002 106.836C24.043 106.263 24.294 105.879 24.755 105.684C25.216 105.489 25.7541 105.392 26.368 105.392C27.208 105.392 27.8225 105.541 28.212 105.837C28.6011 106.135 28.7961 106.744 28.7961 107.666C28.7961 108.69 28.6011 109.601 28.212 110.4C27.8225 111.199 27.2795 111.871 26.5829 112.413C25.8868 112.957 25.0723 113.372 24.1402 113.658C23.2077 113.944 22.1886 114.088 21.0826 114.088C20.0785 114.088 19.1309 113.96 18.2398 113.704C17.3487 113.448 16.5652 113.028 15.8893 112.444C15.2134 111.86 14.6802 111.113 14.2911 110.201C13.902 109.29 13.707 108.168 13.707 106.836V98.6927C13.707 97.3816 13.902 96.2646 14.2911 95.343C14.6802 94.421 15.2131 93.6679 15.8893 93.0843C16.5652 92.5003 17.349 92.0807 18.2398 91.8243C19.1309 91.5684 20.0785 91.4404 21.0826 91.4404C22.1886 91.4404 23.2077 91.574 24.1402 91.84C25.0723 92.1065 25.8868 92.5005 26.5829 93.0232C27.2795 93.5451 27.8225 94.1857 28.212 94.9439C28.6011 95.7018 28.7961 96.5725 28.7961 97.556C28.7961 98.478 28.6011 99.0876 28.212 99.3846C27.8225 99.6815 27.2178 99.8301 26.3989 99.8301C25.7429 99.8301 25.1898 99.7277 24.7398 99.5226C24.2893 99.3173 24.0432 98.9379 24.0022 98.3847Z" fill="url(#paint17_linear_419_365)"/>
<path d="M34.5154 102.623L74.7442 77.3462C75.0172 77.1746 75.1829 76.8748 75.1829 76.5523C75.1829 75.815 74.3708 75.3662 73.7467 75.7585L33.5179 101.036C33.2448 101.207 33.0791 101.507 33.0791 101.83C33.0789 102.567 33.891 103.016 34.5154 102.623Z" fill="url(#paint18_linear_419_365)"/>
<path d="M34.5154 72.0561L74.7442 46.7788C75.0172 46.6072 75.1829 46.3074 75.1829 45.9849C75.1829 45.2476 74.3708 44.7988 73.7467 45.1911L33.5179 70.4685C33.2448 70.64 33.0791 70.9398 33.0791 71.2623C33.0789 71.9996 33.891 72.4485 34.5154 72.0561Z" fill="url(#paint19_linear_419_365)"/>
<path d="M75.5054 102.992L31.258 44.1422C31.0641 43.8844 31.0166 43.5452 31.1316 43.2441C31.3951 42.5552 32.3136 42.4261 32.7568 43.0155L77.004 101.865C77.1978 102.123 77.2454 102.462 77.1303 102.763C76.8671 103.452 75.9484 103.581 75.5054 102.992Z" fill="url(#paint20_linear_419_365)"/>
</g>
<defs>
<linearGradient id="paint0_linear_419_365" x1="5.04961" y1="5.04961" x2="101.273" y2="101.273" gradientUnits="userSpaceOnUse">
<stop stop-color="#F5FBFF"/>
<stop offset="1" stop-color="#D8ECFE"/>
</linearGradient>
<linearGradient id="paint1_linear_419_365" x1="60" y1="110.14" x2="60" y2="119.663" gradientUnits="userSpaceOnUse">
<stop stop-color="#B3DAFE" stop-opacity="0"/>
<stop offset="0.4315" stop-color="#B1D9FE" stop-opacity="0.432"/>
<stop offset="0.6657" stop-color="#A9D6FE" stop-opacity="0.666"/>
<stop offset="0.852" stop-color="#9BD0FE" stop-opacity="0.852"/>
<stop offset="1" stop-color="#8AC9FE"/>
</linearGradient>
<linearGradient id="paint2_linear_419_365" x1="110.14" y1="60" x2="119.663" y2="60" gradientUnits="userSpaceOnUse">
<stop stop-color="#B3DAFE" stop-opacity="0"/>
<stop offset="0.4315" stop-color="#B1D9FE" stop-opacity="0.432"/>
<stop offset="0.6657" stop-color="#A9D6FE" stop-opacity="0.666"/>
<stop offset="0.852" stop-color="#9BD0FE" stop-opacity="0.852"/>
<stop offset="1" stop-color="#8AC9FE"/>
</linearGradient>
<linearGradient id="paint3_linear_419_365" x1="60.0002" y1="9.83428" x2="60.0002" y2="23.709" gradientUnits="userSpaceOnUse">
<stop stop-color="#C9F6B0"/>
<stop offset="1" stop-color="#0BB494"/>
</linearGradient>
<linearGradient id="paint4_linear_419_365" x1="60.0002" y1="15.8577" x2="60.0002" y2="7.72279" gradientUnits="userSpaceOnUse">
<stop stop-color="#00A887" stop-opacity="0"/>
<stop offset="0.3602" stop-color="#01A58C" stop-opacity="0.36"/>
<stop offset="0.7945" stop-color="#069C9A" stop-opacity="0.795"/>
<stop offset="1" stop-color="#0996A4"/>
</linearGradient>
<linearGradient id="paint5_linear_419_365" x1="21.3386" y1="14.9331" x2="8.40275" y2="14.9331" gradientUnits="userSpaceOnUse">
<stop stop-color="#00A887" stop-opacity="0"/>
<stop offset="0.3602" stop-color="#01A58C" stop-opacity="0.36"/>
<stop offset="0.7945" stop-color="#069C9A" stop-opacity="0.795"/>
<stop offset="1" stop-color="#0996A4"/>
</linearGradient>
<linearGradient id="paint6_linear_419_365" x1="86.7038" y1="35.2921" x2="98.8976" y2="47.486" gradientUnits="userSpaceOnUse">
<stop stop-color="#FE646F"/>
<stop offset="1" stop-color="#E41F2D"/>
</linearGradient>
<linearGradient id="paint7_linear_419_365" x1="93.8492" y1="41.375" x2="93.8492" y2="55.4063" gradientUnits="userSpaceOnUse">
<stop stop-color="#C41926" stop-opacity="0"/>
<stop offset="0.294" stop-color="#C21A26" stop-opacity="0.294"/>
<stop offset="0.4746" stop-color="#B91C28" stop-opacity="0.475"/>
<stop offset="0.6245" stop-color="#AB202A" stop-opacity="0.625"/>
<stop offset="0.7577" stop-color="#96252D" stop-opacity="0.758"/>
<stop offset="0.8789" stop-color="#7C2D31" stop-opacity="0.879"/>
<stop offset="0.9913" stop-color="#5C3536" stop-opacity="0.991"/>
<stop offset="1" stop-color="#593636"/>
</linearGradient>
<linearGradient id="paint8_linear_419_365" x1="93.8524" y1="42.4405" x2="104.901" y2="53.4897" gradientUnits="userSpaceOnUse">
<stop stop-color="#C41926" stop-opacity="0"/>
<stop offset="0.294" stop-color="#C21A26" stop-opacity="0.294"/>
<stop offset="0.4746" stop-color="#B91C28" stop-opacity="0.475"/>
<stop offset="0.6245" stop-color="#AB202A" stop-opacity="0.625"/>
<stop offset="0.7577" stop-color="#96252D" stop-opacity="0.758"/>
<stop offset="0.8789" stop-color="#7C2D31" stop-opacity="0.879"/>
<stop offset="0.9913" stop-color="#5C3536" stop-opacity="0.991"/>
<stop offset="1" stop-color="#593636"/>
</linearGradient>
<linearGradient id="paint9_linear_419_365" x1="86.4284" y1="65.2116" x2="98.6222" y2="77.4054" gradientUnits="userSpaceOnUse">
<stop stop-color="#FEF0AE"/>
<stop offset="1" stop-color="#FAC600"/>
</linearGradient>
<linearGradient id="paint10_linear_419_365" x1="93.5738" y1="71.2944" x2="93.5738" y2="85.3258" gradientUnits="userSpaceOnUse">
<stop stop-color="#FE9738" stop-opacity="0"/>
<stop offset="1" stop-color="#FE9738"/>
</linearGradient>
<linearGradient id="paint11_linear_419_365" x1="93.577" y1="72.36" x2="104.626" y2="83.4091" gradientUnits="userSpaceOnUse">
<stop stop-color="#FE9738" stop-opacity="0"/>
<stop offset="1" stop-color="#FE9738"/>
</linearGradient>
<linearGradient id="paint12_linear_419_365" x1="86.7038" y1="95.7795" x2="98.8976" y2="107.973" gradientUnits="userSpaceOnUse">
<stop stop-color="#B3DAFE"/>
<stop offset="1" stop-color="#0182FC"/>
</linearGradient>
<linearGradient id="paint13_linear_419_365" x1="93.8492" y1="101.862" x2="93.8492" y2="115.894" gradientUnits="userSpaceOnUse">
<stop stop-color="#314DC9" stop-opacity="0"/>
<stop offset="0.2761" stop-color="#304BC4" stop-opacity="0.276"/>
<stop offset="0.5628" stop-color="#2B45B8" stop-opacity="0.563"/>
<stop offset="0.8535" stop-color="#243BA3" stop-opacity="0.854"/>
<stop offset="1" stop-color="#1F3596"/>
</linearGradient>
<linearGradient id="paint14_linear_419_365" x1="93.8524" y1="102.928" x2="104.901" y2="113.977" gradientUnits="userSpaceOnUse">
<stop stop-color="#314DC9" stop-opacity="0"/>
<stop offset="0.2761" stop-color="#304BC4" stop-opacity="0.276"/>
<stop offset="0.5628" stop-color="#2B45B8" stop-opacity="0.563"/>
<stop offset="0.8535" stop-color="#243BA3" stop-opacity="0.854"/>
<stop offset="1" stop-color="#1F3596"/>
</linearGradient>
<linearGradient id="paint15_linear_419_365" x1="12.4175" y1="42.5982" x2="30.2715" y2="42.5982" gradientUnits="userSpaceOnUse">
<stop stop-color="#B3DAFE"/>
<stop offset="1" stop-color="#0182FC"/>
</linearGradient>
<linearGradient id="paint16_linear_419_365" x1="13.9534" y1="72.357" x2="29.0417" y2="72.357" gradientUnits="userSpaceOnUse">
<stop stop-color="#FE646F"/>
<stop offset="1" stop-color="#E41F2D"/>
</linearGradient>
<linearGradient id="paint17_linear_419_365" x1="13.7075" y1="102.764" x2="28.7966" y2="102.764" gradientUnits="userSpaceOnUse">
<stop stop-color="#FEF0AE"/>
<stop offset="1" stop-color="#FAC600"/>
</linearGradient>
<linearGradient id="paint18_linear_419_365" x1="72.1496" y1="92.6129" x2="36.1121" y2="85.7691" gradientUnits="userSpaceOnUse">
<stop stop-color="#5A5A5A"/>
<stop offset="1" stop-color="#444444"/>
</linearGradient>
<linearGradient id="paint19_linear_419_365" x1="72.1496" y1="62.0455" x2="36.1121" y2="55.2017" gradientUnits="userSpaceOnUse">
<stop stop-color="#5A5A5A"/>
<stop offset="1" stop-color="#444444"/>
</linearGradient>
<linearGradient id="paint20_linear_419_365" x1="26.6751" y1="68.0812" x2="81.6129" y2="77.9314" gradientUnits="userSpaceOnUse">
<stop stop-color="#5A5A5A"/>
<stop offset="1" stop-color="#444444"/>
</linearGradient>
<clipPath id="clip0_419_365">
<rect width="120" height="120" fill="white"/>
</clipPath>
</defs>
</svg>
