<svg width="78" height="80" viewBox="0 0 78 80" fill="none" xmlns="http://www.w3.org/2000/svg">
<g clip-path="url(#clip0_253_6736)">
<path d="M39.129 79.0206C60.5509 79.0206 77.9838 61.9479 77.9838 40.9582C77.9838 19.9684 60.5509 2.88672 39.129 2.88672C17.7071 2.88672 0.27417 19.9684 0.27417 40.9491C0.27417 61.9299 17.7071 79.0116 39.129 79.0116V79.0206Z" fill="#8F4500"/>
<path d="M38.3456 74.7524C59.3353 74.7524 76.417 57.9948 76.417 37.3923C76.417 16.7898 59.3443 0.0322266 38.3456 0.0322266C17.3469 0.0322266 0.27417 16.7898 0.27417 37.3923C0.27417 57.9948 17.3559 74.7524 38.3456 74.7524Z" fill="#D77A00"/>
<path d="M38.3456 66.4773C54.4087 66.4773 67.4305 53.4556 67.4305 37.3925C67.4305 21.3294 54.4087 8.30762 38.3456 8.30762C22.2825 8.30762 9.26074 21.3294 9.26074 37.3925C9.26074 53.4556 22.2825 66.4773 38.3456 66.4773Z" fill="white"/>
<path d="M38.3456 63.2803C52.6433 63.2803 64.2338 51.6898 64.2338 37.3921C64.2338 23.0945 52.6433 11.5039 38.3456 11.5039C24.0479 11.5039 12.4574 23.0945 12.4574 37.3921C12.4574 51.6898 24.0479 63.2803 38.3456 63.2803Z" fill="#8C6437"/>
<path d="M38.3456 63.2803C52.6433 63.2803 64.2338 51.6898 64.2338 37.3921C64.2338 23.0945 52.6433 11.5039 38.3456 11.5039C24.0479 11.5039 12.4574 23.0945 12.4574 37.3921C12.4574 51.6898 24.0479 63.2803 38.3456 63.2803Z" fill="#8C6437"/>
<g opacity="0.3">
<path d="M38.3456 12.6657C52.4468 12.6657 63.9186 23.9395 64.2248 37.9686C64.2248 37.7795 64.2248 37.5814 64.2248 37.3833C64.2248 23.084 52.6359 11.4951 38.3366 11.4951C24.0373 11.4951 12.4484 23.084 12.4484 37.3833C12.4484 37.5814 12.4484 37.7705 12.4484 37.9686C12.7545 23.9395 24.2264 12.6657 38.3276 12.6657H38.3456Z" fill="black"/>
</g>
<g opacity="0.3">
<path d="M38.3456 62.1188C52.4468 62.1188 63.9186 50.8451 64.2248 36.8159C64.2248 37.005 64.2248 37.2031 64.2248 37.4012C64.2248 51.7005 52.6359 63.2894 38.3366 63.2894C24.0373 63.2894 12.4484 51.7005 12.4484 37.4012C12.4484 37.2031 12.4484 37.014 12.4484 36.8159C12.7545 50.8451 24.2264 62.1188 38.3276 62.1188H38.3456Z" fill="url(#paint0_linear_253_6736)"/>
</g>
<path d="M38.3456 60.5793C25.559 60.5793 15.1677 50.179 15.1677 37.4015C15.1677 24.6239 25.568 14.2236 38.3456 14.2236C51.1231 14.2236 61.5234 24.6239 61.5234 37.4015C61.5234 50.179 51.1231 60.5793 38.3456 60.5793Z" fill="#C12924"/>
<path d="M38.3455 57.1573C25.559 57.1573 15.9691 47.6664 15.9691 35.7804C15.9691 23.8943 25.559 14.2144 38.3455 14.2144C51.1321 14.2144 60.722 23.8853 60.722 35.7804C60.722 47.6754 51.1321 57.1573 38.3455 57.1573Z" fill="url(#paint1_linear_253_6736)"/>
<g opacity="0.75">
<path d="M38.5797 41.3094C47.2692 41.3094 55.0942 38.4279 60.623 33.7996C59.6235 22.832 50.4118 14.2056 38.3456 14.2056C26.2794 14.2056 17.2658 22.6339 16.1042 33.4304C21.6511 38.2659 29.6742 41.3094 38.5797 41.3094Z" fill="url(#paint2_linear_253_6736)"/>
</g>
<g opacity="0.8">
<g opacity="0.4">
<path d="M49.7904 18.3295C54.4008 20.5627 57.2552 24.2816 56.1567 26.6318C55.0581 28.982 50.4387 29.081 45.8194 26.8479C41.209 24.6147 38.3546 20.8958 39.4531 18.5456C40.5517 16.1954 45.1711 16.0964 49.7904 18.3295Z" fill="white"/>
</g>
<path opacity="0.4" d="M59.2093 31.2331C59.2093 32.7368 58.0207 33.9524 56.5439 33.9524C55.0671 33.9524 53.8785 32.7368 53.8785 31.2331C53.8785 29.7293 55.0671 28.5137 56.5439 28.5137C58.0207 28.5137 59.2093 29.7293 59.2093 31.2331Z" fill="white"/>
</g>
<path d="M43.7574 46.9823C42.6769 46.9823 41.6594 46.5591 40.894 45.7937L36.4997 41.3995L32.1055 45.7937C31.3401 46.5591 30.3226 46.9823 29.242 46.9823C28.1615 46.9823 27.1439 46.5591 26.3785 45.7937C25.6132 45.0283 25.1899 44.0108 25.1899 42.9303C25.1899 41.8497 25.6132 40.8322 26.3785 40.0668L30.7728 35.6726L26.3785 31.2783C25.6132 30.5129 25.1899 29.4954 25.1899 28.4149C25.1899 27.3343 25.6132 26.3168 26.3785 25.5514C27.1439 24.786 28.1615 24.3628 29.242 24.3628C30.3226 24.3628 31.3401 24.786 32.1055 25.5514L36.4997 29.9456L40.894 25.5514C41.6594 24.786 42.6769 24.3628 43.7574 24.3628C44.838 24.3628 45.8555 24.786 46.6209 25.5514C47.3863 26.3168 47.8095 27.3343 47.8095 28.4149C47.8095 29.4954 47.3863 30.5129 46.6209 31.2783L42.2266 35.6726L46.6209 40.0668C47.3863 40.8322 47.8095 41.8497 47.8095 42.9303C47.8095 44.0108 47.3863 45.0283 46.6209 45.7937C45.8555 46.5591 44.838 46.9823 43.7574 46.9823Z" fill="#C12924"/>
<path d="M30.1515 29.3335L44.6579 43.8399" stroke="white" stroke-width="8.66" stroke-linecap="round" stroke-linejoin="round"/>
<path d="M44.6579 29.3335L30.1515 43.8399" stroke="white" stroke-width="8.66" stroke-linecap="round" stroke-linejoin="round"/>
</g>
<defs>
<linearGradient id="paint0_linear_253_6736" x1="38.3456" y1="63.2264" x2="38.3456" y2="36.8339" gradientUnits="userSpaceOnUse">
<stop stop-color="white"/>
<stop offset="1" stop-color="white" stop-opacity="0.2"/>
</linearGradient>
<linearGradient id="paint1_linear_253_6736" x1="38.3455" y1="32.5837" x2="38.3455" y2="72.9423" gradientUnits="userSpaceOnUse">
<stop offset="0.27" stop-color="#FF1D29"/>
<stop offset="0.85" stop-color="#EF150F"/>
</linearGradient>
<linearGradient id="paint2_linear_253_6736" x1="38.3636" y1="4.13843" x2="38.3636" y2="40.2739" gradientUnits="userSpaceOnUse">
<stop offset="0.18" stop-color="white"/>
<stop offset="0.77" stop-color="white" stop-opacity="0.2"/>
</linearGradient>
<clipPath id="clip0_253_6736">
<rect width="77.7097" height="78.9883" fill="white" transform="translate(0.27417 0.0322266)"/>
</clipPath>
</defs>
</svg>
