<svg width="254" height="61" viewBox="0 0 254 61" fill="none" xmlns="http://www.w3.org/2000/svg">
<path d="M250.59 30.18L252.31 31.15C252.73 31.39 252.99 31.82 252.99 32.29V43.68C252.99 52.72 245.47 60.06 236.18 60.06H17.2299C7.94993 60.05 0.429932 52.72 0.429932 43.67C0.429932 43.29 0.639932 42.93 0.979932 42.74L2.81993 41.7C3.28993 41.43 3.28993 40.76 2.81993 40.5L0.979932 39.46C0.639932 39.27 0.429932 38.91 0.429932 38.53V16.8C0.429932 7.75999 7.94993 0.429993 17.2299 0.429993H236.18C245.46 0.429993 252.99 7.75999 252.99 16.81V26.87C252.99 27.34 252.73 27.78 252.31 28.01L250.59 28.98C250.12 29.25 250.12 29.92 250.59 30.18Z" fill="url(#paint0_linear_5_575)" stroke="#894507" stroke-width="0.85" stroke-miterlimit="10"/>
<path d="M6.96997 55.06C7.65997 55.06 252.08 42.41 252.08 42.41C252.08 42.41 251.85 48.18 250.01 49.79C248.17 51.4 8.87997 57.06 8.87997 57.06L6.97997 55.06H6.96997Z" fill="#E48505"/>
<path d="M7.30005 4.14001L247.92 5.77001C247.92 5.77001 244.11 0.970006 235.92 0.870006C227.73 0.770006 15.37 0.870006 15.37 0.870006C13.96 1.15001 10.32 1.89001 7.30005 4.14001Z" fill="url(#paint1_linear_5_575)"/>
<mask id="path-4-outside-1_5_575" maskUnits="userSpaceOnUse" x="45" y="17" width="162" height="27" fill="black">
<rect fill="white" x="45" y="17" width="162" height="27"/>
<path d="M46.35 31.25C46.35 29.7 46.5583 28.3583 46.975 27.225C47.3917 26.075 47.95 25.1333 48.65 24.4C49.3667 23.6667 50.175 23.125 51.075 22.775C51.975 22.4083 52.9083 22.225 53.875 22.225C54.8083 22.225 55.575 22.3167 56.175 22.5C56.7917 22.6667 57.2333 22.8583 57.5 23.075V27.6H56.95C56.7833 27.4 56.5167 27.1833 56.15 26.95C55.7833 26.7167 55.35 26.6 54.85 26.6C54.1333 26.6 53.5083 26.775 52.975 27.125C52.4417 27.475 52.025 28 51.725 28.7C51.425 29.3833 51.275 30.2333 51.275 31.25C51.275 32.2667 51.425 33.125 51.725 33.825C52.025 34.5083 52.4417 35.025 52.975 35.375C53.5083 35.725 54.1333 35.9 54.85 35.9C55.3667 35.9 55.8 35.7833 56.15 35.55C56.5167 35.3167 56.7833 35.1 56.95 34.9H57.5V39.425C57.2333 39.6417 56.8 39.8333 56.2 40C55.6 40.1833 54.8333 40.275 53.9 40.275C52.95 40.275 52.025 40.1 51.125 39.75C50.225 39.3833 49.4167 38.8333 48.7 38.1C47.9833 37.3667 47.4083 36.4333 46.975 35.3C46.5583 34.15 46.35 32.8 46.35 31.25ZM66.407 22.5H71.207V40H66.407V33.375H63.982V40H59.157V22.5H63.982V29.125H66.407V22.5ZM72.5219 31.25C72.5219 29.1333 72.8635 27.4083 73.5469 26.075C74.2302 24.7417 75.1302 23.7667 76.2469 23.15C77.3635 22.5167 78.5635 22.2 79.8469 22.2C81.1469 22.2 82.3469 22.5167 83.4469 23.15C84.5635 23.7667 85.4635 24.7417 86.1469 26.075C86.8302 27.4083 87.1719 29.1333 87.1719 31.25C87.1719 33.3667 86.8302 35.0917 86.1469 36.425C85.4635 37.7583 84.5635 38.7417 83.4469 39.375C82.3469 39.9917 81.1469 40.3 79.8469 40.3C78.5635 40.3 77.3635 39.9917 76.2469 39.375C75.1302 38.7417 74.2302 37.7583 73.5469 36.425C72.8635 35.0917 72.5219 33.3667 72.5219 31.25ZM77.4469 31.25C77.4469 32.2333 77.5552 33.0667 77.7719 33.75C77.9885 34.4167 78.2802 34.925 78.6469 35.275C79.0135 35.625 79.4135 35.8 79.8469 35.8C80.2969 35.8 80.7052 35.625 81.0719 35.275C81.4385 34.925 81.7302 34.4167 81.9469 33.75C82.1802 33.0667 82.2969 32.2333 82.2969 31.25C82.2969 30.2333 82.1802 29.3917 81.9469 28.725C81.7302 28.0583 81.4385 27.5583 81.0719 27.225C80.7052 26.875 80.2969 26.7 79.8469 26.7C79.4135 26.7 79.0135 26.875 78.6469 27.225C78.2802 27.5583 77.9885 28.0667 77.7719 28.75C77.5552 29.4167 77.4469 30.25 77.4469 31.25ZM77.4719 41.3H82.2219V42.7H77.4719V41.3ZM95.7283 22.5H100.353V40H95.7783L93.1033 32.275H92.8783L93.1033 40H88.4783V22.5H93.0783L95.7533 30.5H95.9533L95.7283 22.5ZM115.186 22.5H119.811V40H115.236L112.561 32.275H112.336L112.561 40H107.936V22.5H112.536L115.211 30.5H115.411L115.186 22.5ZM128.956 22.5H133.756V40H128.956V33.375H126.531V40H121.706V22.5H126.531V29.125H128.956V22.5ZM134.696 40V39.3L137.821 22.5L145.246 22.525L148.371 39.3V40H143.396L143.021 36.775H140.071L139.696 40H134.696ZM140.521 32.65H142.571L141.921 27.025H141.171L140.521 32.65ZM140.421 18.35H142.671C143.021 18.95 143.471 19.4333 144.021 19.8C144.571 20.1667 145.288 20.35 146.171 20.35V21.45C145.321 21.45 144.48 21.3333 143.646 21.1C142.83 20.8667 142.18 20.45 141.696 19.85H141.396C140.913 20.45 140.255 20.8667 139.421 21.1C138.605 21.3333 137.771 21.45 136.921 21.45V20.35C137.805 20.35 138.53 20.1667 139.096 19.8C139.663 19.4167 140.105 18.9333 140.421 18.35ZM156.593 22.5H161.218V40H156.643L153.968 32.275H153.743L153.968 40H149.343V22.5H153.943L156.618 30.5H156.818L156.593 22.5ZM167.851 22.5H172.851L174.326 35.275H175.101L176.601 22.5H181.576V23.2L178.451 39.975L171.001 40L167.851 23.2V22.5ZM181.571 40V39.3L184.696 22.5L192.121 22.525L195.246 39.3V40H190.271L189.896 36.775H186.946L186.571 40H181.571ZM187.396 32.65H189.446L188.796 27.025H188.046L187.396 32.65ZM186.046 41.3H190.796V42.7H186.046V41.3ZM187.296 18.35H189.546C189.896 18.95 190.346 19.4333 190.896 19.8C191.446 20.1667 192.163 20.35 193.046 20.35V21.45C192.196 21.45 191.355 21.3333 190.521 21.1C189.705 20.8667 189.055 20.45 188.571 19.85H188.271C187.788 20.45 187.13 20.8667 186.296 21.1C185.48 21.3333 184.646 21.45 183.796 21.45V20.35C184.68 20.35 185.405 20.1667 185.971 19.8C186.538 19.4167 186.98 18.9333 187.296 18.35ZM205.968 22.5V26.9H203.143V40H198.393V26.9H195.443V22.5H205.968Z"/>
</mask>
<path d="M46.35 31.25C46.35 29.7 46.5583 28.3583 46.975 27.225C47.3917 26.075 47.95 25.1333 48.65 24.4C49.3667 23.6667 50.175 23.125 51.075 22.775C51.975 22.4083 52.9083 22.225 53.875 22.225C54.8083 22.225 55.575 22.3167 56.175 22.5C56.7917 22.6667 57.2333 22.8583 57.5 23.075V27.6H56.95C56.7833 27.4 56.5167 27.1833 56.15 26.95C55.7833 26.7167 55.35 26.6 54.85 26.6C54.1333 26.6 53.5083 26.775 52.975 27.125C52.4417 27.475 52.025 28 51.725 28.7C51.425 29.3833 51.275 30.2333 51.275 31.25C51.275 32.2667 51.425 33.125 51.725 33.825C52.025 34.5083 52.4417 35.025 52.975 35.375C53.5083 35.725 54.1333 35.9 54.85 35.9C55.3667 35.9 55.8 35.7833 56.15 35.55C56.5167 35.3167 56.7833 35.1 56.95 34.9H57.5V39.425C57.2333 39.6417 56.8 39.8333 56.2 40C55.6 40.1833 54.8333 40.275 53.9 40.275C52.95 40.275 52.025 40.1 51.125 39.75C50.225 39.3833 49.4167 38.8333 48.7 38.1C47.9833 37.3667 47.4083 36.4333 46.975 35.3C46.5583 34.15 46.35 32.8 46.35 31.25ZM66.407 22.5H71.207V40H66.407V33.375H63.982V40H59.157V22.5H63.982V29.125H66.407V22.5ZM72.5219 31.25C72.5219 29.1333 72.8635 27.4083 73.5469 26.075C74.2302 24.7417 75.1302 23.7667 76.2469 23.15C77.3635 22.5167 78.5635 22.2 79.8469 22.2C81.1469 22.2 82.3469 22.5167 83.4469 23.15C84.5635 23.7667 85.4635 24.7417 86.1469 26.075C86.8302 27.4083 87.1719 29.1333 87.1719 31.25C87.1719 33.3667 86.8302 35.0917 86.1469 36.425C85.4635 37.7583 84.5635 38.7417 83.4469 39.375C82.3469 39.9917 81.1469 40.3 79.8469 40.3C78.5635 40.3 77.3635 39.9917 76.2469 39.375C75.1302 38.7417 74.2302 37.7583 73.5469 36.425C72.8635 35.0917 72.5219 33.3667 72.5219 31.25ZM77.4469 31.25C77.4469 32.2333 77.5552 33.0667 77.7719 33.75C77.9885 34.4167 78.2802 34.925 78.6469 35.275C79.0135 35.625 79.4135 35.8 79.8469 35.8C80.2969 35.8 80.7052 35.625 81.0719 35.275C81.4385 34.925 81.7302 34.4167 81.9469 33.75C82.1802 33.0667 82.2969 32.2333 82.2969 31.25C82.2969 30.2333 82.1802 29.3917 81.9469 28.725C81.7302 28.0583 81.4385 27.5583 81.0719 27.225C80.7052 26.875 80.2969 26.7 79.8469 26.7C79.4135 26.7 79.0135 26.875 78.6469 27.225C78.2802 27.5583 77.9885 28.0667 77.7719 28.75C77.5552 29.4167 77.4469 30.25 77.4469 31.25ZM77.4719 41.3H82.2219V42.7H77.4719V41.3ZM95.7283 22.5H100.353V40H95.7783L93.1033 32.275H92.8783L93.1033 40H88.4783V22.5H93.0783L95.7533 30.5H95.9533L95.7283 22.5ZM115.186 22.5H119.811V40H115.236L112.561 32.275H112.336L112.561 40H107.936V22.5H112.536L115.211 30.5H115.411L115.186 22.5ZM128.956 22.5H133.756V40H128.956V33.375H126.531V40H121.706V22.5H126.531V29.125H128.956V22.5ZM134.696 40V39.3L137.821 22.5L145.246 22.525L148.371 39.3V40H143.396L143.021 36.775H140.071L139.696 40H134.696ZM140.521 32.65H142.571L141.921 27.025H141.171L140.521 32.65ZM140.421 18.35H142.671C143.021 18.95 143.471 19.4333 144.021 19.8C144.571 20.1667 145.288 20.35 146.171 20.35V21.45C145.321 21.45 144.48 21.3333 143.646 21.1C142.83 20.8667 142.18 20.45 141.696 19.85H141.396C140.913 20.45 140.255 20.8667 139.421 21.1C138.605 21.3333 137.771 21.45 136.921 21.45V20.35C137.805 20.35 138.53 20.1667 139.096 19.8C139.663 19.4167 140.105 18.9333 140.421 18.35ZM156.593 22.5H161.218V40H156.643L153.968 32.275H153.743L153.968 40H149.343V22.5H153.943L156.618 30.5H156.818L156.593 22.5ZM167.851 22.5H172.851L174.326 35.275H175.101L176.601 22.5H181.576V23.2L178.451 39.975L171.001 40L167.851 23.2V22.5ZM181.571 40V39.3L184.696 22.5L192.121 22.525L195.246 39.3V40H190.271L189.896 36.775H186.946L186.571 40H181.571ZM187.396 32.65H189.446L188.796 27.025H188.046L187.396 32.65ZM186.046 41.3H190.796V42.7H186.046V41.3ZM187.296 18.35H189.546C189.896 18.95 190.346 19.4333 190.896 19.8C191.446 20.1667 192.163 20.35 193.046 20.35V21.45C192.196 21.45 191.355 21.3333 190.521 21.1C189.705 20.8667 189.055 20.45 188.571 19.85H188.271C187.788 20.45 187.13 20.8667 186.296 21.1C185.48 21.3333 184.646 21.45 183.796 21.45V20.35C184.68 20.35 185.405 20.1667 185.971 19.8C186.538 19.4167 186.98 18.9333 187.296 18.35ZM205.968 22.5V26.9H203.143V40H198.393V26.9H195.443V22.5H205.968Z" fill="white"/>
<path d="M46.975 27.225L47.9136 27.5701L47.9152 27.5656L46.975 27.225ZM48.65 24.4L47.9348 23.701L47.9266 23.7095L48.65 24.4ZM51.075 22.775L51.4374 23.707L51.4449 23.7041L51.4523 23.7011L51.075 22.775ZM56.175 22.5L55.8828 23.4564L55.8984 23.4611L55.9141 23.4654L56.175 22.5ZM57.5 23.075H58.5V22.599L58.1306 22.2989L57.5 23.075ZM57.5 27.6V28.6H58.5V27.6H57.5ZM56.95 27.6L56.1818 28.2402L56.4816 28.6H56.95V27.6ZM52.975 27.125L52.4263 26.289H52.4263L52.975 27.125ZM51.725 28.7L52.6407 29.102L52.6441 29.0939L51.725 28.7ZM51.725 33.825L50.8058 34.2189L50.8094 34.227L51.725 33.825ZM52.975 35.375L52.4263 36.211L52.975 35.375ZM56.15 35.55L55.6131 34.7063L55.6042 34.712L55.5953 34.7179L56.15 35.55ZM56.95 34.9V33.9H56.4816L56.1818 34.2598L56.95 34.9ZM57.5 34.9H58.5V33.9H57.5V34.9ZM57.5 39.425L58.1306 40.2011L58.5 39.901V39.425H57.5ZM56.2 40L55.9324 39.0365L55.92 39.0399L55.9078 39.0436L56.2 40ZM51.125 39.75L50.7477 40.6761L50.7551 40.6791L50.7626 40.682L51.125 39.75ZM48.7 38.1L47.9848 38.7989L48.7 38.1ZM46.975 35.3L46.0348 35.6406L46.0378 35.6489L46.0409 35.6571L46.975 35.3ZM46.35 31.25H47.35C47.35 29.7859 47.5472 28.5665 47.9136 27.5701L46.975 27.225L46.0364 26.8799C45.5694 28.1501 45.35 29.6141 45.35 31.25H46.35ZM46.975 27.225L47.9152 27.5656C48.2942 26.5196 48.7868 25.705 49.3734 25.0905L48.65 24.4L47.9266 23.7095C47.1132 24.5617 46.4892 25.6304 46.0348 26.8843L46.975 27.225ZM48.65 24.4L49.3652 25.0989C49.9885 24.4611 50.6784 24.0022 51.4374 23.707L51.075 22.775L50.7126 21.843C49.6716 22.2478 48.7448 22.8722 47.9348 23.7011L48.65 24.4ZM51.075 22.775L51.4523 23.7011C52.2332 23.383 53.0384 23.225 53.875 23.225V22.225V21.225C52.7783 21.225 51.7168 21.4337 50.6977 21.8489L51.075 22.775ZM53.875 22.225V23.225C54.7526 23.225 55.4115 23.3124 55.8828 23.4564L56.175 22.5L56.4672 21.5436C55.7385 21.321 54.864 21.225 53.875 21.225V22.225ZM56.175 22.5L55.9141 23.4654C56.492 23.6215 56.7686 23.7692 56.8694 23.8511L57.5 23.075L58.1306 22.2989C57.6981 21.9475 57.0914 21.7118 56.4359 21.5346L56.175 22.5ZM57.5 23.075H56.5V27.6H57.5H58.5V23.075H57.5ZM57.5 27.6V26.6H56.95V27.6V28.6H57.5V27.6ZM56.95 27.6L57.7182 26.9598C57.4559 26.645 57.0907 26.3633 56.6869 26.1063L56.15 26.95L55.6131 27.7937C55.9427 28.0034 56.1108 28.155 56.1818 28.2402L56.95 27.6ZM56.15 26.95L56.6869 26.1063C56.1367 25.7562 55.5109 25.6 54.85 25.6V26.6V27.6C55.1891 27.6 55.4299 27.6771 55.6131 27.7937L56.15 26.95ZM54.85 26.6V25.6C53.9632 25.6 53.1423 25.8191 52.4263 26.289L52.975 27.125L53.5237 27.961C53.8744 27.7309 54.3034 27.6 54.85 27.6V26.6ZM52.975 27.125L52.4263 26.289C51.6992 26.7662 51.168 27.4611 50.8059 28.3061L51.725 28.7L52.6441 29.0939C52.882 28.5389 53.1842 28.1838 53.5237 27.961L52.975 27.125ZM51.725 28.7L50.8094 28.298C50.4375 29.1451 50.275 30.1421 50.275 31.25H51.275H52.275C52.275 30.3245 52.4125 29.6216 52.6406 29.102L51.725 28.7ZM51.275 31.25H50.275C50.275 32.3592 50.4379 33.3603 50.8059 34.2189L51.725 33.825L52.6441 33.4311C52.4121 32.8897 52.275 32.1742 52.275 31.25H51.275ZM51.725 33.825L50.8094 34.227C51.1736 35.0568 51.7054 35.7379 52.4263 36.211L52.975 35.375L53.5237 34.539C53.178 34.3121 52.8764 33.9599 52.6406 33.423L51.725 33.825ZM52.975 35.375L52.4263 36.211C53.1423 36.6809 53.9632 36.9 54.85 36.9V35.9V34.9C54.3034 34.9 53.8744 34.7691 53.5237 34.539L52.975 35.375ZM54.85 35.9V36.9C55.5187 36.9 56.1563 36.7476 56.7047 36.382L56.15 35.55L55.5953 34.7179C55.4437 34.819 55.2146 34.9 54.85 34.9V35.9ZM56.15 35.55L56.6869 36.3937C57.0907 36.1367 57.4559 35.855 57.7182 35.5402L56.95 34.9L56.1818 34.2598C56.1108 34.345 55.9427 34.4966 55.6131 34.7063L56.15 35.55ZM56.95 34.9V35.9H57.5V34.9V33.9H56.95V34.9ZM57.5 34.9H56.5V39.425H57.5H58.5V34.9H57.5ZM57.5 39.425L56.8694 38.6489C56.764 38.7346 56.4901 38.8816 55.9324 39.0365L56.2 40L56.4676 40.9635C57.1099 40.7851 57.7027 40.5488 58.1306 40.2011L57.5 39.425ZM56.2 40L55.9078 39.0436C55.4365 39.1876 54.7776 39.275 53.9 39.275V40.275V41.275C54.889 41.275 55.7635 41.179 56.4922 40.9564L56.2 40ZM53.9 40.275V39.275C53.0761 39.275 52.2738 39.1238 51.4874 38.818L51.125 39.75L50.7626 40.682C51.7762 41.0762 52.8239 41.275 53.9 41.275V40.275ZM51.125 39.75L51.5023 38.8239C50.7362 38.5118 50.0414 38.0418 49.4152 37.4011L48.7 38.1L47.9848 38.7989C48.792 39.6249 49.7138 40.2549 50.7477 40.6761L51.125 39.75ZM48.7 38.1L49.4152 37.4011C48.8099 36.7817 48.3024 35.9716 47.9091 34.9429L46.975 35.3L46.0409 35.6571C46.5143 36.8951 47.1567 37.9516 47.9848 38.7989L48.7 38.1ZM46.975 35.3L47.9152 34.9594C47.5471 33.9433 47.35 32.7135 47.35 31.25H46.35H45.35C45.35 32.8865 45.5696 34.3567 46.0348 35.6406L46.975 35.3ZM66.407 22.5V21.5H65.407V22.5H66.407ZM71.207 22.5H72.207V21.5H71.207V22.5ZM71.207 40V41H72.207V40H71.207ZM66.407 40H65.407V41H66.407V40ZM66.407 33.375H67.407V32.375H66.407V33.375ZM63.982 33.375V32.375H62.982V33.375H63.982ZM63.982 40V41H64.982V40H63.982ZM59.157 40H58.157V41H59.157V40ZM59.157 22.5V21.5H58.157V22.5H59.157ZM63.982 22.5H64.982V21.5H63.982V22.5ZM63.982 29.125H62.982V30.125H63.982V29.125ZM66.407 29.125V30.125H67.407V29.125H66.407ZM66.407 22.5V23.5H71.207V22.5V21.5H66.407V22.5ZM71.207 22.5H70.207V40H71.207H72.207V22.5H71.207ZM71.207 40V39H66.407V40V41H71.207V40ZM66.407 40H67.407V33.375H66.407H65.407V40H66.407ZM66.407 33.375V32.375H63.982V33.375V34.375H66.407V33.375ZM63.982 33.375H62.982V40H63.982H64.982V33.375H63.982ZM63.982 40V39H59.157V40V41H63.982V40ZM59.157 40H60.157V22.5H59.157H58.157V40H59.157ZM59.157 22.5V23.5H63.982V22.5V21.5H59.157V22.5ZM63.982 22.5H62.982V29.125H63.982H64.982V22.5H63.982ZM63.982 29.125V30.125H66.407V29.125V28.125H63.982V29.125ZM66.407 29.125H67.407V22.5H66.407H65.407V29.125H66.407ZM73.5469 26.075L72.6569 25.6189L73.5469 26.075ZM76.2469 23.15L76.7303 24.0254L76.7402 24.0198L76.2469 23.15ZM83.4469 23.15L82.9479 24.0166L82.9556 24.0211L82.9635 24.0254L83.4469 23.15ZM86.1469 26.075L87.0368 25.6189L86.1469 26.075ZM86.1469 36.425L85.2569 35.9689L86.1469 36.425ZM83.4469 39.375L83.9359 40.2473L83.9402 40.2448L83.4469 39.375ZM76.2469 39.375L75.7535 40.2449L75.7635 40.2504L76.2469 39.375ZM73.5469 36.425L74.4368 35.9689L73.5469 36.425ZM77.7719 33.75L76.8186 34.0523L76.8208 34.0591L77.7719 33.75ZM78.6469 35.275L77.9564 35.9984L78.6469 35.275ZM81.0719 35.275L80.3814 34.5516V34.5516L81.0719 35.275ZM81.9469 33.75L81.0005 33.4269L80.9981 33.4339L80.9958 33.4409L81.9469 33.75ZM81.9469 28.725L80.9958 29.0341L80.9993 29.0448L81.003 29.0553L81.9469 28.725ZM81.0719 27.225L80.3814 27.9484L80.3902 27.9568L80.3992 27.9649L81.0719 27.225ZM78.6469 27.225L79.3195 27.9649L79.3285 27.9568L79.3373 27.9484L78.6469 27.225ZM77.7719 28.75L78.7229 29.0591L78.7251 29.0522L77.7719 28.75ZM77.4719 41.3V40.3H76.4719V41.3H77.4719ZM82.2219 41.3H83.2219V40.3H82.2219V41.3ZM82.2219 42.7V43.7H83.2219V42.7H82.2219ZM77.4719 42.7H76.4719V43.7H77.4719V42.7ZM72.5219 31.25H73.5219C73.5219 29.2305 73.8494 27.6772 74.4368 26.5311L73.5469 26.075L72.6569 25.6189C71.8777 27.1394 71.5219 29.0361 71.5219 31.25H72.5219ZM73.5469 26.075L74.4368 26.5311C75.0456 25.3432 75.8165 24.53 76.7303 24.0254L76.2469 23.15L75.7635 22.2746C74.4439 23.0033 73.4148 24.1401 72.6569 25.6189L73.5469 26.075ZM76.2469 23.15L76.7402 24.0198C77.7065 23.4718 78.7365 23.2 79.8469 23.2V22.2V21.2C78.3905 21.2 77.0206 21.5615 75.7535 22.2802L76.2469 23.15ZM79.8469 22.2V23.2C80.9762 23.2 82.0035 23.4729 82.9479 24.0166L83.4469 23.15L83.9458 22.2834C82.6903 21.5605 81.3176 21.2 79.8469 21.2V22.2ZM83.4469 23.15L82.9635 24.0254C83.8772 24.53 84.6482 25.3432 85.2569 26.5311L86.1469 26.075L87.0368 25.6189C86.2789 24.1401 85.2499 23.0033 83.9303 22.2746L83.4469 23.15ZM86.1469 26.075L85.2569 26.5311C85.8443 27.6772 86.1719 29.2305 86.1719 31.25H87.1719H88.1719C88.1719 29.0361 87.8161 27.1394 87.0368 25.6189L86.1469 26.075ZM87.1719 31.25H86.1719C86.1719 33.2695 85.8443 34.8228 85.2569 35.9689L86.1469 36.425L87.0368 36.8811C87.8161 35.3606 88.1719 33.4639 88.1719 31.25H87.1719ZM86.1469 36.425L85.2569 35.9689C84.6474 37.1582 83.8736 37.9833 82.9535 38.5052L83.4469 39.375L83.9402 40.2448C85.2534 39.5 86.2797 38.3584 87.0368 36.8811L86.1469 36.425ZM83.4469 39.375L82.9579 38.5027C82.012 39.033 80.9811 39.3 79.8469 39.3V40.3V41.3C81.3126 41.3 82.6818 40.9503 83.9359 40.2473L83.4469 39.375ZM79.8469 40.3V39.3C78.7316 39.3 77.698 39.034 76.7303 38.4996L76.2469 39.375L75.7635 40.2504C77.0291 40.9493 78.3955 41.3 79.8469 41.3V40.3ZM76.2469 39.375L76.7402 38.5052C75.8201 37.9833 75.0463 37.1582 74.4368 35.9689L73.5469 36.425L72.6569 36.8811C73.4141 38.3584 74.4403 39.5 75.7535 40.2448L76.2469 39.375ZM73.5469 36.425L74.4368 35.9689C73.8494 34.8228 73.5219 33.2695 73.5219 31.25H72.5219H71.5219C71.5219 33.4639 71.8777 35.3606 72.6569 36.8811L73.5469 36.425ZM77.4469 31.25H76.4469C76.4469 32.3006 76.5619 33.2424 76.8186 34.0522L77.7719 33.75L78.7251 33.4478C78.5485 32.8909 78.4469 32.1661 78.4469 31.25H77.4469ZM77.7719 33.75L76.8208 34.0591C77.0701 34.826 77.4328 35.4986 77.9564 35.9984L78.6469 35.275L79.3374 34.5516C79.1276 34.3514 78.907 34.0073 78.7229 33.4409L77.7719 33.75ZM78.6469 35.275L77.9564 35.9984C78.4753 36.4936 79.1131 36.8 79.8469 36.8V35.8V34.8C79.714 34.8 79.5518 34.7564 79.3373 34.5516L78.6469 35.275ZM79.8469 35.8V36.8C80.5872 36.8 81.2351 36.5016 81.7624 35.9984L81.0719 35.275L80.3814 34.5516C80.1753 34.7484 80.0065 34.8 79.8469 34.8V35.8ZM81.0719 35.275L81.7624 35.9984C82.2859 35.4986 82.6486 34.826 82.8979 34.0591L81.9469 33.75L80.9958 33.4409C80.8118 34.0073 80.5912 34.3514 80.3814 34.5516L81.0719 35.275ZM81.9469 33.75L82.8932 34.0731C83.1723 33.2557 83.2969 32.3063 83.2969 31.25H82.2969H81.2969C81.2969 32.1604 81.1881 32.8776 81.0005 33.4269L81.9469 33.75ZM82.2969 31.25H83.2969C83.2969 30.1659 83.1737 29.203 82.8907 28.3946L81.9469 28.725L81.003 29.0553C81.1867 29.5803 81.2969 30.3007 81.2969 31.25H82.2969ZM81.9469 28.725L82.8979 28.4159C82.6486 27.6487 82.2824 26.974 81.7445 26.4851L81.0719 27.225L80.3992 27.9649C80.5947 28.1427 80.8119 28.468 80.9958 29.0341L81.9469 28.725ZM81.0719 27.225L81.7624 26.5016C81.2351 25.9984 80.5872 25.7 79.8469 25.7V26.7V27.7C80.0065 27.7 80.1753 27.7516 80.3814 27.9484L81.0719 27.225ZM79.8469 26.7V25.7C79.1131 25.7 78.4753 26.0064 77.9564 26.5016L78.6469 27.225L79.3373 27.9484C79.5518 27.7436 79.714 27.7 79.8469 27.7V26.7ZM78.6469 27.225L77.9742 26.4851C77.4315 26.9784 77.0663 27.6668 76.8186 28.4478L77.7719 28.75L78.7251 29.0522C78.9108 28.4665 79.1289 28.1382 79.3195 27.9649L78.6469 27.225ZM77.7719 28.75L76.8208 28.4409C76.5611 29.24 76.4469 30.1859 76.4469 31.25H77.4469H78.4469C78.4469 30.3141 78.5493 29.5933 78.7229 29.0591L77.7719 28.75ZM77.4719 41.3V42.3H82.2219V41.3V40.3H77.4719V41.3ZM82.2219 41.3H81.2219V42.7H82.2219H83.2219V41.3H82.2219ZM82.2219 42.7V41.7H77.4719V42.7V43.7H82.2219V42.7ZM77.4719 42.7H78.4719V41.3H77.4719H76.4719V42.7H77.4719ZM95.7283 22.5V21.5H94.6998L94.7287 22.5281L95.7283 22.5ZM100.353 22.5H101.353V21.5H100.353V22.5ZM100.353 40V41H101.353V40H100.353ZM95.7783 40L94.8334 40.3272L95.0663 41H95.7783V40ZM93.1033 32.275L94.0483 31.9478L93.8153 31.275H93.1033V32.275ZM92.8783 32.275V31.275H91.8488L91.8787 32.3041L92.8783 32.275ZM93.1033 40V41H94.1329L94.1029 39.9709L93.1033 40ZM88.4783 40H87.4783V41H88.4783V40ZM88.4783 22.5V21.5H87.4783V22.5H88.4783ZM93.0783 22.5L94.0267 22.1829L93.7984 21.5H93.0783V22.5ZM95.7533 30.5L94.8049 30.8171L95.0333 31.5H95.7533V30.5ZM95.9533 30.5V31.5H96.9818L96.9529 30.4719L95.9533 30.5ZM95.7283 22.5V23.5H100.353V22.5V21.5H95.7283V22.5ZM100.353 22.5H99.3533V40H100.353H101.353V22.5H100.353ZM100.353 40V39H95.7783V40V41H100.353V40ZM95.7783 40L96.7233 39.6728L94.0483 31.9478L93.1033 32.275L92.1584 32.6022L94.8334 40.3272L95.7783 40ZM93.1033 32.275V31.275H92.8783V32.275V33.275H93.1033V32.275ZM92.8783 32.275L91.8787 32.3041L92.1037 40.0291L93.1033 40L94.1029 39.9709L93.8779 32.2459L92.8783 32.275ZM93.1033 40V39H88.4783V40V41H93.1033V40ZM88.4783 40H89.4783V22.5H88.4783H87.4783V40H88.4783ZM88.4783 22.5V23.5H93.0783V22.5V21.5H88.4783V22.5ZM93.0783 22.5L92.1299 22.8171L94.8049 30.8171L95.7533 30.5L96.7017 30.1829L94.0267 22.1829L93.0783 22.5ZM95.7533 30.5V31.5H95.9533V30.5V29.5H95.7533V30.5ZM95.9533 30.5L96.9529 30.4719L96.7279 22.4719L95.7283 22.5L94.7287 22.5281L94.9537 30.5281L95.9533 30.5ZM115.186 22.5V21.5H114.158L114.187 22.5281L115.186 22.5ZM119.811 22.5H120.811V21.5H119.811V22.5ZM119.811 40V41H120.811V40H119.811ZM115.236 40L114.291 40.3272L114.524 41H115.236V40ZM112.561 32.275L113.506 31.9478L113.273 31.275H112.561V32.275ZM112.336 32.275V31.275H111.307L111.337 32.3041L112.336 32.275ZM112.561 40V41H113.591L113.561 39.9709L112.561 40ZM107.936 40H106.936V41H107.936V40ZM107.936 22.5V21.5H106.936V22.5H107.936ZM112.536 22.5L113.485 22.1829L113.256 21.5H112.536V22.5ZM115.211 30.5L114.263 30.8171L114.491 31.5H115.211V30.5ZM115.411 30.5V31.5H116.44L116.411 30.4719L115.411 30.5ZM115.186 22.5V23.5H119.811V22.5V21.5H115.186V22.5ZM119.811 22.5H118.811V40H119.811H120.811V22.5H119.811ZM119.811 40V39H115.236V40V41H119.811V40ZM115.236 40L116.181 39.6728L113.506 31.9478L112.561 32.275L111.616 32.6022L114.291 40.3272L115.236 40ZM112.561 32.275V31.275H112.336V32.275V33.275H112.561V32.275ZM112.336 32.275L111.337 32.3041L111.562 40.0291L112.561 40L113.561 39.9709L113.336 32.2459L112.336 32.275ZM112.561 40V39H107.936V40V41H112.561V40ZM107.936 40H108.936V22.5H107.936H106.936V40H107.936ZM107.936 22.5V23.5H112.536V22.5V21.5H107.936V22.5ZM112.536 22.5L111.588 22.8171L114.263 30.8171L115.211 30.5L116.16 30.1829L113.485 22.1829L112.536 22.5ZM115.211 30.5V31.5H115.411V30.5V29.5H115.211V30.5ZM115.411 30.5L116.411 30.4719L116.186 22.4719L115.186 22.5L114.187 22.5281L114.412 30.5281L115.411 30.5ZM128.956 22.5V21.5H127.956V22.5H128.956ZM133.756 22.5H134.756V21.5H133.756V22.5ZM133.756 40V41H134.756V40H133.756ZM128.956 40H127.956V41H128.956V40ZM128.956 33.375H129.956V32.375H128.956V33.375ZM126.531 33.375V32.375H125.531V33.375H126.531ZM126.531 40V41H127.531V40H126.531ZM121.706 40H120.706V41H121.706V40ZM121.706 22.5V21.5H120.706V22.5H121.706ZM126.531 22.5H127.531V21.5H126.531V22.5ZM126.531 29.125H125.531V30.125H126.531V29.125ZM128.956 29.125V30.125H129.956V29.125H128.956ZM128.956 22.5V23.5H133.756V22.5V21.5H128.956V22.5ZM133.756 22.5H132.756V40H133.756H134.756V22.5H133.756ZM133.756 40V39H128.956V40V41H133.756V40ZM128.956 40H129.956V33.375H128.956H127.956V40H128.956ZM128.956 33.375V32.375H126.531V33.375V34.375H128.956V33.375ZM126.531 33.375H125.531V40H126.531H127.531V33.375H126.531ZM126.531 40V39H121.706V40V41H126.531V40ZM121.706 40H122.706V22.5H121.706H120.706V40H121.706ZM121.706 22.5V23.5H126.531V22.5V21.5H121.706V22.5ZM126.531 22.5H125.531V29.125H126.531H127.531V22.5H126.531ZM126.531 29.125V30.125H128.956V29.125V28.125H126.531V29.125ZM128.956 29.125H129.956V22.5H128.956H127.956V29.125H128.956ZM134.696 40H133.696V41H134.696V40ZM134.696 39.3L133.713 39.1171L133.696 39.2078V39.3H134.696ZM137.821 22.5L137.825 21.5L136.991 21.4972L136.838 22.3171L137.821 22.5ZM145.246 22.525L146.229 22.3419L146.078 21.5278L145.25 21.525L145.246 22.525ZM148.371 39.3H149.371V39.2076L149.354 39.1169L148.371 39.3ZM148.371 40V41H149.371V40H148.371ZM143.396 40L142.403 40.1155L142.506 41H143.396V40ZM143.021 36.775L144.015 36.6595L143.912 35.775H143.021V36.775ZM140.071 36.775V35.775H139.181L139.078 36.6595L140.071 36.775ZM139.696 40V41H140.587L140.69 40.1155L139.696 40ZM140.521 32.65L139.528 32.5352L139.399 33.65H140.521V32.65ZM142.571 32.65V33.65H143.693L143.565 32.5352L142.571 32.65ZM141.921 27.025L142.915 26.9102L142.812 26.025H141.921V27.025ZM141.171 27.025V26.025H140.28L140.178 26.9102L141.171 27.025ZM140.421 18.35V17.35H139.826L139.542 17.8729L140.421 18.35ZM142.671 18.35L143.535 17.8461L143.246 17.35H142.671V18.35ZM144.021 19.8L144.576 18.9679V18.9679L144.021 19.8ZM146.171 20.35H147.171V19.35H146.171V20.35ZM146.171 21.45V22.45H147.171V21.45H146.171ZM143.646 21.1L143.372 22.0615L143.377 22.063L143.646 21.1ZM141.696 19.85L142.475 19.2227L142.175 18.85H141.696V19.85ZM141.396 19.85V18.85H140.918L140.618 19.2227L141.396 19.85ZM139.421 21.1L139.152 20.137L139.147 20.1385L139.421 21.1ZM136.921 21.45H135.921V22.45H136.921V21.45ZM136.921 20.35V19.35H135.921V20.35H136.921ZM139.096 19.8L139.64 20.6396L139.648 20.634L139.657 20.6283L139.096 19.8ZM134.696 40H135.696V39.3H134.696H133.696V40H134.696ZM134.696 39.3L135.679 39.4829L138.804 22.6829L137.821 22.5L136.838 22.3171L133.713 39.1171L134.696 39.3ZM137.821 22.5L137.818 23.5L145.243 23.525L145.246 22.525L145.25 21.525L137.825 21.5L137.821 22.5ZM145.246 22.525L144.263 22.7081L147.388 39.4831L148.371 39.3L149.354 39.1169L146.229 22.3419L145.246 22.525ZM148.371 39.3H147.371V40H148.371H149.371V39.3H148.371ZM148.371 40V39H143.396V40V41H148.371V40ZM143.396 40L144.39 39.8845L144.015 36.6595L143.021 36.775L142.028 36.8905L142.403 40.1155L143.396 40ZM143.021 36.775V35.775H140.071V36.775V37.775H143.021V36.775ZM140.071 36.775L139.078 36.6595L138.703 39.8845L139.696 40L140.69 40.1155L141.065 36.8905L140.071 36.775ZM139.696 40V39H134.696V40V41H139.696V40ZM140.521 32.65V33.65H142.571V32.65V31.65H140.521V32.65ZM142.571 32.65L143.565 32.5352L142.915 26.9102L141.921 27.025L140.928 27.1398L141.578 32.7648L142.571 32.65ZM141.921 27.025V26.025H141.171V27.025V28.025H141.921V27.025ZM141.171 27.025L140.178 26.9102L139.528 32.5352L140.521 32.65L141.515 32.7648L142.165 27.1398L141.171 27.025ZM140.421 18.35V19.35H142.671V18.35V17.35H140.421V18.35ZM142.671 18.35L141.808 18.8539C142.23 19.5785 142.783 20.1766 143.467 20.632L144.021 19.8L144.576 18.9679C144.159 18.69 143.812 18.3215 143.535 17.8461L142.671 18.35ZM144.021 19.8L143.467 20.632C144.228 21.1395 145.156 21.35 146.171 21.35V20.35V19.35C145.42 19.35 144.915 19.1939 144.576 18.9679L144.021 19.8ZM146.171 20.35H145.171V21.45H146.171H147.171V20.35H146.171ZM146.171 21.45V20.45C145.414 20.45 144.663 20.3462 143.916 20.137L143.646 21.1L143.377 22.063C144.296 22.3204 145.228 22.45 146.171 22.45V21.45ZM143.646 21.1L143.921 20.1385C143.282 19.9558 142.816 19.6455 142.475 19.2227L141.696 19.85L140.918 20.4773C141.544 21.2545 142.378 21.7776 143.372 22.0615L143.646 21.1ZM141.696 19.85V18.85H141.396V19.85V20.85H141.696V19.85ZM141.396 19.85L140.618 19.2227C140.281 19.6409 139.81 19.9526 139.152 20.137L139.421 21.1L139.691 22.063C140.699 21.7807 141.545 21.2591 142.175 20.4773L141.396 19.85ZM139.421 21.1L139.147 20.1385C138.419 20.3463 137.678 20.45 136.921 20.45V21.45V22.45C137.864 22.45 138.79 22.3204 139.696 22.0615L139.421 21.1ZM136.921 21.45H137.921V20.35H136.921H135.921V21.45H136.921ZM136.921 20.35V21.35C137.939 21.35 138.868 21.1388 139.64 20.6396L139.096 19.8L138.553 18.9604C138.191 19.1946 137.67 19.35 136.921 19.35V20.35ZM139.096 19.8L139.657 20.6283C140.352 20.158 140.905 19.5558 141.3 18.8271L140.421 18.35L139.542 17.8729C139.305 18.3109 138.974 18.6754 138.536 18.9717L139.096 19.8ZM156.593 22.5V21.5H155.564L155.593 22.5281L156.593 22.5ZM161.218 22.5H162.218V21.5H161.218V22.5ZM161.218 40V41H162.218V40H161.218ZM156.643 40L155.698 40.3272L155.931 41H156.643V40ZM153.968 32.275L154.913 31.9478L154.68 31.275H153.968V32.275ZM153.743 32.275V31.275H152.713L152.743 32.3041L153.743 32.275ZM153.968 40V41H154.997L154.967 39.9709L153.968 40ZM149.343 40H148.343V41H149.343V40ZM149.343 22.5V21.5H148.343V22.5H149.343ZM153.943 22.5L154.891 22.1829L154.663 21.5H153.943V22.5ZM156.618 30.5L155.669 30.8171L155.898 31.5H156.618V30.5ZM156.818 30.5V31.5H157.846L157.817 30.4719L156.818 30.5ZM156.593 22.5V23.5H161.218V22.5V21.5H156.593V22.5ZM161.218 22.5H160.218V40H161.218H162.218V22.5H161.218ZM161.218 40V39H156.643V40V41H161.218V40ZM156.643 40L157.588 39.6728L154.913 31.9478L153.968 32.275L153.023 32.6022L155.698 40.3272L156.643 40ZM153.968 32.275V31.275H153.743V32.275V33.275H153.968V32.275ZM153.743 32.275L152.743 32.3041L152.968 40.0291L153.968 40L154.967 39.9709L154.742 32.2459L153.743 32.275ZM153.968 40V39H149.343V40V41H153.968V40ZM149.343 40H150.343V22.5H149.343H148.343V40H149.343ZM149.343 22.5V23.5H153.943V22.5V21.5H149.343V22.5ZM153.943 22.5L152.994 22.8171L155.669 30.8171L156.618 30.5L157.566 30.1829L154.891 22.1829L153.943 22.5ZM156.618 30.5V31.5H156.818V30.5V29.5H156.618V30.5ZM156.818 30.5L157.817 30.4719L157.592 22.4719L156.593 22.5L155.593 22.5281L155.818 30.5281L156.818 30.5ZM167.851 22.5V21.5H166.851V22.5H167.851ZM172.851 22.5L173.844 22.3853L173.742 21.5H172.851V22.5ZM174.326 35.275L173.332 35.3897L173.434 36.275H174.326V35.275ZM175.101 35.275V36.275H175.99L176.094 35.3916L175.101 35.275ZM176.601 22.5V21.5H175.711L175.607 22.3834L176.601 22.5ZM181.576 22.5H182.576V21.5H181.576V22.5ZM181.576 23.2L182.559 23.3831L182.576 23.2923V23.2H181.576ZM178.451 39.975L178.454 40.975L179.282 40.9722L179.434 40.1581L178.451 39.975ZM171.001 40L170.018 40.1843L170.171 41.0028L171.004 41L171.001 40ZM167.851 23.2H166.851V23.2929L166.868 23.3843L167.851 23.2ZM167.851 22.5V23.5H172.851V22.5V21.5H167.851V22.5ZM172.851 22.5L171.857 22.6147L173.332 35.3897L174.326 35.275L175.319 35.1603L173.844 22.3853L172.851 22.5ZM174.326 35.275V36.275H175.101V35.275V34.275H174.326V35.275ZM175.101 35.275L176.094 35.3916L177.594 22.6166L176.601 22.5L175.607 22.3834L174.107 35.1584L175.101 35.275ZM176.601 22.5V23.5H181.576V22.5V21.5H176.601V22.5ZM181.576 22.5H180.576V23.2H181.576H182.576V22.5H181.576ZM181.576 23.2L180.592 23.0169L177.467 39.7919L178.451 39.975L179.434 40.1581L182.559 23.3831L181.576 23.2ZM178.451 39.975L178.447 38.975L170.997 39L171.001 40L171.004 41L178.454 40.975L178.451 39.975ZM171.001 40L171.983 39.8157L168.833 23.0157L167.851 23.2L166.868 23.3843L170.018 40.1843L171.001 40ZM167.851 23.2H168.851V22.5H167.851H166.851V23.2H167.851ZM181.571 40H180.571V41H181.571V40ZM181.571 39.3L180.588 39.1171L180.571 39.2078V39.3H181.571ZM184.696 22.5L184.7 21.5L183.866 21.4972L183.713 22.3171L184.696 22.5ZM192.121 22.525L193.104 22.3419L192.953 21.5278L192.125 21.525L192.121 22.525ZM195.246 39.3H196.246V39.2076L196.229 39.1169L195.246 39.3ZM195.246 40V41H196.246V40H195.246ZM190.271 40L189.278 40.1155L189.381 41H190.271V40ZM189.896 36.775L190.89 36.6595L190.787 35.775H189.896V36.775ZM186.946 36.775V35.775H186.056L185.953 36.6595L186.946 36.775ZM186.571 40V41H187.462L187.565 40.1155L186.571 40ZM187.396 32.65L186.403 32.5352L186.274 33.65H187.396V32.65ZM189.446 32.65V33.65H190.568L190.44 32.5352L189.446 32.65ZM188.796 27.025L189.79 26.9102L189.687 26.025H188.796V27.025ZM188.046 27.025V26.025H187.155L187.053 26.9102L188.046 27.025ZM186.046 41.3V40.3H185.046V41.3H186.046ZM190.796 41.3H191.796V40.3H190.796V41.3ZM190.796 42.7V43.7H191.796V42.7H190.796ZM186.046 42.7H185.046V43.7H186.046V42.7ZM187.296 18.35V17.35H186.701L186.417 17.8729L187.296 18.35ZM189.546 18.35L190.41 17.8461L190.121 17.35H189.546V18.35ZM190.896 19.8L191.451 18.9679V18.9679L190.896 19.8ZM193.046 20.35H194.046V19.35H193.046V20.35ZM193.046 21.45V22.45H194.046V21.45H193.046ZM190.521 21.1L190.247 22.0615L190.252 22.063L190.521 21.1ZM188.571 19.85L189.35 19.2227L189.05 18.85H188.571V19.85ZM188.271 19.85V18.85H187.793L187.493 19.2227L188.271 19.85ZM186.296 21.1L186.027 20.137L186.022 20.1385L186.296 21.1ZM183.796 21.45H182.796V22.45H183.796V21.45ZM183.796 20.35V19.35H182.796V20.35H183.796ZM185.971 19.8L186.515 20.6396L186.523 20.634L186.532 20.6283L185.971 19.8ZM181.571 40H182.571V39.3H181.571H180.571V40H181.571ZM181.571 39.3L182.554 39.4829L185.679 22.6829L184.696 22.5L183.713 22.3171L180.588 39.1171L181.571 39.3ZM184.696 22.5L184.693 23.5L192.118 23.525L192.121 22.525L192.125 21.525L184.7 21.5L184.696 22.5ZM192.121 22.525L191.138 22.7081L194.263 39.4831L195.246 39.3L196.229 39.1169L193.104 22.3419L192.121 22.525ZM195.246 39.3H194.246V40H195.246H196.246V39.3H195.246ZM195.246 40V39H190.271V40V41H195.246V40ZM190.271 40L191.265 39.8845L190.89 36.6595L189.896 36.775L188.903 36.8905L189.278 40.1155L190.271 40ZM189.896 36.775V35.775H186.946V36.775V37.775H189.896V36.775ZM186.946 36.775L185.953 36.6595L185.578 39.8845L186.571 40L187.565 40.1155L187.94 36.8905L186.946 36.775ZM186.571 40V39H181.571V40V41H186.571V40ZM187.396 32.65V33.65H189.446V32.65V31.65H187.396V32.65ZM189.446 32.65L190.44 32.5352L189.79 26.9102L188.796 27.025L187.803 27.1398L188.453 32.7648L189.446 32.65ZM188.796 27.025V26.025H188.046V27.025V28.025H188.796V27.025ZM188.046 27.025L187.053 26.9102L186.403 32.5352L187.396 32.65L188.39 32.7648L189.04 27.1398L188.046 27.025ZM186.046 41.3V42.3H190.796V41.3V40.3H186.046V41.3ZM190.796 41.3H189.796V42.7H190.796H191.796V41.3H190.796ZM190.796 42.7V41.7H186.046V42.7V43.7H190.796V42.7ZM186.046 42.7H187.046V41.3H186.046H185.046V42.7H186.046ZM187.296 18.35V19.35H189.546V18.35V17.35H187.296V18.35ZM189.546 18.35L188.683 18.8539C189.105 19.5785 189.658 20.1766 190.342 20.632L190.896 19.8L191.451 18.9679C191.034 18.69 190.687 18.3215 190.41 17.8461L189.546 18.35ZM190.896 19.8L190.342 20.632C191.103 21.1395 192.031 21.35 193.046 21.35V20.35V19.35C192.295 19.35 191.79 19.1939 191.451 18.9679L190.896 19.8ZM193.046 20.35H192.046V21.45H193.046H194.046V20.35H193.046ZM193.046 21.45V20.45C192.289 20.45 191.538 20.3462 190.791 20.137L190.521 21.1L190.252 22.063C191.171 22.3204 192.104 22.45 193.046 22.45V21.45ZM190.521 21.1L190.796 20.1385C190.157 19.9558 189.691 19.6455 189.35 19.2227L188.571 19.85L187.793 20.4773C188.419 21.2545 189.253 21.7776 190.247 22.0615L190.521 21.1ZM188.571 19.85V18.85H188.271V19.85V20.85H188.571V19.85ZM188.271 19.85L187.493 19.2227C187.156 19.6409 186.685 19.9526 186.027 20.137L186.296 21.1L186.566 22.063C187.574 21.7807 188.42 21.2591 189.05 20.4773L188.271 19.85ZM186.296 21.1L186.022 20.1385C185.294 20.3463 184.553 20.45 183.796 20.45V21.45V22.45C184.739 22.45 185.665 22.3204 186.571 22.0615L186.296 21.1ZM183.796 21.45H184.796V20.35H183.796H182.796V21.45H183.796ZM183.796 20.35V21.35C184.814 21.35 185.743 21.1388 186.515 20.6396L185.971 19.8L185.428 18.9604C185.066 19.1946 184.545 19.35 183.796 19.35V20.35ZM185.971 19.8L186.532 20.6283C187.227 20.158 187.78 19.5558 188.175 18.8271L187.296 18.35L186.417 17.8729C186.18 18.3109 185.849 18.6754 185.411 18.9717L185.971 19.8ZM205.968 22.5H206.968V21.5H205.968V22.5ZM205.968 26.9V27.9H206.968V26.9H205.968ZM203.143 26.9V25.9H202.143V26.9H203.143ZM203.143 40V41H204.143V40H203.143ZM198.393 40H197.393V41H198.393V40ZM198.393 26.9H199.393V25.9H198.393V26.9ZM195.443 26.9H194.443V27.9H195.443V26.9ZM195.443 22.5V21.5H194.443V22.5H195.443ZM205.968 22.5H204.968V26.9H205.968H206.968V22.5H205.968ZM205.968 26.9V25.9H203.143V26.9V27.9H205.968V26.9ZM203.143 26.9H202.143V40H203.143H204.143V26.9H203.143ZM203.143 40V39H198.393V40V41H203.143V40ZM198.393 40H199.393V26.9H198.393H197.393V40H198.393ZM198.393 26.9V25.9H195.443V26.9V27.9H198.393V26.9ZM195.443 26.9H196.443V22.5H195.443H194.443V26.9H195.443ZM195.443 22.5V23.5H205.968V22.5V21.5H195.443V22.5Z" fill="#752602" mask="url(#path-4-outside-1_5_575)"/>
<defs>
<linearGradient id="paint0_linear_5_575" x1="126.91" y1="0.579993" x2="126.5" y2="60.38" gradientUnits="userSpaceOnUse">
<stop offset="0.25" stop-color="#F9D100"/>
<stop offset="1" stop-color="#E28E29"/>
</linearGradient>
<linearGradient id="paint1_linear_5_575" x1="7.30005" y1="3.30001" x2="247.92" y2="3.30001" gradientUnits="userSpaceOnUse">
<stop offset="0.11" stop-color="#F2A927"/>
<stop offset="1" stop-color="#DF9A00"/>
</linearGradient>
</defs>
</svg>
