<svg width="119" height="117" viewBox="0 0 119 117" fill="none" xmlns="http://www.w3.org/2000/svg">
<g clip-path="url(#clip0_20_33)">
<path d="M0.185425 58.4953C0.185425 19.4891 19.9832 0 59.5881 0C99.193 0 118.991 19.4891 118.991 58.4953C118.991 97.5015 99.1837 117 59.5881 117C19.9925 117 0.185425 97.4922 0.185425 58.4953Z" fill="#A9B236"/>
<path opacity="0.4" fill-rule="evenodd" clip-rule="evenodd" d="M85.4753 64.492H81.4806C80.8966 66.9596 79.9142 69.2688 78.598 71.3546L81.4249 74.1295C83.4733 76.1408 83.4733 79.4092 81.4249 81.4205C79.3766 83.4318 76.0677 83.4318 74.0193 81.4205L71.1924 78.6363C69.0698 79.9399 66.7249 80.9083 64.2224 81.4763V85.4058C64.2224 88.2552 61.8774 90.5644 58.9856 90.5644C56.0938 90.5644 53.7488 88.2552 53.7488 85.4058V81.4763C51.2463 80.9083 48.9013 79.9306 46.7788 78.6363L43.9518 81.4205C41.9035 83.4318 38.5946 83.4318 36.5462 81.4205C34.4978 79.4092 34.4978 76.1408 36.5462 74.1295L39.3731 71.3546C38.0477 69.2688 37.0652 66.9596 36.4906 64.492H32.4958C29.604 64.492 27.259 62.1827 27.259 59.3334C27.259 56.4841 29.604 54.1748 32.4958 54.1748H36.4906C37.0745 51.7072 38.057 49.3979 39.3731 47.3121L36.5462 44.5373C34.4978 42.526 34.4978 39.2576 36.5462 37.2463C38.5946 35.235 41.9035 35.235 43.9518 37.2463L46.7788 40.0305C48.9013 38.7269 51.2463 37.7585 53.7488 37.1905V33.261C53.7488 30.4116 56.0938 28.1024 58.9856 28.1024C61.8774 28.1024 64.2224 30.4116 64.2224 33.261V37.1905C66.7249 37.7585 69.0698 38.7362 71.1924 40.0305L74.0193 37.2463C76.0677 35.235 79.3766 35.235 81.4249 37.2463C83.4733 39.2576 83.4733 42.526 81.4249 44.5373L78.598 47.3121C79.9234 49.3979 80.9059 51.7072 81.4806 54.1748H85.4753C88.3671 54.1748 90.7121 56.4841 90.7121 59.3334C90.7121 62.1827 88.3671 64.492 85.4753 64.492ZM58.6704 45.0681C50.8477 45.0681 44.4987 51.3161 44.4987 59.0261C44.4987 66.7361 50.8477 72.9842 58.6704 72.9842C66.4932 72.9842 72.8422 66.7361 72.8422 59.0261C72.8422 51.3161 66.4932 45.0681 58.6704 45.0681ZM58.6704 66.913C54.2493 66.913 50.6623 63.3839 50.6623 59.0261C50.6623 54.6683 54.2493 51.1392 58.6704 51.1392C63.0916 51.1392 66.6785 54.6683 66.6785 59.0261C66.6785 63.3839 63.0916 66.913 58.6704 66.913Z" fill="#84841A"/>
<path opacity="0.4" d="M0 58.4953C0 19.4891 19.7978 0 59.4027 0C99.0075 0 118.815 19.4891 118.815 58.4953C118.815 97.5015 99.0075 117 59.4027 117C19.7978 117 0 97.4922 0 58.4953Z" fill="url(#paint0_linear_20_33)"/>
<path d="M60.7188 48.3737C84.5679 48.3737 103.901 39.498 103.901 28.5493C103.901 17.6006 84.5679 8.72498 60.7188 8.72498C36.8698 8.72498 17.5363 17.6006 17.5363 28.5493C17.5363 39.498 36.8698 48.3737 60.7188 48.3737Z" fill="url(#paint1_linear_20_33)"/>
<path fill-rule="evenodd" clip-rule="evenodd" d="M85.4753 63.0953H81.4806C80.8966 65.5628 79.9142 67.8721 78.598 69.9579L81.4249 72.7421C83.4733 74.7534 83.4733 78.0217 81.4249 80.033C79.3766 82.0443 76.0677 82.0443 74.0193 80.033L71.1924 77.2489C69.0698 78.5525 66.7249 79.5209 64.2224 80.0889V84.0184C64.2224 86.8677 61.8774 89.177 58.9856 89.177C56.0938 89.177 53.7488 86.8677 53.7488 84.0184V80.0889C51.2463 79.5209 48.9013 78.5432 46.7788 77.2489L43.9518 80.033C41.9035 82.0443 38.5946 82.0443 36.5462 80.033C34.4978 78.0217 34.4978 74.7534 36.5462 72.7421L39.3731 69.9579C38.0477 67.8721 37.0652 65.5628 36.4906 63.0953H32.4958C29.604 63.0953 27.259 60.786 27.259 57.9366C27.259 55.0873 29.604 52.778 32.4958 52.778H36.4906C37.0745 50.3105 38.057 48.0012 39.3731 45.9154L36.5462 43.1312C34.4978 41.1199 34.4978 37.8516 36.5462 35.8403C38.5946 33.829 41.9035 33.829 43.9518 35.8403L46.7788 38.6244C48.9013 37.3208 51.2463 36.3524 53.7488 35.7844V31.8549C53.7488 29.0056 56.0938 26.6963 58.9856 26.6963C61.8774 26.6963 64.2224 29.0056 64.2224 31.8549V35.7844C66.7249 36.3524 69.0698 37.3301 71.1924 38.6244L74.0193 35.8403C76.0677 33.829 79.3766 33.829 81.4249 35.8403C83.4733 37.8516 83.4733 41.1199 81.4249 43.1312L78.598 45.9154C79.9234 48.0012 80.9059 50.3105 81.4806 52.778H85.4753C88.3671 52.778 90.7121 55.0873 90.7121 57.9366C90.7121 60.786 88.3671 63.0953 85.4753 63.0953ZM58.6704 43.6806C50.8477 43.6806 44.4987 49.9287 44.4987 57.6387C44.4987 65.3487 50.8477 71.5967 58.6704 71.5967C66.4932 71.5967 72.8422 65.3487 72.8422 57.6387C72.8422 49.9287 66.4932 43.6806 58.6704 43.6806ZM58.6704 65.5256C54.2493 65.5256 50.6623 61.9965 50.6623 57.6387C50.6623 53.2809 54.2493 49.7518 58.6704 49.7518C63.0916 49.7518 66.6785 53.2809 66.6785 57.6387C66.6785 61.9965 63.0916 65.5256 58.6704 65.5256Z" fill="#D6D6D6"/>
<path fill-rule="evenodd" clip-rule="evenodd" d="M85.5124 60.5625H81.5176C80.9337 63.0301 79.9512 65.3394 78.6258 67.4252L81.4528 70.2093C83.5011 72.2206 83.5011 75.489 81.4528 77.5003C79.4044 79.5116 76.0955 79.5116 74.0471 77.5003L71.2202 74.7161C69.0977 76.0198 66.7527 76.9882 64.2502 77.5562V81.4857C64.2502 84.335 61.9052 86.6443 59.0134 86.6443C56.1216 86.6443 53.7766 84.335 53.7766 81.4857V77.5562C51.2741 76.9882 48.9291 76.0104 46.8066 74.7161L43.9797 77.5003C41.9313 79.5116 38.6131 79.5116 36.574 77.5003C34.5257 75.489 34.5257 72.2206 36.574 70.2093L39.401 67.4252C38.0756 65.3394 37.0931 63.0301 36.5184 60.5625H32.5236C29.6318 60.5625 27.2869 58.2533 27.2869 55.4039C27.2869 52.5546 29.6318 50.2453 32.5236 50.2453H36.5184C37.1024 47.7777 38.0848 45.4685 39.401 43.3827L36.574 40.5985C34.5257 38.5872 34.5257 35.3188 36.574 33.3075C38.6224 31.2962 41.9313 31.2962 43.9797 33.3075L46.8066 36.0917C48.9291 34.7881 51.2741 33.8197 53.7766 33.2517V29.3222C53.7766 26.4728 56.1216 24.1636 59.0134 24.1636C61.9052 24.1636 64.2502 26.4728 64.2502 29.3222V33.2517C66.7527 33.8197 69.0977 34.7974 71.2202 36.0917L74.0471 33.3075C76.0955 31.2962 79.4137 31.2962 81.4528 33.3075C83.5011 35.3188 83.5011 38.5872 81.4528 40.5985L78.6258 43.3827C79.9512 45.4685 80.9337 47.7777 81.5176 50.2453H85.5124C88.4042 50.2453 90.7492 52.5546 90.7492 55.4039C90.7492 58.2533 88.4042 60.5625 85.5124 60.5625ZM58.7075 41.1479C50.8848 41.1479 44.5358 47.396 44.5358 55.106C44.5358 62.8159 50.8848 69.064 58.7075 69.064C66.5303 69.064 72.8793 62.8159 72.8793 55.106C72.8793 47.396 66.5303 41.1479 58.7075 41.1479ZM58.7075 62.9929C54.2864 62.9929 50.6994 59.4638 50.6994 55.106C50.6994 50.7481 54.2864 47.219 58.7075 47.219C63.1287 47.219 66.7156 50.7481 66.7156 55.106C66.7156 59.4638 63.1287 62.9929 58.7075 62.9929Z" fill="white"/>
</g>
<defs>
<linearGradient id="paint0_linear_20_33" x1="59.4027" y1="114.598" x2="59.4027" y2="1.09877" gradientUnits="userSpaceOnUse">
<stop stop-color="#27443B"/>
<stop offset="1" stop-color="#5BA88C"/>
</linearGradient>
<linearGradient id="paint1_linear_20_33" x1="60.7188" y1="41.5576" x2="60.7188" y2="3.09147" gradientUnits="userSpaceOnUse">
<stop offset="0.13" stop-color="#87C140"/>
<stop offset="0.74" stop-color="#FAFF6A"/>
</linearGradient>
<clipPath id="clip0_20_33">
<rect width="119" height="117" fill="white"/>
</clipPath>
</defs>
</svg>
