<svg width="846" height="487" viewBox="0 0 846 487" fill="none" xmlns="http://www.w3.org/2000/svg">
<path d="M845.19 37.8599V151.23L843.65 156.66L845.19 163.44V177.38C845.19 179.93 842.7 181.99 839.64 181.97L837.52 181.95H837.21L751.32 181.22L684.19 181.82H684.17L662.85 182.01H571.67L527.6 179.61L480.51 177.04H389.33L247.24 179.65H247.22L203.79 182.02H103.72L75.54 182H75.52L22.62 181.96C21.98 181.99 21.44 181.57 21.44 181.03L17.15 176.84L5.96004 165.89L1.55004 154.78L15.34 142.87L1.54004 114.1L21.43 89.1399V70.5699L13.22 60.6699L1.54004 35.0099L21.43 37.5199C21.43 35.2399 23.61 33.3699 26.35 33.3099L91.22 31.8399C98.14 31.6899 105.03 31.1199 111.86 30.1499C131.86 27.3099 150.44 26.2499 169.04 26.2499C206.93 26.2499 339.25 30.6599 389.33 33.4199H480.51L531.83 29.9199C562.54 27.8299 593.41 27.9799 624.08 30.3799L662.86 33.4099L825.31 7.15991L836.94 23.9899L843.14 29.2299C845.52 32.4799 845.2 35.3599 845.2 37.8599H845.19Z" fill="#935116"/>
<path d="M845.19 192.48V326.79C845.19 329.34 842.7 331.4 839.64 331.37H839.27L835.93 331.34H835.57L834.96 331.33L751.32 330.62L662.85 331.41H571.67L480.5 326.44H389.32L224.51 330.28L203.78 331.41H103.71L22.6099 331.35C22.4099 331.36 22.2299 331.33 22.0699 331.26C21.6899 331.12 21.4299 330.8 21.4299 330.42L1.68994 310.98L24.0299 297.85L21.4299 289.74V219.95L23.0599 215.91L21.4299 210.65L19.8999 191.32C19.8999 189.04 24.1899 184.36 26.9199 184.29L75.5299 181.97L91.2199 181.22C98.1399 181.06 105.03 180.5 111.86 179.53C131.86 176.69 150.43 175.63 169.03 175.63C193.93 175.63 218.85 177.53 247.23 179.62C262.04 180.71 372.15 181.85 389.32 182.8H480.5L527.59 179.59L531.82 179.3C562.53 177.21 593.4 177.36 624.07 179.76L652.51 181.99L662.84 182.8L684.16 181.8L757.63 178.35L831.52 180.6C833.49 180.7 835.42 181.11 837.16 181.79C837.27 181.83 837.39 181.88 837.5 181.93C841.93 183.76 845.17 187.4 845.17 192.46L845.19 192.48Z" fill="#935116"/>
<path d="M845.19 470.37C845.19 472.65 840.9 477.33 838.17 477.39L773.87 480.46C766.95 480.62 760.05 481.18 753.23 482.15C733.23 484.99 714.66 486.05 696.06 486.05C658.17 486.05 620.22 481.64 570.13 478.88H478.96L427.64 482.38C396.93 484.47 271.69 484.31 241.02 481.92L202.24 478.88L107.45 483.33L32.65 479.53C27.21 479.25 9 470.32 2.93 461.39C1.02 458.59 3.92 456.1 4.15 453.47L19.9 460.3V436.53L13.39 423.7L6.07 416.34L4.16 414.41L0 410.28L19.89 404.59V385.19L19.71 377.51L0 358.06L19.89 334.92C19.89 333.43 20.74 332.1 22.06 331.27C22.99 330.68 24.17 330.33 25.44 330.34L113.76 331.09L202.23 330.29H387.78L480.49 326.45L570.12 335.26L640.58 331.42L661.29 330.29H761.36L835.55 331.34C835.66 331.12 835.78 330.94 835.91 330.8C836.78 329.8 838.01 330.3 839.25 331.37C841.45 333.29 843.64 337.06 843.64 337.38V348.87L841.04 363.85L843.64 371.96V441.74L842.01 445.78L843.64 451.04L845.17 470.37H845.19Z" fill="#935116"/>
<path d="M825.3 7.17V49.52L814.54 52.16L821.73 60.84L825.3 65.14V124.99L813.22 130.59L825.3 137.2V151.15C825.3 153.7 820.96 153.83 817.9 153.81L785.36 154.25L731.43 154.98L687.9 153.56L648.08 152.26L641.57 152.05L614.7 153.17L576.56 154.75L551.79 155.78L516.95 153.88L460.62 150.81H275.08L183.91 155.78H83.84L2.74005 155.72C2.10005 155.75 1.56005 155.32 1.56005 154.79V137.2L4.07005 134.32L16.9 119.63L17.7801 118.62L1.55005 114.11V44.32L9.67005 37.43L1.55005 35.01V11.27C1.55005 11.17 1.55005 11.08 1.56005 10.99C1.74005 8.83 3.84005 7.12 6.46005 7.06L71.34 5.59C78.26 5.44 85.15 4.87 91.97 3.9C111.97 1.06 130.56 0 149.17 0C164.2 0 179.24 0.69 195.05 1.7C219.08 3.23 244.87 5.5 275.07 7.16H460.61L493.16 4.94L511.93 3.66C542.64 1.57 573.5 1.72 604.18 4.12L642.95 7.16L737.74 2.71L825.3 7.16V7.17Z" fill="#E0A360"/>
<path d="M825.3 205.28L822.18 208.43L822.44 208.7L825.3 211.66V280.76L822.18 288.26L825.3 292.97V303.65C825.3 306.2 823.95 308.42 820.89 308.39L784.13 309.35L731.43 310.74L642.96 311.54H551.79L548.39 311.35L460.61 306.56L273.05 303.46L183.9 311.53H83.83L2.73005 311.47C2.09005 311.5 1.55005 311.07 1.55005 310.54V292.95L3.68005 280.61L4.14005 277.96L3.31005 275.36L1.55005 269.86V200.07L3.18005 196.03L1.55005 190.76V190.7L2.10005 175.02C2.10005 172.73 6.48005 168.49 9.21005 168.43L71.33 161.34C78.25 161.19 85.14 160.62 91.96 159.65C112.18 156.78 129.97 155.71 147.47 155.71C182.53 155.71 216.4 160.01 266.21 162.76L274.37 164.88L460.61 162.92L511.94 159.42C542.65 157.33 573.51 157.48 604.19 159.88L640.57 162.73L642.96 162.92L737.75 158.47L812.55 162.27C819.7 162.64 825.31 165.43 825.31 172.58V205.26L825.3 205.28Z" fill="#E0A360"/>
<path d="M825.3 455.45C825.3 457.73 821.01 462.41 818.27 462.48L768.98 464.83L753.97 465.55C747.05 465.71 740.16 466.27 733.34 467.24C713.34 470.08 694.76 471.14 676.16 471.14C638.27 471.14 600.32 466.73 550.24 463.97H459.07L407.74 467.47C377.03 469.56 251.8 469.41 221.12 467.01L182.35 463.97L87.56 468.42L43.26 466.17L12.76 464.62C5.61 464.26 0 461.47 0 454.31V421.62L13.46 417.85L0 415.25V370.27L14.34 362.76L0 358.05V319.99C0 317.44 2.5 315.38 5.56 315.41L93.88 316.16L182.35 315.36H273.52L402 313.95L428.08 312.87L460.6 311.52L550.24 320.33L641.41 315.36H741.48L818.23 319.82C818.87 319.79 823.76 321.92 823.76 322.46V333.94L823.67 334.44L822.18 343.07L821.17 348.93L823.76 357.04V426.83L822.13 430.87L823.76 436.13L825.3 455.46V455.45Z" fill="#E0A360"/>
<path d="M825.3 49.51L814.54 52.15L825.3 65.13V75.43C816.76 74.93 805.15 70.19 786.42 69.26C759.38 67.92 750.78 76.19 725.56 79.54C689.91 84.27 664.32 73.42 643.76 67.68C585.98 51.57 570.91 76.73 466.72 80.33C400.08 82.63 221.89 60.76 159.75 73.22C137.92 77.6 108.68 82.76 77.56 91C42.1 100.39 15.67 100.87 1.53003 109.72V77.89C46.3 88.15 94.24 62.86 52.26 72.69C45.21 74.35 5.99003 64.31 1.53003 67.25V56.36C8.56003 50.43 39.89 54.41 52.44 49.91C92.66 35.46 100.56 41.54 133.06 48.64C133.06 48.64 100.09 24.12 47.88 33.43C41.06 34.65 7.13003 29.2 1.54003 27.41V21.99C6.68003 22.89 12.44 23.59 18.69 23.83C35.37 24.47 44.46 21.43 61.76 18.43C89.3 13.66 100.53 15.45 127.1 13.69C150.64 12.13 163.63 9.28 177.12 6C180.92 6.36 184.11 6.71 186.64 6.98C224.36 10.97 353.98 11.63 380.07 12.12C414.54 12.76 416.66 11.16 450.15 12.38C478.14 13.4 478.15 14.57 507.32 16.07C523.13 16.88 537.28 17.26 553.03 17.36C593.1 24.09 617.36 27.62 650.1 25.82C687.78 23.75 692.85 17.05 722.81 20.29C753.5 23.6 760.06 31.91 788.41 30.56C806.31 29.71 817.23 25.75 825.31 25.67V49.54L825.3 49.51Z" fill="#EAB26E"/>
<path d="M419.64 23.55C390.66 26.75 389.66 27.9 379.53 28.56C353.87 30.24 254.29 23.64 219.29 20.54C187.14 17.69 159.8 20.45 159.76 21.54C159.72 22.48 179.94 21.97 207.89 25.8C248.1 31.32 247.71 38.07 273.33 40.09C305.85 42.65 406.06 32.19 455.94 29.81C491.26 28.13 512.94 30.31 512.94 30.31C512.94 30.31 483.87 19.42 451.3 20.53C444.88 20.75 436.47 21.68 419.63 23.54L419.64 23.55Z" fill="#E0A360"/>
<path d="M746.25 77.42C746.3 78 758.28 75.27 774.7 78.48C784.89 80.47 787.82 83 801.22 87.96C810.92 91.56 819.06 93.82 825.3 95.38V101.85C817.57 102.27 807.25 102.92 795.77 104.82C772.7 108.64 770.47 113.91 748.87 118.78C722.89 124.65 701.51 123.17 689.07 122.21C655.19 119.61 650.57 111.32 625.58 111.15C601.6 110.98 588.19 118.49 566.57 125.9C485.3 153.79 403.94 140.69 381.76 136.44C354.6 131.23 257.4 126.95 232.46 124.58C178.15 119.44 134.51 134.36 134.72 135.65C134.86 136.53 155.74 131.07 188.2 133.01C215.13 134.62 237.4 140.56 237.2 141.97C237.02 143.28 217.51 139.6 190.05 140.92C162.54 142.24 142.87 147.81 136.57 149.35C114.85 154.65 76.64 154.79 4.04004 134.31L16.87 119.62C35.31 123.46 50.54 123.56 62.14 122.61C95.36 119.88 109.51 107.66 162.91 99.69C173.57 98.1 189.73 95.74 208.75 95.35C260.09 94.29 377.29 108.58 416.93 115.9C487.82 128.98 548.67 107.94 558.87 104.5C553.64 105.84 535.19 98.7 510.98 99.43C459.61 100.99 418.21 87.73 418.51 86C418.74 84.69 445.22 89.63 481.74 87.45C513.99 85.53 509.8 78.51 549.88 73.75C566.21 71.81 592.33 82.77 618.46 85.47C650.56 88.79 652.98 95.83 679.71 99.3C729.46 105.76 773.79 88.23 773.36 85.33C773.17 84.01 763.65 85.61 743.33 85.07C704.17 84.02 670.64 76.2 670.88 73.75C671.11 71.49 699.52 79.56 737 69.8C762.67 63.11 769.3 54.13 788.37 53.99C800.66 53.9 812.64 56.96 821.71 60.84L825.28 65.14V78.33C820.92 78.87 816.32 79.04 813.14 79.02C801.3 78.94 797.42 76.02 786 74.28C764.11 70.93 746.16 76.74 746.22 77.44L746.25 77.42Z" fill="#EAB26E"/>
<path d="M763.5 165.28C762.58 167.27 778.43 179.05 797.88 186.23C807.55 189.79 816.79 191.73 825.3 192.68V205.27L822.18 208.42L825.3 211.64V222.19C818.2 223.52 810.73 224.04 803.15 223.37C788.57 222.08 783.39 217.23 762.05 215.99C743.22 214.91 729.78 217.67 718.32 219.68C718.32 219.68 680.43 231.8 637.18 227.58C593.01 223.27 589.66 215.23 531.28 213.88C504.58 213.27 497.18 211.23 463.97 217.83C428.95 224.8 405.76 234.7 388.1 236.4C338.97 241.13 226.42 227.84 171.89 218.09C141.74 212.7 108.13 208.98 66.78 217.56C39.66 223.19 17.29 231.95 1.55005 238.73V226.43C6.16005 223.64 11.19 220.88 16.46 218.36C57.87 198.5 95.59 201.75 95.49 199.65C95.41 197.8 66.18 195 30.42 200.44C19.82 202.05 10.14 204.16 1.55005 206.44V200.07L3.18005 196.03L1.55005 190.76V190.7C13.44 185.81 28.8601 180.51 47.1501 176.72C60.59 173.94 95.0001 167.97 189.02 181.47C251.15 190.39 351.77 196.05 386.92 195.3C430.29 194.37 469.32 184.71 469.12 183.05C469.01 182.17 457.72 183.63 430 184.63C398.18 185.78 284.93 186.38 262.13 183.45C236.77 180.18 214.43 173.54 214.71 171.99C215.01 170.31 241.18 176.4 279.52 177.53C320.06 178.72 420.68 172.96 475.45 171.6C498.11 171.04 517.94 170.55 544.21 173.18C586.2 177.39 591.7 184.28 626.67 188.59C684.01 195.67 733.18 185.04 733.1 181.74C733.05 179.84 716.62 180.64 689.63 175.15C680.19 173.24 652.25 168.04 640.58 162.73L642.97 162.92L737.76 158.47L812.56 162.27C819.71 162.64 825.32 165.43 825.32 172.58V176.71C817.73 176.83 809.76 176.39 801.85 175.15C780.24 171.78 764.41 163.36 763.52 165.27L763.5 165.28Z" fill="#EAB26E"/>
<path d="M16.45 384.7C57.86 364.84 95.5799 368.09 95.4799 365.99L16.45 384.7Z" fill="#EAB26E"/>
<path d="M823.76 372.5L819.92 374.75L823.76 377.05V388.68C812 389.89 799.66 390.34 787.16 389.7C762.06 388.4 753.14 383.56 716.4 382.32C683.98 381.24 660.84 384 641.1 386.01C576.32 402.34 531.18 399.73 501.39 393.91C493.47 392.36 459.16 385.22 415.37 382.22C399.55 381.14 291.71 380.84 275.95 382.22C246.49 384.8 226.77 391.71 226.55 390.91C226.29 389.97 347.62 377.75 383.75 372.73C413.42 368.61 437.19 371.04 471.08 374.71C508.88 378.8 506.87 381.67 529.96 383.4C588.79 387.82 636.15 371.79 635.87 369.97C635.63 368.44 601.88 378.62 551.7 374.31C515.16 371.18 508.59 365.96 470.63 362.99C425.37 359.44 397.07 364.87 396.8 362.86C396.54 360.99 422.63 353.88 453.7 353.38C468.93 353.13 485.34 353.66 488.34 354.12C573.52 367.2 666.57 352.41 666.51 348.07C666.48 346.12 641.19 347.32 591.66 341.48C575.41 339.57 527.3 334.37 507.21 329.06L511.33 329.25L674.55 324.8L803.34 328.6C812.65 328.88 820.44 330.54 823.68 334.43L822.19 343.06C810.07 343.09 797.44 342.62 784.89 341.49C747.69 338.12 715.12 350.02 713.58 351.93C711.99 353.92 744.6 345.38 778.09 352.55C794.17 355.99 809.55 357.92 823.77 358.9V372.5H823.76Z" fill="#EAB26E"/>
<path d="M207.44 263.15C207.41 265.06 175.76 280.05 140.23 277.38C94.2 273.92 91.29 263.94 55.9 262.36C30.71 261.24 17.51 265.65 1.53003 269.4V248.07C8.21003 247.32 15.73 246.64 24.04 246.16C44.56 244.97 60.08 244.07 79.67 246.95C109.94 251.41 112.32 259.36 147.41 267.1C181.87 274.7 207.47 261.44 207.44 263.15Z" fill="#EAB26E"/>
<path d="M67.03 217.26C67.15 215.37 88.38 213.26 111.82 215.94C140.97 219.27 150.9 225.34 191.29 237.28C207.24 242 217.04 241.36 225.89 241.67C245.19 242.34 257.93 238.48 266.07 237.41C295.2 233.59 405 245.37 437.89 254.01C500.4 270.43 549.27 255.37 549.72 259.54C550.07 262.8 520.32 272.97 484.52 272.98C440.78 272.98 431.53 257.79 381.38 254.8C344.48 252.6 234.91 254.43 204.46 250.83C165.55 246.22 150.53 233.84 122.75 226.59C77.04 214.67 66.9 219.32 67.03 217.25V217.26Z" fill="#EAB26E"/>
<path d="M586.07 146.97C602.23 148.02 608.6 150.97 614.69 153.15L576.55 154.73L551.78 155.76L516.94 153.86C525.1 152.02 535 150.16 546.3 148.81C557.17 147.51 570.3 145.94 586.08 146.96L586.07 146.97Z" fill="#EAB26E"/>
<path d="M785.36 154.23L731.43 154.96L687.9 153.54L648.08 152.24C658.6 148.14 667.31 141.34 688.82 137.23C694.47 136.15 707.33 133.78 723.33 134.86C750.76 136.71 760.43 146.88 785.36 154.24V154.23Z" fill="#EAB26E"/>
<path d="M825.3 213.14V223.16C816.51 222.34 805.55 221.92 793.23 222.71C761.81 224.75 754.77 235.89 723.02 245.11C679.97 257.61 640.52 252.32 606.39 247.74C570.74 242.96 566.81 237.16 528.34 234.04C491.1 231.02 464.81 232.2 464.81 232.2C464.81 232.2 495.33 223.24 526.62 224.64C548.37 225.62 558.71 228.09 597.98 236.42C631.71 243.58 648.91 243.51 667.42 242.48C678.89 241.85 699.31 239.03 720.13 231.68C745.51 222.72 756.98 218.5 756.98 218.5C761.14 216.97 762.41 216.49 764.71 215.78C773.41 213.1 783.49 211.28 799.43 211.13C811.71 211.01 819.37 211.99 825.31 213.15L825.3 213.14Z" fill="#EAB26E"/>
<path d="M825.3 298.72V303.64C825.3 306.19 823.95 308.41 820.89 308.38L784.13 309.34C768.65 305.79 757.96 300.11 732.22 299.47C720.39 299.18 710.07 301.74 698.58 303.31C663.9 308.04 630.93 294.69 596.61 298.31C581.74 299.88 567.93 304.04 554.26 309.18C552.36 309.9 550.39 310.62 548.37 311.35L460.59 306.56L273.03 303.46L183.88 311.53H83.81L2.71003 311.47C2.07003 311.5 1.53003 311.07 1.53003 310.54V292.95L3.66003 280.61L4.12003 277.96L3.29003 275.36C11.72 277.82 15.1 283.36 31.63 288.1C53.79 294.46 74.91 292.19 114.68 288.24C139.41 285.79 139.93 284.36 155.6 283.58C182.42 282.26 196.84 286.08 219.88 288.21C238.11 289.89 358.05 292.67 388.62 287.66C401.04 285.62 404.01 284.01 415.69 283.16C456.7 280.14 498.68 299.38 538.93 286.61C547.59 283.86 555.64 279.17 564.48 277.25C574.46 275.09 584.82 274.3 595.09 274.35C611.88 274.42 627.69 277.97 644.2 280.04C658.78 281.87 673.53 282.54 688.22 282.04C712.5 281.22 733.98 275.66 757.91 283.74C780.16 291.25 801.75 297.85 825.29 298.73L825.3 298.72Z" fill="#EAB26E"/>
<path d="M825.3 249.06V273.23C817.03 275.38 807.86 276.11 806.31 276.24C781.56 278.24 776.47 269.07 746.25 268.69C743.29 268.65 745.98 268.77 712 270.79C681.61 272.6 679.06 272.53 676.53 272.37C650.71 270.78 629.75 260.79 630.16 259.19C630.48 257.95 645.89 264.22 668.93 265.78C684.61 266.84 702.54 266.36 725.71 260.07C743.04 255.36 745.37 250.91 769.09 244.96C782.27 241.66 789.05 240.02 798.07 240.75C807.88 241.53 817.72 244.87 825.32 249.05L825.3 249.06Z" fill="#EAB26E"/>
<path d="M825.3 256.86V261.42C820.74 264.64 807.68 267.95 794.85 266.97C782.77 266.05 778.16 261.87 760.73 261.04C752.1 260.63 750.91 261.01 751.6 260.64C762.58 254.8 772.64 248.35 798.49 249.71C808.98 250.26 820.95 253.63 825.3 256.86Z" fill="#E0A360"/>
<path d="M387.3 334.41C385.23 336.56 276.66 344.17 255.78 348.64C211.4 358.13 195.56 343.39 147.11 342.71C98.59 342.03 93.97 356.53 45.95 353.77C28.49 352.76 13 349.93 0 346.58V332.51C16.62 337.2 30.41 338.3 40.42 338.36C69.87 338.52 77.75 329.62 117.48 327.29C124.57 326.88 142.85 326.08 166.08 328.48C192.51 331.21 196.15 335.05 216.66 337.57C260.33 342.94 387.3 334.41 387.3 334.41Z" fill="#EAB26E"/>
<path d="M69.93 364.58C93.39 364.85 110.96 356.44 133.95 354.04C146.63 352.72 155.97 353.4 168.46 354.3C194.06 356.16 201.23 360.18 218.25 362.2C258.62 367.01 382.82 352.77 383.49 355.09C384.06 357.09 267.34 366.51 238.8 374.58C206.46 383.72 176.64 392.16 138.43 389.86C91.35 387.03 72.17 370.89 35.42 365.36C33.51 365.07 35.16 364.17 69.93 364.57V364.58Z" fill="#EAB26E"/>
<path d="M0 397.21V375.94C7.36 374.43 13.46 374.3 17.5 374.24C37.95 373.93 50.61 379.87 69.66 386.01C73.86 387.36 102.68 396.53 129.2 399.53C173.04 404.49 205.44 391.99 205.78 393.56C206.07 394.94 180.86 404.88 148.35 406.91C112.59 409.14 82.52 400.91 78.27 399.71C60.04 394.56 58.43 391.27 45.43 390.05C26.76 388.29 9.5 393.11 0 397.21Z" fill="#EAB26E"/>
<path d="M825.3 455.45C825.3 457.73 821.01 462.41 818.27 462.48L768.98 464.83C762.2 462.22 756.12 459.65 745.32 457.31C704.76 448.54 683.05 460.58 641.39 464.82C597.01 469.33 596.04 458.27 527.19 453.36C450.62 447.89 351.62 461.16 266.85 458.49C180.29 455.77 189.02 442.06 136.05 446.24C96.34 449.37 66.91 459.01 43.25 466.15L12.75 464.6C5.59999 464.24 -0.0100098 461.45 -0.0100098 454.29V421.6L13.45 417.83L-0.0100098 415.23V400.5C5.03999 399.48 12.41 398.36 21.53 398.46C33.64 398.59 43.1 400.88 46.12 401.62C79.22 409.75 102.6 415.5 117.78 417.6C136.38 420.18 158.34 416.22 202.26 408.29C239.2 401.62 239.14 398.93 259.73 397.22C278.1 395.7 388.45 396.52 427.21 401.56C479.03 408.31 486.1 411.47 509.14 414.08C571.36 421.11 574.92 404.25 643.5 406.7C710.73 409.11 709.36 425.39 757.31 420.4C786.03 417.41 807.15 409.42 823.76 404.23V426.79L822.13 430.83L823.76 436.09L825.3 455.42V455.45Z" fill="#EAB26E"/>
<path d="M115.13 368.11C127.07 368.25 136.01 363.97 147.72 362.75C154.18 362.08 158.93 362.42 165.29 362.88C178.32 363.83 181.97 365.87 190.64 366.9C211.19 369.35 215.63 369.09 201.1 373.2C184.64 377.85 169.46 382.15 150.01 380.98C126.05 379.54 116.28 371.32 97.57 368.51C96.6 368.36 97.44 367.91 115.14 368.11H115.13Z" fill="#E0A360"/>
<path d="M175.57 428.33C182.91 426.91 193.55 424.88 206.39 422.53C252.24 414.16 369.88 409.96 386.67 409.36C393.25 409.13 397.74 409.25 457.02 417C535.03 427.2 539.17 429.41 537.64 429.65C486.59 437.55 362.99 452.1 277.98 445.98C234.79 442.87 199.64 434.99 175.57 428.33Z" fill="#E0A360"/>
<path d="M200.07 429.69C205.43 428.88 213.19 427.73 222.55 426.39C256 421.62 367.35 419.23 379.6 418.89C384.4 418.76 387.67 418.83 430.93 423.24C487.84 429.05 490.87 430.3 489.75 430.44C452.5 434.94 336.81 443.22 274.79 439.74C243.28 437.97 217.63 433.48 200.07 429.69Z" fill="#EAB26E"/>
<path d="M247.43 429.7C250.17 429.33 254.13 428.81 258.92 428.21C276.02 426.06 379.06 424.98 385.33 424.83C387.78 424.77 389.46 424.8 411.56 426.79C440.65 429.41 442.19 429.98 441.62 430.04C422.58 432.07 411.68 435.81 379.99 434.24C363.89 433.44 256.41 431.42 247.43 429.71V429.7Z" fill="#E0A360"/>
<path d="M507.56 442.56C507.5 441.12 520.09 440.29 543.65 435.97C564.03 432.23 566.65 430.65 590.28 425.7C619.11 419.66 624.23 417.31 635.51 417.15C651.37 416.92 668.12 420.81 695.48 426.4C722.67 431.96 730.19 432.46 743.87 433.34C772.76 435.2 792.45 426.8 792.87 428.33C793.29 429.87 773.75 438.86 748.35 442.29C731.92 444.51 724.64 442.84 709.62 442.82C668.9 442.76 666.62 454.95 630.59 455.73C606.16 456.26 609.28 450.61 562.88 446.51C530.56 443.65 507.64 444.5 507.56 442.56Z" fill="#E0A360"/>
<path d="M537.86 348.44C537.78 349.75 520.26 350.95 499.92 348.16C480.96 345.55 479 342.15 454.87 337.04C431.11 332.01 429.63 334.6 408.77 329.54C382.66 323.2 291.56 319.38 275.14 317.03C251.38 313.62 244 321.55 215.87 317.86C213.04 317.49 206.41 316.62 200.51 315.37H273.52L402 313.96C407.38 316.58 413.89 319.27 422.2 321.48C437.92 325.65 442 323.24 460.14 327.59C476.68 331.56 476.62 334.35 495.44 339.82C520.63 347.15 537.94 347.14 537.85 348.44H537.86Z" fill="#EAB26E"/>
<path d="M569.59 439.9C569.56 439.09 576.67 438.62 589.99 436.18C601.51 434.07 602.99 433.17 616.35 430.37C632.65 426.96 635.54 425.63 641.92 425.54C650.88 425.41 660.35 427.61 675.81 430.77C691.18 433.91 695.43 434.19 703.16 434.69C719.49 435.74 733.89 436.81 734.13 437.68C734.37 438.55 717.14 436 702.78 437.94C693.5 439.19 692.29 440.06 683.8 440.04C660.78 440 659.5 446.89 639.13 447.34C625.32 447.64 627.08 444.45 600.86 442.13C582.59 440.51 569.64 440.99 569.59 439.9Z" fill="#EAB26E"/>
<path d="M553.01 17.3299C537.26 17.2299 523.11 16.8499 507.3 16.0399C478.14 14.5399 478.12 13.3699 450.13 12.3499C416.64 11.1299 414.53 12.7299 380.05 12.0899C353.96 11.5999 224.34 10.9399 186.62 6.94994C184.09 6.67994 180.9 6.32994 177.1 5.96994C182.72 4.59994 188.42 3.14994 195.02 1.68994C219.05 3.21994 244.84 5.48994 275.04 7.14994H460.58L493.13 4.92994C503.28 7.78994 516.58 11.1699 542.18 15.4999C545.91 16.1299 549.51 16.7399 552.98 17.3199L553.01 17.3299Z" fill="#F9C287"/>
<path d="M195.04 1.7C188.44 3.15 182.73 4.6 177.12 5.97C167.59 5.08 154.22 4.19 137.89 4.57C136.35 4.61 137.78 4.59 112.86 5.89C100.98 6.51 92.33 6.95 85.79 7.27C74.47 7.82 69.55 8.01 65.4 8.15C64.95 8.17 64.5 8.18 64.06 8.19C60.61 8.3 57.05 8.4 53.87 8.49C47.82 8.66 43.11 8.78 43.11 8.78C39.9 8.86 36.69 9.16 33.49 9.37C30.06 9.6 26.63 9.72 23.22 9.37C23.22 9.37 15.32 8.55 7.02003 10.22C6.05003 10.42 4.15003 10.84 2.67003 12.39C2.18003 12.91 1.81003 13.5 1.53003 14.1V11.24C1.53003 11.14 1.53003 11.05 1.53003 10.96C1.71003 8.81 3.82003 7.08 6.43003 7.03L33.48 6.42L53.89 5.96L65.36 5.7L71.31 5.57C76.13 5.45 80.95 5.15 85.73 4.65C87.81 4.43 89.88 4.18 91.95 3.89C111.96 1.07 130.55 0 149.15 0C164.18 0 179.22 0.69 195.04 1.7Z" fill="#F2B879"/>
<path d="M825.3 7.16996V24.25C823.2 21.19 820.49 18.61 816.85 17.63C811.99 16.31 807.72 18.45 805.26 19.47C792.84 24.63 779.76 20.7 765.44 16.46C760.19 14.9 754.77 13.29 749.15 12.09C747.54 11.74 746.07 11.46 744.72 11.25C730.7 9.01996 727.39 13.35 674.34 15.78C662.07 16.34 648.86 16.51 622.44 16.84C593.21 17.2 571.96 17.46 553.03 17.34C549.55 16.76 545.95 16.15 542.23 15.52C516.63 11.19 503.33 7.80996 493.18 4.95996L511.95 3.66996C542.65 1.57996 573.52 1.73996 604.19 4.12996L642.96 7.16996L737.76 2.71996L744.79 3.06996L765.15 4.10996L776.52 4.68996L796.95 5.72996L825.3 7.17996V7.16996Z" fill="#F2B879"/>
</svg>
