<svg width="419" height="132" viewBox="0 0 419 132" fill="none" xmlns="http://www.w3.org/2000/svg">
<path d="M380.01 0.709991H38.28C17.5307 0.709991 0.710022 17.5307 0.710022 38.28V93.01C0.710022 113.759 17.5307 130.58 38.28 130.58H380.01C400.759 130.58 417.58 113.759 417.58 93.01V38.28C417.58 17.5307 400.759 0.709991 380.01 0.709991Z" fill="url(#paint0_linear_5_15)" stroke="#894507" stroke-width="1.42" stroke-miterlimit="10"/>
<path d="M403.4 65.53L406.1 67.25C406.76 67.67 407.16 68.44 407.16 69.27V89.45C407.16 105.47 395.36 118.46 380.81 118.46H37.48C22.92 118.46 11.13 105.47 11.13 89.45C11.13 88.77 11.46 88.14 12 87.8L14.89 85.96C15.63 85.49 15.63 84.3 14.89 83.83L12 81.99C11.46 81.65 11.13 81.02 11.13 80.34V41.83C11.13 25.82 22.93 12.83 37.49 12.83H380.81C395.37 12.83 407.17 25.82 407.17 41.84V59.67C407.17 60.5 406.77 61.27 406.11 61.69L403.41 63.41C402.67 63.88 402.67 65.07 403.41 65.54L403.4 65.53Z" fill="url(#paint1_linear_5_15)" stroke="#894507" stroke-width="1.42" stroke-miterlimit="10"/>
<path d="M21.4 110.64C22.48 110.64 405.75 90.8 405.75 90.8C405.75 90.8 405.39 99.84 402.51 102.38C399.63 104.91 24.39 113.78 24.39 113.78L21.4 110.64Z" fill="#E48505"/>
<path d="M21.91 19.4L399.22 22.29C399.22 22.29 393.25 13.79 380.41 13.61C367.57 13.43 34.58 13.61 34.58 13.61C32.37 14.11 26.66 15.41 21.92 19.4H21.91Z" fill="url(#paint2_linear_5_15)"/>
<mask id="path-5-outside-1_5_15" maskUnits="userSpaceOnUse" x="115" y="34" width="188" height="59" fill="black">
<rect fill="white" x="115" y="34" width="188" height="59"/>
<path d="M117.09 90V51.5H132.875C135.772 51.5 138.082 52.325 139.805 53.975C141.528 55.5883 142.39 57.6967 142.39 60.3C142.39 61.8767 142.097 63.215 141.51 64.315C140.96 65.415 140.263 66.295 139.42 66.955C138.613 67.615 137.788 68.0917 136.945 68.385V68.825C137.898 69.0817 138.907 69.65 139.97 70.53C141.07 71.41 141.987 72.565 142.72 73.995C143.49 75.425 143.875 77.1117 143.875 79.055C143.875 81.365 143.398 83.345 142.445 84.995C141.528 86.6083 140.208 87.855 138.485 88.735C136.798 89.5783 134.8 90 132.49 90H117.09ZM127.54 80.54H129.96C130.693 80.54 131.353 80.265 131.94 79.715C132.563 79.165 132.875 78.45 132.875 77.57C132.875 76.58 132.6 75.8467 132.05 75.37C131.537 74.8567 130.858 74.6 130.015 74.6H127.54V80.54ZM127.54 66.515H129.63C130.363 66.515 130.987 66.2217 131.5 65.635C132.013 65.0483 132.27 64.2967 132.27 63.38C132.27 62.4633 132.013 61.7483 131.5 61.235C130.987 60.7217 130.363 60.465 129.63 60.465H127.54V66.515ZM144.004 90V88.46L150.879 51.5L167.214 51.555L174.089 88.46V90H163.144L162.319 82.905H155.829L155.004 90H144.004ZM156.819 73.83H161.329L159.899 61.455H158.249L156.819 73.83ZM159.074 49.245C161.787 49.245 163.841 48.97 165.234 48.42C166.664 47.87 167.856 47.1917 168.809 46.385V43.91H168.369C167.526 44.5333 166.334 45.01 164.794 45.34C163.254 45.6333 161.347 45.78 159.074 45.78C156.801 45.78 154.894 45.6333 153.354 45.34C151.814 45.01 150.622 44.5333 149.779 43.91H149.339V46.385C150.292 47.1917 151.484 47.87 152.914 48.42C154.344 48.97 156.397 49.245 159.074 49.245ZM168.259 37.42L168.699 37.53V40.94C167.746 41.5267 166.591 42.0217 165.234 42.425C163.877 42.7917 162.447 43.085 160.944 43.305C159.477 43.525 158.066 43.69 156.709 43.8C155.389 43.8733 154.271 43.91 153.354 43.91V41.49C154.637 41.49 156.177 41.3617 157.974 41.105C159.771 40.8117 161.586 40.3717 163.419 39.785C165.252 39.1617 166.866 38.3733 168.259 37.42ZM197.676 51.5V61.18H191.461V90H181.011V61.18H174.521V51.5H197.676ZM226.887 72.565H223.477V80.045H224.192C225.768 80.045 227.07 79.2383 228.097 77.625C229.16 75.975 229.692 73.6833 229.692 70.75C229.692 67.7433 229.16 65.4517 228.097 63.875C227.033 62.2617 225.732 61.455 224.192 61.455H223.477V69.045H226.887V72.565ZM211.652 72.565V69.045H213.027V51.5H224.302C227.308 51.5 230.022 52.1967 232.442 53.59C234.862 54.9467 236.787 57.0367 238.217 59.86C239.647 62.6833 240.362 66.3133 240.362 70.75C240.362 75.15 239.647 78.78 238.217 81.64C236.787 84.4633 234.862 86.5717 232.442 87.965C230.022 89.3217 227.308 90 224.302 90H213.027V72.565H211.652ZM241.113 90V88.46L247.988 51.5L264.323 51.555L271.198 88.46V90H260.253L259.428 82.905H252.938L252.113 90H241.113ZM253.928 73.83H258.438L257.008 61.455H255.358L253.928 73.83ZM253.708 42.37H258.658C259.428 43.69 260.418 44.7533 261.628 45.56C262.838 46.3667 264.415 46.77 266.358 46.77V49.19C264.488 49.19 262.637 48.9333 260.803 48.42C259.007 47.9067 257.577 46.99 256.513 45.67H255.853C254.79 46.99 253.342 47.9067 251.508 48.42C249.712 48.9333 247.878 49.19 246.008 49.19V46.77C247.952 46.77 249.547 46.3667 250.793 45.56C252.04 44.7167 253.012 43.6533 253.708 42.37ZM259.263 36.815C260.473 37.7683 261.903 38.5567 263.553 39.18C265.203 39.7667 266.817 40.2067 268.393 40.5C270.007 40.7567 271.382 40.885 272.518 40.885V43.305C271.712 43.305 270.703 43.2683 269.493 43.195C268.32 43.085 267.073 42.92 265.753 42.7C264.433 42.48 263.168 42.1867 261.958 41.82C260.748 41.4167 259.722 40.9217 258.878 40.335V36.925L259.263 36.815ZM300.45 75.92C300.45 78.5967 300.047 80.8883 299.24 82.795C298.47 84.665 297.407 86.1683 296.05 87.305C294.73 88.4417 293.263 89.285 291.65 89.835C290.037 90.3483 288.405 90.605 286.755 90.605C285.142 90.605 283.528 90.3483 281.915 89.835C280.302 89.285 278.835 88.4417 277.515 87.305C276.195 86.1683 275.132 84.665 274.325 82.795C273.555 80.8883 273.17 78.5967 273.17 75.92V51.5H283.785V74.325C283.785 75.315 283.84 76.25 283.95 77.13C284.097 77.9733 284.372 78.6517 284.775 79.165C285.215 79.6783 285.875 79.935 286.755 79.935C287.672 79.935 288.332 79.6783 288.735 79.165C289.175 78.6517 289.468 77.9733 289.615 77.13C289.762 76.25 289.835 75.315 289.835 74.325V51.5H300.45V75.92Z"/>
</mask>
<path d="M117.09 90V51.5H132.875C135.772 51.5 138.082 52.325 139.805 53.975C141.528 55.5883 142.39 57.6967 142.39 60.3C142.39 61.8767 142.097 63.215 141.51 64.315C140.96 65.415 140.263 66.295 139.42 66.955C138.613 67.615 137.788 68.0917 136.945 68.385V68.825C137.898 69.0817 138.907 69.65 139.97 70.53C141.07 71.41 141.987 72.565 142.72 73.995C143.49 75.425 143.875 77.1117 143.875 79.055C143.875 81.365 143.398 83.345 142.445 84.995C141.528 86.6083 140.208 87.855 138.485 88.735C136.798 89.5783 134.8 90 132.49 90H117.09ZM127.54 80.54H129.96C130.693 80.54 131.353 80.265 131.94 79.715C132.563 79.165 132.875 78.45 132.875 77.57C132.875 76.58 132.6 75.8467 132.05 75.37C131.537 74.8567 130.858 74.6 130.015 74.6H127.54V80.54ZM127.54 66.515H129.63C130.363 66.515 130.987 66.2217 131.5 65.635C132.013 65.0483 132.27 64.2967 132.27 63.38C132.27 62.4633 132.013 61.7483 131.5 61.235C130.987 60.7217 130.363 60.465 129.63 60.465H127.54V66.515ZM144.004 90V88.46L150.879 51.5L167.214 51.555L174.089 88.46V90H163.144L162.319 82.905H155.829L155.004 90H144.004ZM156.819 73.83H161.329L159.899 61.455H158.249L156.819 73.83ZM159.074 49.245C161.787 49.245 163.841 48.97 165.234 48.42C166.664 47.87 167.856 47.1917 168.809 46.385V43.91H168.369C167.526 44.5333 166.334 45.01 164.794 45.34C163.254 45.6333 161.347 45.78 159.074 45.78C156.801 45.78 154.894 45.6333 153.354 45.34C151.814 45.01 150.622 44.5333 149.779 43.91H149.339V46.385C150.292 47.1917 151.484 47.87 152.914 48.42C154.344 48.97 156.397 49.245 159.074 49.245ZM168.259 37.42L168.699 37.53V40.94C167.746 41.5267 166.591 42.0217 165.234 42.425C163.877 42.7917 162.447 43.085 160.944 43.305C159.477 43.525 158.066 43.69 156.709 43.8C155.389 43.8733 154.271 43.91 153.354 43.91V41.49C154.637 41.49 156.177 41.3617 157.974 41.105C159.771 40.8117 161.586 40.3717 163.419 39.785C165.252 39.1617 166.866 38.3733 168.259 37.42ZM197.676 51.5V61.18H191.461V90H181.011V61.18H174.521V51.5H197.676ZM226.887 72.565H223.477V80.045H224.192C225.768 80.045 227.07 79.2383 228.097 77.625C229.16 75.975 229.692 73.6833 229.692 70.75C229.692 67.7433 229.16 65.4517 228.097 63.875C227.033 62.2617 225.732 61.455 224.192 61.455H223.477V69.045H226.887V72.565ZM211.652 72.565V69.045H213.027V51.5H224.302C227.308 51.5 230.022 52.1967 232.442 53.59C234.862 54.9467 236.787 57.0367 238.217 59.86C239.647 62.6833 240.362 66.3133 240.362 70.75C240.362 75.15 239.647 78.78 238.217 81.64C236.787 84.4633 234.862 86.5717 232.442 87.965C230.022 89.3217 227.308 90 224.302 90H213.027V72.565H211.652ZM241.113 90V88.46L247.988 51.5L264.323 51.555L271.198 88.46V90H260.253L259.428 82.905H252.938L252.113 90H241.113ZM253.928 73.83H258.438L257.008 61.455H255.358L253.928 73.83ZM253.708 42.37H258.658C259.428 43.69 260.418 44.7533 261.628 45.56C262.838 46.3667 264.415 46.77 266.358 46.77V49.19C264.488 49.19 262.637 48.9333 260.803 48.42C259.007 47.9067 257.577 46.99 256.513 45.67H255.853C254.79 46.99 253.342 47.9067 251.508 48.42C249.712 48.9333 247.878 49.19 246.008 49.19V46.77C247.952 46.77 249.547 46.3667 250.793 45.56C252.04 44.7167 253.012 43.6533 253.708 42.37ZM259.263 36.815C260.473 37.7683 261.903 38.5567 263.553 39.18C265.203 39.7667 266.817 40.2067 268.393 40.5C270.007 40.7567 271.382 40.885 272.518 40.885V43.305C271.712 43.305 270.703 43.2683 269.493 43.195C268.32 43.085 267.073 42.92 265.753 42.7C264.433 42.48 263.168 42.1867 261.958 41.82C260.748 41.4167 259.722 40.9217 258.878 40.335V36.925L259.263 36.815ZM300.45 75.92C300.45 78.5967 300.047 80.8883 299.24 82.795C298.47 84.665 297.407 86.1683 296.05 87.305C294.73 88.4417 293.263 89.285 291.65 89.835C290.037 90.3483 288.405 90.605 286.755 90.605C285.142 90.605 283.528 90.3483 281.915 89.835C280.302 89.285 278.835 88.4417 277.515 87.305C276.195 86.1683 275.132 84.665 274.325 82.795C273.555 80.8883 273.17 78.5967 273.17 75.92V51.5H283.785V74.325C283.785 75.315 283.84 76.25 283.95 77.13C284.097 77.9733 284.372 78.6517 284.775 79.165C285.215 79.6783 285.875 79.935 286.755 79.935C287.672 79.935 288.332 79.6783 288.735 79.165C289.175 78.6517 289.468 77.9733 289.615 77.13C289.762 76.25 289.835 75.315 289.835 74.325V51.5H300.45V75.92Z" fill="white"/>
<path d="M117.09 90H115.29V91.8H117.09V90ZM117.09 51.5V49.7H115.29V51.5H117.09ZM139.805 53.975L138.56 55.2752L138.567 55.2821L138.575 55.289L139.805 53.975ZM141.51 64.315L139.922 63.4679L139.911 63.4888L139.9 63.51L141.51 64.315ZM139.42 66.955L138.311 65.5375L138.295 65.5495L138.28 65.5619L139.42 66.955ZM136.945 68.385L136.354 66.6849L135.145 67.1053V68.385H136.945ZM136.945 68.825H135.145V70.2045L136.477 70.5631L136.945 68.825ZM139.97 70.53L138.822 71.9167L138.834 71.9262L138.846 71.9356L139.97 70.53ZM142.72 73.995L141.118 74.8164L141.127 74.8325L141.135 74.8484L142.72 73.995ZM142.445 84.995L140.886 84.0945L140.88 84.1058L142.445 84.995ZM138.485 88.735L139.29 90.345L139.297 90.3416L139.304 90.3381L138.485 88.735ZM127.54 80.54H125.74V82.34H127.54V80.54ZM131.94 79.715L130.749 78.3653L130.729 78.3833L130.709 78.4018L131.94 79.715ZM132.05 75.37L130.777 76.6428L130.823 76.6882L130.871 76.7302L132.05 75.37ZM127.54 74.6V72.8H125.74V74.6H127.54ZM127.54 66.515H125.74V68.315H127.54V66.515ZM127.54 60.465V58.665H125.74V60.465H127.54ZM117.09 90H118.89V51.5H117.09H115.29V90H117.09ZM117.09 51.5V53.3H132.875V51.5V49.7H117.09V51.5ZM132.875 51.5V53.3C135.413 53.3 137.241 54.012 138.56 55.2752L139.805 53.975L141.05 52.6748C138.922 50.638 136.13 49.7 132.875 49.7V51.5ZM139.805 53.975L138.575 55.289C139.895 56.5251 140.59 58.1378 140.59 60.3H142.39H144.19C144.19 57.2555 143.162 54.6516 141.035 52.661L139.805 53.975ZM142.39 60.3H140.59C140.59 61.6577 140.337 62.6887 139.922 63.4679L141.51 64.315L143.098 65.1621C143.856 63.7413 144.19 62.0956 144.19 60.3H142.39ZM141.51 64.315L139.9 63.51C139.452 64.4067 138.915 65.0648 138.311 65.5375L139.42 66.955L140.529 68.3725C141.612 67.5252 142.468 66.4233 143.12 65.12L141.51 64.315ZM139.42 66.955L138.28 65.5619C137.61 66.1101 136.967 66.4715 136.354 66.6849L136.945 68.385L137.536 70.0851C138.609 69.7119 139.617 69.1199 140.56 68.3481L139.42 66.955ZM136.945 68.385H135.145V68.825H136.945H138.745V68.385H136.945ZM136.945 68.825L136.477 70.5631C137.103 70.7316 137.884 71.14 138.822 71.9167L139.97 70.53L141.118 69.1433C139.929 68.16 138.694 67.4318 137.413 67.0869L136.945 68.825ZM139.97 70.53L138.846 71.9356C139.721 72.6358 140.485 73.5808 141.118 74.8164L142.72 73.995L144.322 73.1736C143.489 71.5492 142.419 70.1842 141.094 69.1244L139.97 70.53ZM142.72 73.995L141.135 74.8484C141.739 75.9692 142.075 77.3512 142.075 79.055H143.875H145.675C145.675 76.8721 145.241 74.8808 144.305 73.1416L142.72 73.995ZM143.875 79.055H142.075C142.075 81.1158 141.651 82.7709 140.886 84.0945L142.445 84.995L144.004 85.8955C145.145 83.9191 145.675 81.6142 145.675 79.055H143.875ZM142.445 84.995L140.88 84.1058C140.145 85.3998 139.091 86.4046 137.666 87.1319L138.485 88.735L139.304 90.3381C141.326 89.3054 142.912 87.8168 144.01 85.8842L142.445 84.995ZM138.485 88.735L137.68 87.125C136.293 87.8184 134.582 88.2 132.49 88.2V90V91.8C135.018 91.8 137.303 91.3383 139.29 90.345L138.485 88.735ZM132.49 90V88.2H117.09V90V91.8H132.49V90ZM127.54 80.54V82.34H129.96V80.54V78.74H127.54V80.54ZM129.96 80.54V82.34C131.197 82.34 132.286 81.858 133.171 81.0282L131.94 79.715L130.709 78.4018C130.421 78.672 130.19 78.74 129.96 78.74V80.54ZM131.94 79.715L133.131 81.0647C134.167 80.151 134.675 78.9321 134.675 77.57H132.875H131.075C131.075 77.9679 130.96 78.179 130.749 78.3653L131.94 79.715ZM132.875 77.57H134.675C134.675 76.2554 134.301 74.9393 133.229 74.0098L132.05 75.37L130.871 76.7302C130.899 76.754 131.075 76.9046 131.075 77.57H132.875ZM132.05 75.37L133.323 74.0972C132.417 73.1916 131.252 72.8 130.015 72.8V74.6V76.4C130.464 76.4 130.656 76.5218 130.777 76.6428L132.05 75.37ZM130.015 74.6V72.8H127.54V74.6V76.4H130.015V74.6ZM127.54 74.6H125.74V80.54H127.54H129.34V74.6H127.54ZM127.54 66.515V68.315H129.63V66.515V64.715H127.54V66.515ZM129.63 66.515V68.315C130.918 68.315 132.024 67.7697 132.855 66.8203L131.5 65.635L130.145 64.4497C129.949 64.6736 129.808 64.715 129.63 64.715V66.515ZM131.5 65.635L132.855 66.8203C133.704 65.8493 134.07 64.6517 134.07 63.38H132.27H130.47C130.47 63.9416 130.322 64.2474 130.145 64.4497L131.5 65.635ZM132.27 63.38H134.07C134.07 62.118 133.707 60.8962 132.773 59.9622L131.5 61.235L130.227 62.5078C130.32 62.6004 130.47 62.8087 130.47 63.38H132.27ZM131.5 61.235L132.773 59.9622C131.918 59.1075 130.835 58.665 129.63 58.665V60.465V62.265C129.891 62.265 130.055 62.3359 130.227 62.5078L131.5 61.235ZM129.63 60.465V58.665H127.54V60.465V62.265H129.63V60.465ZM127.54 60.465H125.74V66.515H127.54H129.34V60.465H127.54ZM144.004 90H142.204V91.8H144.004V90ZM144.004 88.46L142.234 88.1308L142.204 88.294V88.46H144.004ZM150.879 51.5L150.885 49.7L149.384 49.695L149.109 51.1708L150.879 51.5ZM167.214 51.555L168.983 51.2253L168.71 49.76L167.22 49.755L167.214 51.555ZM174.089 88.46H175.889V88.2938L175.858 88.1304L174.089 88.46ZM174.089 90V91.8H175.889V90H174.089ZM163.144 90L161.356 90.2079L161.541 91.8H163.144V90ZM162.319 82.905L164.107 82.6971L163.922 81.105H162.319V82.905ZM155.829 82.905V81.105H154.226L154.041 82.6971L155.829 82.905ZM155.004 90V91.8H156.607L156.792 90.2079L155.004 90ZM156.819 73.83L155.031 73.6234L154.799 75.63H156.819V73.83ZM161.329 73.83V75.63H163.349L163.117 73.6234L161.329 73.83ZM159.899 61.455L161.687 61.2484L161.503 59.655H159.899V61.455ZM158.249 61.455V59.655H156.645L156.461 61.2484L158.249 61.455ZM165.234 48.42L164.588 46.74L164.58 46.7428L164.573 46.7457L165.234 48.42ZM168.809 46.385L169.972 47.7591L170.609 47.2198V46.385H168.809ZM168.809 43.91H170.609V42.11H168.809V43.91ZM168.369 43.91V42.11H167.776L167.299 42.4625L168.369 43.91ZM164.794 45.34L165.131 47.1082L165.151 47.1044L165.171 47.1L164.794 45.34ZM153.354 45.34L152.977 47.1L152.997 47.1044L153.017 47.1082L153.354 45.34ZM149.779 43.91L150.849 42.4625L150.372 42.11H149.779V43.91ZM149.339 43.91V42.11H147.539V43.91H149.339ZM149.339 46.385H147.539V47.2198L148.176 47.7591L149.339 46.385ZM152.914 48.42L152.268 50.1L152.914 48.42ZM168.259 37.42L168.695 35.6737L167.91 35.4775L167.242 35.9344L168.259 37.42ZM168.699 37.53H170.499V36.1246L169.135 35.7837L168.699 37.53ZM168.699 40.94L169.642 42.473L170.499 41.9458V40.94H168.699ZM165.234 42.425L165.704 44.1627L165.725 44.1568L165.747 44.1504L165.234 42.425ZM160.944 43.305L160.683 41.524L160.677 41.5249L160.944 43.305ZM156.709 43.8L156.809 45.5972L156.832 45.596L156.854 45.5941L156.709 43.8ZM153.354 43.91H151.554V45.71H153.354V43.91ZM153.354 41.49V39.69H151.554V41.49H153.354ZM157.974 41.105L158.228 42.8869L158.246 42.8844L158.264 42.8815L157.974 41.105ZM163.419 39.785L163.968 41.4994L163.983 41.4944L163.998 41.4892L163.419 39.785ZM144.004 90H145.804V88.46H144.004H142.204V90H144.004ZM144.004 88.46L145.774 88.7892L152.649 51.8292L150.879 51.5L149.109 51.1708L142.234 88.1308L144.004 88.46ZM150.879 51.5L150.873 53.3L167.208 53.355L167.214 51.555L167.22 49.755L150.885 49.7L150.879 51.5ZM167.214 51.555L165.444 51.8846L172.319 88.7896L174.089 88.46L175.858 88.1304L168.983 51.2253L167.214 51.555ZM174.089 88.46H172.289V90H174.089H175.889V88.46H174.089ZM174.089 90V88.2H163.144V90V91.8H174.089V90ZM163.144 90L164.932 89.7921L164.107 82.6971L162.319 82.905L160.531 83.1129L161.356 90.2079L163.144 90ZM162.319 82.905V81.105H155.829V82.905V84.705H162.319V82.905ZM155.829 82.905L154.041 82.6971L153.216 89.7921L155.004 90L156.792 90.2079L157.617 83.1129L155.829 82.905ZM155.004 90V88.2H144.004V90V91.8H155.004V90ZM156.819 73.83V75.63H161.329V73.83V72.03H156.819V73.83ZM161.329 73.83L163.117 73.6234L161.687 61.2484L159.899 61.455L158.111 61.6616L159.541 74.0366L161.329 73.83ZM159.899 61.455V59.655H158.249V61.455V63.255H159.899V61.455ZM158.249 61.455L156.461 61.2484L155.031 73.6234L156.819 73.83L158.607 74.0366L160.037 61.6616L158.249 61.455ZM159.074 49.245V51.045C161.86 51.045 164.184 50.7694 165.895 50.0943L165.234 48.42L164.573 46.7457C163.497 47.1706 161.714 47.445 159.074 47.445V49.245ZM165.234 48.42L165.88 50.1C167.457 49.4935 168.834 48.7216 169.972 47.7591L168.809 46.385L167.646 45.0109C166.877 45.6617 165.871 46.2465 164.588 46.74L165.234 48.42ZM168.809 46.385H170.609V43.91H168.809H167.009V46.385H168.809ZM168.809 43.91V42.11H168.369V43.91V45.71H168.809V43.91ZM168.369 43.91L167.299 42.4625C166.739 42.8767 165.821 43.2791 164.417 43.58L164.794 45.34L165.171 47.1C166.847 46.7409 168.313 46.19 169.439 45.3575L168.369 43.91ZM164.794 45.34L164.457 43.5718C163.065 43.8369 161.28 43.98 159.074 43.98V45.78V47.58C161.415 47.58 163.442 47.4298 165.131 47.1082L164.794 45.34ZM159.074 45.78V43.98C156.868 43.98 155.082 43.8369 153.691 43.5718L153.354 45.34L153.017 47.1082C154.705 47.4298 156.733 47.58 159.074 47.58V45.78ZM153.354 45.34L153.731 43.58C152.327 43.2791 151.409 42.8767 150.849 42.4625L149.779 43.91L148.709 45.3575C149.835 46.19 151.301 46.7409 152.977 47.1L153.354 45.34ZM149.779 43.91V42.11H149.339V43.91V45.71H149.779V43.91ZM149.339 43.91H147.539V46.385H149.339H151.139V43.91H149.339ZM149.339 46.385L148.176 47.7591C149.314 48.7216 150.691 49.4935 152.268 50.1L152.914 48.42L153.56 46.74C152.277 46.2465 151.271 45.6617 150.502 45.0109L149.339 46.385ZM152.914 48.42L152.268 50.1C154.003 50.7675 156.316 51.045 159.074 51.045V49.245V47.445C156.478 47.445 154.685 47.1725 153.56 46.74L152.914 48.42ZM168.259 37.42L167.822 39.1663L168.262 39.2763L168.699 37.53L169.135 35.7837L168.695 35.6737L168.259 37.42ZM168.699 37.53H166.899V40.94H168.699H170.499V37.53H168.699ZM168.699 40.94L167.756 39.407C166.967 39.8925 165.964 40.33 164.721 40.6996L165.234 42.425L165.747 44.1504C167.217 43.7133 168.525 43.1608 169.642 42.473L168.699 40.94ZM165.234 42.425L164.764 40.6873C163.482 41.034 162.122 41.3135 160.683 41.524L160.944 43.305L161.205 45.086C162.773 44.8565 164.273 44.5493 165.704 44.1627L165.234 42.425ZM160.944 43.305L160.677 41.5249C159.247 41.7394 157.876 41.8995 156.563 42.0059L156.709 43.8L156.854 45.5941C158.255 45.4805 159.707 45.3106 161.211 45.0851L160.944 43.305ZM156.709 43.8L156.609 42.0028C155.309 42.075 154.226 42.11 153.354 42.11V43.91V45.71C154.315 45.71 155.469 45.6717 156.809 45.5972L156.709 43.8ZM153.354 43.91H155.154V41.49H153.354H151.554V43.91H153.354ZM153.354 41.49V43.29C154.749 43.29 156.379 43.1511 158.228 42.8869L157.974 41.105L157.719 39.3231C155.975 39.5722 154.525 39.69 153.354 39.69V41.49ZM157.974 41.105L158.264 42.8815C160.153 42.5731 162.054 42.1115 163.968 41.4994L163.419 39.785L162.87 38.0706C161.117 38.6318 159.388 39.0503 157.684 39.3285L157.974 41.105ZM163.419 39.785L163.998 41.4892C165.964 40.8207 167.729 39.9637 169.275 38.9056L168.259 37.42L167.242 35.9344C166.002 36.783 164.54 37.5026 162.839 38.0808L163.419 39.785ZM197.676 51.5H199.476V49.7H197.676V51.5ZM197.676 61.18V62.98H199.476V61.18H197.676ZM191.461 61.18V59.38H189.661V61.18H191.461ZM191.461 90V91.8H193.261V90H191.461ZM181.011 90H179.211V91.8H181.011V90ZM181.011 61.18H182.811V59.38H181.011V61.18ZM174.521 61.18H172.721V62.98H174.521V61.18ZM174.521 51.5V49.7H172.721V51.5H174.521ZM197.676 51.5H195.876V61.18H197.676H199.476V51.5H197.676ZM197.676 61.18V59.38H191.461V61.18V62.98H197.676V61.18ZM191.461 61.18H189.661V90H191.461H193.261V61.18H191.461ZM191.461 90V88.2H181.011V90V91.8H191.461V90ZM181.011 90H182.811V61.18H181.011H179.211V90H181.011ZM181.011 61.18V59.38H174.521V61.18V62.98H181.011V61.18ZM174.521 61.18H176.321V51.5H174.521H172.721V61.18H174.521ZM174.521 51.5V53.3H197.676V51.5V49.7H174.521V51.5ZM226.887 72.565V74.365H228.687V72.565H226.887ZM223.477 72.565V70.765H221.677V72.565H223.477ZM223.477 80.045H221.677V81.845H223.477V80.045ZM228.097 77.625L226.584 76.6499L226.578 76.6586L228.097 77.625ZM228.097 63.875L226.594 64.8656L226.599 64.8735L226.604 64.8815L228.097 63.875ZM223.477 61.455V59.655H221.677V61.455H223.477ZM223.477 69.045H221.677V70.845H223.477V69.045ZM226.887 69.045H228.687V67.245H226.887V69.045ZM211.652 72.565H209.852V74.365H211.652V72.565ZM211.652 69.045V67.245H209.852V69.045H211.652ZM213.027 69.045V70.845H214.827V69.045H213.027ZM213.027 51.5V49.7H211.227V51.5H213.027ZM232.442 53.59L231.544 55.1499L231.553 55.1551L231.562 55.1601L232.442 53.59ZM238.217 59.86L239.823 59.0467L238.217 59.86ZM238.217 81.64L239.823 82.4533L239.827 82.445L238.217 81.64ZM232.442 87.965L233.322 89.5351L233.331 89.5301L233.34 89.5249L232.442 87.965ZM213.027 90H211.227V91.8H213.027V90ZM213.027 72.565H214.827V70.765H213.027V72.565ZM226.887 72.565V70.765H223.477V72.565V74.365H226.887V72.565ZM223.477 72.565H221.677V80.045H223.477H225.277V72.565H223.477ZM223.477 80.045V81.845H224.192V80.045V78.245H223.477V80.045ZM224.192 80.045V81.845C226.521 81.845 228.34 80.5963 229.615 78.5914L228.097 77.625L226.578 76.6586C225.801 77.8804 225.016 78.245 224.192 78.245V80.045ZM228.097 77.625L229.61 78.6001C230.932 76.549 231.492 73.8691 231.492 70.75H229.692H227.892C227.892 73.4976 227.389 75.401 226.584 76.6499L228.097 77.625ZM229.692 70.75H231.492C231.492 67.5764 230.938 64.8693 229.589 62.8685L228.097 63.875L226.604 64.8815C227.382 66.034 227.892 67.9103 227.892 70.75H229.692ZM228.097 63.875L229.6 62.8844C228.3 60.9118 226.493 59.655 224.192 59.655V61.455V63.255C224.97 63.255 225.767 63.6115 226.594 64.8656L228.097 63.875ZM224.192 61.455V59.655H223.477V61.455V63.255H224.192V61.455ZM223.477 61.455H221.677V69.045H223.477H225.277V61.455H223.477ZM223.477 69.045V70.845H226.887V69.045V67.245H223.477V69.045ZM226.887 69.045H225.087V72.565H226.887H228.687V69.045H226.887ZM211.652 72.565H213.452V69.045H211.652H209.852V72.565H211.652ZM211.652 69.045V70.845H213.027V69.045V67.245H211.652V69.045ZM213.027 69.045H214.827V51.5H213.027H211.227V69.045H213.027ZM213.027 51.5V53.3H224.302V51.5V49.7H213.027V51.5ZM224.302 51.5V53.3C227.018 53.3 229.418 53.9259 231.544 55.1499L232.442 53.59L233.34 52.0301C230.626 50.4674 227.599 49.7 224.302 49.7V51.5ZM232.442 53.59L231.562 55.1601C233.628 56.3183 235.319 58.1224 236.611 60.6733L238.217 59.86L239.823 59.0467C238.255 55.9509 236.096 53.575 233.322 52.0199L232.442 53.59ZM238.217 59.86L236.611 60.6733C237.873 63.164 238.562 66.4892 238.562 70.75H240.362H242.162C242.162 66.1375 241.421 62.2027 239.823 59.0467L238.217 59.86ZM240.362 70.75H238.562C238.562 74.9699 237.874 78.3008 236.607 80.835L238.217 81.64L239.827 82.445C241.42 79.2592 242.162 75.3301 242.162 70.75H240.362ZM238.217 81.64L236.611 80.8267C235.317 83.3805 233.621 85.209 231.544 86.4051L232.442 87.965L233.34 89.5249C236.103 87.9343 238.256 85.5461 239.823 82.4533L238.217 81.64ZM232.442 87.965L231.562 86.3949C229.433 87.5884 227.027 88.2 224.302 88.2V90V91.8C227.59 91.8 230.611 91.055 233.322 89.5351L232.442 87.965ZM224.302 90V88.2H213.027V90V91.8H224.302V90ZM213.027 90H214.827V72.565H213.027H211.227V90H213.027ZM213.027 72.565V70.765H211.652V72.565V74.365H213.027V72.565ZM241.113 90H239.313V91.8H241.113V90ZM241.113 88.46L239.344 88.1308L239.313 88.294V88.46H241.113ZM247.988 51.5L247.994 49.7L246.493 49.695L246.219 51.1708L247.988 51.5ZM264.323 51.555L266.093 51.2253L265.82 49.76L264.329 49.755L264.323 51.555ZM271.198 88.46H272.998V88.2938L272.968 88.1304L271.198 88.46ZM271.198 90V91.8H272.998V90H271.198ZM260.253 90L258.465 90.2079L258.65 91.8H260.253V90ZM259.428 82.905L261.216 82.6971L261.031 81.105H259.428V82.905ZM252.938 82.905V81.105H251.335L251.15 82.6971L252.938 82.905ZM252.113 90V91.8H253.716L253.901 90.2079L252.113 90ZM253.928 73.83L252.14 73.6234L251.908 75.63H253.928V73.83ZM258.438 73.83V75.63H260.458L260.226 73.6234L258.438 73.83ZM257.008 61.455L258.796 61.2484L258.612 59.655H257.008V61.455ZM255.358 61.455V59.655H253.754L253.57 61.2484L255.358 61.455ZM253.708 42.37V40.57H252.637L252.126 41.5112L253.708 42.37ZM258.658 42.37L260.213 41.463L259.692 40.57H258.658V42.37ZM261.628 45.56L262.627 44.0623L261.628 45.56ZM266.358 46.77H268.158V44.97H266.358V46.77ZM266.358 49.19V50.99H268.158V49.19H266.358ZM260.803 48.42L260.309 50.1508L260.318 50.1533L260.803 48.42ZM256.513 45.67L257.915 44.5408L257.375 43.87H256.513V45.67ZM255.853 45.67V43.87H254.992L254.452 44.5408L255.853 45.67ZM251.508 48.42L251.023 46.6866L251.014 46.6893L251.508 48.42ZM246.008 49.19H244.208V50.99H246.008V49.19ZM246.008 46.77V44.97H244.208V46.77H246.008ZM250.793 45.56L251.771 47.0712L251.787 47.0612L251.802 47.0509L250.793 45.56ZM259.263 36.815L260.377 35.4011L259.654 34.8313L258.769 35.0843L259.263 36.815ZM263.553 39.18L262.917 40.8638L262.934 40.8701L262.95 40.876L263.553 39.18ZM268.393 40.5L268.064 42.2696L268.087 42.2739L268.11 42.2776L268.393 40.5ZM272.518 40.885H274.318V39.085H272.518V40.885ZM272.518 43.305V45.105H274.318V43.305H272.518ZM269.493 43.195L269.325 44.9871L269.355 44.9899L269.384 44.9917L269.493 43.195ZM265.753 42.7L265.457 44.4755V44.4755L265.753 42.7ZM261.958 41.82L261.389 43.5276L261.413 43.5355L261.436 43.5426L261.958 41.82ZM258.878 40.335H257.078V41.2755L257.85 41.8126L258.878 40.335ZM258.878 36.925L258.384 35.1943L257.078 35.5673V36.925H258.878ZM241.113 90H242.913V88.46H241.113H239.313V90H241.113ZM241.113 88.46L242.883 88.7892L249.758 51.8292L247.988 51.5L246.219 51.1708L239.344 88.1308L241.113 88.46ZM247.988 51.5L247.982 53.3L264.317 53.355L264.323 51.555L264.329 49.755L247.994 49.7L247.988 51.5ZM264.323 51.555L262.554 51.8846L269.429 88.7896L271.198 88.46L272.968 88.1304L266.093 51.2253L264.323 51.555ZM271.198 88.46H269.398V90H271.198H272.998V88.46H271.198ZM271.198 90V88.2H260.253V90V91.8H271.198V90ZM260.253 90L262.041 89.7921L261.216 82.6971L259.428 82.905L257.64 83.1129L258.465 90.2079L260.253 90ZM259.428 82.905V81.105H252.938V82.905V84.705H259.428V82.905ZM252.938 82.905L251.15 82.6971L250.325 89.7921L252.113 90L253.901 90.2079L254.726 83.1129L252.938 82.905ZM252.113 90V88.2H241.113V90V91.8H252.113V90ZM253.928 73.83V75.63H258.438V73.83V72.03H253.928V73.83ZM258.438 73.83L260.226 73.6234L258.796 61.2484L257.008 61.455L255.22 61.6616L256.65 74.0366L258.438 73.83ZM257.008 61.455V59.655H255.358V61.455V63.255H257.008V61.455ZM255.358 61.455L253.57 61.2484L252.14 73.6234L253.928 73.83L255.716 74.0366L257.146 61.6616L255.358 61.455ZM253.708 42.37V44.17H258.658V42.37V40.57H253.708V42.37ZM258.658 42.37L257.103 43.277C258.004 44.8213 259.18 46.0913 260.63 47.0577L261.628 45.56L262.627 44.0623C261.656 43.4154 260.852 42.5587 260.213 41.463L258.658 42.37ZM261.628 45.56L260.63 47.0577C262.22 48.1177 264.177 48.57 266.358 48.57V46.77V44.97C264.653 44.97 263.457 44.6156 262.627 44.0623L261.628 45.56ZM266.358 46.77H264.558V49.19H266.358H268.158V46.77H266.358ZM266.358 49.19V47.39C264.655 47.39 262.967 47.1566 261.289 46.6867L260.803 48.42L260.318 50.1533C262.306 50.7101 264.321 50.99 266.358 50.99V49.19ZM260.803 48.42L261.298 46.6893C259.82 46.267 258.721 45.5419 257.915 44.5408L256.513 45.67L255.112 46.7992C256.432 48.4381 258.193 49.5463 260.309 50.1507L260.803 48.42ZM256.513 45.67V43.87H255.853V45.67V47.47H256.513V45.67ZM255.853 45.67L254.452 44.5408C253.652 45.5335 252.542 46.2614 251.023 46.6867L251.508 48.42L251.994 50.1533C254.141 49.5519 255.928 48.4465 257.255 46.7992L255.853 45.67ZM251.508 48.42L251.014 46.6893C249.378 47.1566 247.711 47.39 246.008 47.39V49.19V50.99C248.045 50.99 250.045 50.7101 252.003 50.1507L251.508 48.42ZM246.008 49.19H247.808V46.77H246.008H244.208V49.19H246.008ZM246.008 46.77V48.57C248.193 48.57 250.156 48.1164 251.771 47.0712L250.793 45.56L249.815 44.0488C248.937 44.6169 247.71 44.97 246.008 44.97V46.77ZM250.793 45.56L251.802 47.0509C253.28 46.051 254.452 44.7737 255.29 43.2288L253.708 42.37L252.126 41.5112C251.572 42.533 250.8 43.3823 249.785 44.0691L250.793 45.56ZM259.263 36.815L258.149 38.2289C259.523 39.3112 261.12 40.1847 262.917 40.8638L263.553 39.18L264.189 37.4961C262.687 36.9286 261.423 36.2254 260.377 35.4011L259.263 36.815ZM263.553 39.18L262.95 40.876C264.681 41.4915 266.386 41.9575 268.064 42.2696L268.393 40.5L268.723 38.7304C267.247 38.4558 265.725 38.0418 264.156 37.484L263.553 39.18ZM268.393 40.5L268.11 42.2776C269.781 42.5433 271.256 42.685 272.518 42.685V40.885V39.085C271.507 39.085 270.233 38.97 268.676 38.7224L268.393 40.5ZM272.518 40.885H270.718V43.305H272.518H274.318V40.885H272.518ZM272.518 43.305V41.505C271.761 41.505 270.792 41.4704 269.602 41.3983L269.493 43.195L269.384 44.9917C270.615 45.0663 271.662 45.105 272.518 45.105V43.305ZM269.493 43.195L269.661 41.4029C268.536 41.2974 267.332 41.1383 266.049 40.9245L265.753 42.7L265.457 44.4755C266.814 44.7017 268.104 44.8726 269.325 44.9871L269.493 43.195ZM265.753 42.7L266.049 40.9245C264.801 40.7165 263.612 40.4403 262.48 40.0974L261.958 41.82L261.436 43.5426C262.725 43.933 264.065 44.2435 265.457 44.4755L265.753 42.7ZM261.958 41.82L262.527 40.1124C261.443 39.7509 260.579 39.3255 259.906 38.8574L258.878 40.335L257.85 41.8126C258.864 42.5178 260.054 43.0825 261.389 43.5276L261.958 41.82ZM258.878 40.335H260.678V36.925H258.878H257.078V40.335H258.878ZM258.878 36.925L259.373 38.6557L259.758 38.5457L259.263 36.815L258.769 35.0843L258.384 35.1943L258.878 36.925ZM299.24 82.795L297.582 82.0936L297.579 82.1016L297.576 82.1096L299.24 82.795ZM296.05 87.305L294.894 85.9253L294.885 85.9331L294.876 85.941L296.05 87.305ZM291.65 89.835L292.196 91.5503L292.213 91.5447L292.231 91.5387L291.65 89.835ZM281.915 89.835L281.334 91.5387L281.352 91.5447L281.369 91.5503L281.915 89.835ZM277.515 87.305L278.69 85.941L277.515 87.305ZM274.325 82.795L272.656 83.469L272.664 83.4886L272.672 83.508L274.325 82.795ZM273.17 51.5V49.7H271.37V51.5H273.17ZM283.785 51.5H285.585V49.7H283.785V51.5ZM283.95 77.13L282.164 77.3533L282.169 77.396L282.177 77.4384L283.95 77.13ZM284.775 79.165L283.36 80.2771L283.383 80.3073L283.408 80.3364L284.775 79.165ZM288.735 79.165L287.368 77.9936L287.343 78.0227L287.32 78.0529L288.735 79.165ZM289.615 77.13L291.389 77.4384L291.391 77.4259L289.615 77.13ZM289.835 51.5V49.7H288.035V51.5H289.835ZM300.45 51.5H302.25V49.7H300.45V51.5ZM300.45 75.92H298.65C298.65 78.4232 298.272 80.4636 297.582 82.0936L299.24 82.795L300.898 83.4964C301.822 81.3131 302.25 78.7701 302.25 75.92H300.45ZM299.24 82.795L297.576 82.1096C296.901 83.7492 295.998 85.0007 294.894 85.9253L296.05 87.305L297.206 88.6847C298.816 87.336 300.04 85.5808 300.905 83.4803L299.24 82.795ZM296.05 87.305L294.876 85.941C293.726 86.9309 292.46 87.6572 291.069 88.1313L291.65 89.835L292.231 91.5387C294.067 90.9128 295.734 89.9524 297.225 88.669L296.05 87.305ZM291.65 89.835L291.104 88.1197C289.663 88.5784 288.215 88.805 286.755 88.805V90.605V92.405C288.595 92.405 290.411 92.1183 292.196 91.5503L291.65 89.835ZM286.755 90.605V88.805C285.336 88.805 283.907 88.5797 282.461 88.1197L281.915 89.835L281.369 91.5503C283.15 92.117 284.948 92.405 286.755 92.405V90.605ZM281.915 89.835L282.496 88.1313C281.105 87.6572 279.839 86.9309 278.69 85.941L277.515 87.305L276.341 88.669C277.831 89.9524 279.498 90.9128 281.334 91.5387L281.915 89.835ZM277.515 87.305L278.69 85.941C277.609 85.01 276.695 83.7438 275.978 82.082L274.325 82.795L272.672 83.508C273.569 85.5862 274.782 87.3266 276.341 88.669L277.515 87.305ZM274.325 82.795L275.994 82.121C275.332 80.4824 274.97 78.432 274.97 75.92H273.17H271.37C271.37 78.7613 271.778 81.2942 272.656 83.469L274.325 82.795ZM273.17 75.92H274.97V51.5H273.17H271.37V75.92H273.17ZM273.17 51.5V53.3H283.785V51.5V49.7H273.17V51.5ZM283.785 51.5H281.985V74.325H283.785H285.585V51.5H283.785ZM283.785 74.325H281.985C281.985 75.3812 282.044 76.3913 282.164 77.3533L283.95 77.13L285.736 76.9067C285.636 76.1087 285.585 75.2488 285.585 74.325H283.785ZM283.95 77.13L282.177 77.4384C282.359 78.4869 282.724 79.468 283.36 80.2771L284.775 79.165L286.19 78.0529C286.02 77.8353 285.834 77.4598 285.723 76.8216L283.95 77.13ZM284.775 79.165L283.408 80.3364C284.287 81.3615 285.519 81.735 286.755 81.735V79.935V78.135C286.231 78.135 286.143 77.9952 286.142 77.9936L284.775 79.165ZM286.755 79.935V81.735C287.989 81.735 289.283 81.3813 290.15 80.2771L288.735 79.165L287.32 78.0529C287.334 78.0349 287.341 78.0431 287.285 78.0649C287.214 78.0924 287.053 78.135 286.755 78.135V79.935ZM288.735 79.165L290.102 80.3364C290.802 79.5199 291.201 78.517 291.389 77.4384L289.615 77.13L287.842 76.8216C287.736 77.4296 287.549 77.7835 287.368 77.9936L288.735 79.165ZM289.615 77.13L291.391 77.4259C291.555 76.4382 291.635 75.4035 291.635 74.325H289.835H288.035C288.035 75.2265 287.968 76.0618 287.84 76.8341L289.615 77.13ZM289.835 74.325H291.635V51.5H289.835H288.035V74.325H289.835ZM289.835 51.5V53.3H300.45V51.5V49.7H289.835V51.5ZM300.45 51.5H298.65V75.92H300.45H302.25V51.5H300.45Z" fill="#752602" mask="url(#path-5-outside-1_5_15)"/>
<defs>
<linearGradient id="paint0_linear_5_15" x1="209.14" y1="1.78999" x2="209.14" y2="132.07" gradientUnits="userSpaceOnUse">
<stop offset="0.25" stop-color="#D2943D"/>
<stop offset="1" stop-color="#A56D3C"/>
</linearGradient>
<linearGradient id="paint1_linear_5_15" x1="209.5" y1="13.26" x2="208.78" y2="118.89" gradientUnits="userSpaceOnUse">
<stop offset="0.25" stop-color="#F9D100"/>
<stop offset="1" stop-color="#E28E29"/>
</linearGradient>
<linearGradient id="paint2_linear_5_15" x1="21.91" y1="17.92" x2="399.21" y2="17.92" gradientUnits="userSpaceOnUse">
<stop offset="0.11" stop-color="#F2A927"/>
<stop offset="1" stop-color="#DF9A00"/>
</linearGradient>
</defs>
</svg>
